<ttFont>
    <TTGlyph name=".notdef" xMin="192" yMin="116" xMax="1685" yMax="1863">
      <contour>
        <pt x="1585" y="1856" on="1"/>
        <pt x="1685" y="1856" on="0"/>
        <pt x="1685" y="1738" on="1"/>
        <pt x="1681" y="204" on="1"/>
        <pt x="1681" y="154" on="0"/>
        <pt x="1636" y="118" on="0"/>
        <pt x="1596" y="116" on="1"/>
        <pt x="756" y="139" on="1"/>
        <pt x="277" y="125" on="1"/>
        <pt x="232" y="127" on="0"/>
        <pt x="200" y="175" on="0"/>
        <pt x="200" y="219" on="1"/>
        <pt x="192" y="1753" on="1"/>
        <pt x="192" y="1802" on="0"/>
        <pt x="262" y="1863" on="0"/>
        <pt x="315" y="1863" on="1"/>
      </contour>
      <contour>
        <pt x="1240" y="1378" on="1"/>
        <pt x="1234" y="1384" on="0"/>
        <pt x="1219" y="1384" on="0"/>
        <pt x="1212" y="1377" on="1"/>
        <pt x="935" y="1063" on="1"/>
        <pt x="658" y="1367" on="1"/>
        <pt x="651" y="1374" on="0"/>
        <pt x="640" y="1374" on="0"/>
        <pt x="633" y="1365" on="1"/>
        <pt x="521" y="1238" on="1"/>
        <pt x="513" y="1228" on="0"/>
        <pt x="513" y="1217" on="0"/>
        <pt x="519" y="1211" on="1"/>
        <pt x="814" y="937" on="1"/>
        <pt x="520" y="655" on="1"/>
        <pt x="515" y="650" on="0"/>
        <pt x="515" y="638" on="0"/>
        <pt x="522" y="631" on="1"/>
        <pt x="634" y="509" on="1"/>
        <pt x="642" y="501" on="0"/>
        <pt x="652" y="501" on="1"/>
        <pt x="662" y="501" on="0"/>
        <pt x="668" y="509" on="1"/>
        <pt x="934" y="817" on="1"/>
        <pt x="1214" y="522" on="1"/>
        <pt x="1225" y="511" on="0"/>
        <pt x="1232" y="511" on="1"/>
        <pt x="1239" y="511" on="0"/>
        <pt x="1245" y="519" on="1"/>
        <pt x="1361" y="651" on="1"/>
        <pt x="1367" y="659" on="0"/>
        <pt x="1367" y="666" on="1"/>
        <pt x="1367" y="673" on="0"/>
        <pt x="1362" y="677" on="1"/>
        <pt x="1057" y="942" on="1"/>
        <pt x="1355" y="1218" on="1"/>
        <pt x="1365" y="1228" on="0"/>
        <pt x="1365" y="1235" on="1"/>
        <pt x="1365" y="1242" on="0"/>
        <pt x="1358" y="1249" on="1"/>
      </contour>
    </TTGlyph>
    <TTGlyph name="A" xMin="34" yMin="2" xMax="1379" yMax="1539">
      <contour>
        <pt x="56" y="2" on="1"/>
        <pt x="34" y="4" on="0"/>
        <pt x="34" y="34" on="1"/>
        <pt x="34" y="201" on="1"/>
        <pt x="34" y="217" on="0"/>
        <pt x="47" y="229" on="0"/>
        <pt x="64" y="230" on="1"/>
        <pt x="156" y="226" on="1"/>
        <pt x="552" y="1510" on="1"/>
        <pt x="558" y="1529" on="0"/>
        <pt x="576" y="1531" on="1"/>
        <pt x="803" y="1539" on="1"/>
        <pt x="821" y="1538" on="0"/>
        <pt x="828" y="1516" on="1"/>
        <pt x="1260" y="233" on="1"/>
        <pt x="1351" y="236" on="1"/>
        <pt x="1379" y="234" on="0"/>
        <pt x="1379" y="204" on="1"/>
        <pt x="1379" y="46" on="1"/>
        <pt x="1379" y="29" on="0"/>
        <pt x="1365" y="19" on="0"/>
        <pt x="1348" y="19" on="1"/>
        <pt x="885" y="19" on="1"/>
        <pt x="867" y="19" on="0"/>
        <pt x="861" y="35" on="0"/>
        <pt x="861" y="49" on="1"/>
        <pt x="881" y="195" on="1"/>
        <pt x="883" y="212" on="0"/>
        <pt x="895" y="223" on="0"/>
        <pt x="911" y="223" on="1"/>
        <pt x="1025" y="226" on="1"/>
        <pt x="939" y="492" on="1"/>
        <pt x="444" y="502" on="1"/>
        <pt x="363" y="212" on="1"/>
        <pt x="484" y="224" on="1"/>
        <pt x="496" y="224" on="0"/>
        <pt x="505" y="214" on="0"/>
        <pt x="507" y="201" on="1"/>
        <pt x="522" y="49" on="1"/>
        <pt x="520" y="32" on="0"/>
        <pt x="507" y="20" on="0"/>
        <pt x="492" y="19" on="1"/>
      </contour>
      <contour>
        <pt x="491" y="672" on="1"/>
        <pt x="880" y="672" on="1"/>
        <pt x="670" y="1315" on="1"/>
      </contour>
    </TTGlyph>
    <TTGlyph name="AE" xMin="34" yMin="-64" xMax="1866" yMax="1553">
      <contour>
        <pt x="1539" y="812" on="1"/>
        <pt x="1566" y="810" on="0"/>
        <pt x="1566" y="787" on="1"/>
        <pt x="1553" y="631" on="1"/>
        <pt x="1551" y="608" on="0"/>
        <pt x="1535" y="608" on="1"/>
        <pt x="1139" y="601" on="1"/>
        <pt x="1138" y="204" on="1"/>
        <pt x="1634" y="222" on="1"/>
        <pt x="1643" y="343" on="1"/>
        <pt x="1647" y="380" on="0"/>
        <pt x="1685" y="382" on="1"/>
        <pt x="1820" y="387" on="1"/>
        <pt x="1848" y="386" on="0"/>
        <pt x="1850" y="356" on="1"/>
        <pt x="1866" y="-41" on="1"/>
        <pt x="1865" y="-64" on="0"/>
        <pt x="1845" y="-64" on="1"/>
        <pt x="1637" y="-60" on="1"/>
        <pt x="1615" y="-60" on="0"/>
        <pt x="1615" y="-34" on="1"/>
        <pt x="1619" y="26" on="1"/>
        <pt x="789" y="2" on="1"/>
        <pt x="767" y="2" on="0"/>
        <pt x="766" y="26" on="1"/>
        <pt x="772" y="205" on="1"/>
        <pt x="772" y="226" on="0"/>
        <pt x="791" y="229" on="1"/>
        <pt x="917" y="212" on="1"/>
        <pt x="933" y="596" on="1"/>
        <pt x="533" y="585" on="1"/>
        <pt x="385" y="214" on="1"/>
        <pt x="484" y="224" on="1"/>
        <pt x="496" y="224" on="0"/>
        <pt x="505" y="214" on="0"/>
        <pt x="507" y="201" on="1"/>
        <pt x="522" y="49" on="1"/>
        <pt x="520" y="32" on="0"/>
        <pt x="507" y="20" on="0"/>
        <pt x="492" y="19" on="1"/>
        <pt x="56" y="2" on="1"/>
        <pt x="34" y="4" on="0"/>
        <pt x="34" y="34" on="1"/>
        <pt x="34" y="201" on="1"/>
        <pt x="34" y="217" on="0"/>
        <pt x="47" y="229" on="0"/>
        <pt x="64" y="230" on="1"/>
        <pt x="165" y="225" on="1"/>
        <pt x="682" y="1490" on="1"/>
        <pt x="691" y="1509" on="0"/>
        <pt x="709" y="1511" on="1"/>
        <pt x="1725" y="1553" on="1"/>
        <pt x="1755" y="1551" on="0"/>
        <pt x="1755" y="1526" on="1"/>
        <pt x="1745" y="1171" on="1"/>
        <pt x="1745" y="1147" on="0"/>
        <pt x="1725" y="1144" on="1"/>
        <pt x="1563" y="1114" on="1"/>
        <pt x="1549" y="1114" on="0"/>
        <pt x="1541" y="1127" on="0"/>
        <pt x="1540" y="1140" on="1"/>
        <pt x="1527" y="1349" on="1"/>
        <pt x="1160" y="1343" on="1"/>
        <pt x="1141" y="783" on="1"/>
      </contour>
      <contour>
        <pt x="603" y="759" on="1"/>
        <pt x="938" y="775" on="1"/>
        <pt x="943" y="1348" on="1"/>
        <pt x="841" y="1354" on="1"/>
      </contour>
    </TTGlyph>
    <TTGlyph name="AEacute" xMin="34" yMin="-64" xMax="1866" yMax="2020">
      <contour>
        <pt x="1539" y="812" on="1"/>
        <pt x="1566" y="810" on="0"/>
        <pt x="1566" y="787" on="1"/>
        <pt x="1553" y="631" on="1"/>
        <pt x="1551" y="608" on="0"/>
        <pt x="1535" y="608" on="1"/>
        <pt x="1139" y="601" on="1"/>
        <pt x="1138" y="204" on="1"/>
        <pt x="1634" y="222" on="1"/>
        <pt x="1643" y="343" on="1"/>
        <pt x="1647" y="380" on="0"/>
        <pt x="1685" y="382" on="1"/>
        <pt x="1820" y="387" on="1"/>
        <pt x="1848" y="386" on="0"/>
        <pt x="1850" y="356" on="1"/>
        <pt x="1866" y="-41" on="1"/>
        <pt x="1865" y="-64" on="0"/>
        <pt x="1845" y="-64" on="1"/>
        <pt x="1637" y="-60" on="1"/>
        <pt x="1615" y="-60" on="0"/>
        <pt x="1615" y="-34" on="1"/>
        <pt x="1619" y="26" on="1"/>
        <pt x="789" y="2" on="1"/>
        <pt x="767" y="2" on="0"/>
        <pt x="766" y="26" on="1"/>
        <pt x="772" y="205" on="1"/>
        <pt x="772" y="226" on="0"/>
        <pt x="791" y="229" on="1"/>
        <pt x="917" y="212" on="1"/>
        <pt x="933" y="596" on="1"/>
        <pt x="533" y="585" on="1"/>
        <pt x="385" y="214" on="1"/>
        <pt x="484" y="224" on="1"/>
        <pt x="496" y="224" on="0"/>
        <pt x="505" y="214" on="0"/>
        <pt x="507" y="201" on="1"/>
        <pt x="522" y="49" on="1"/>
        <pt x="520" y="32" on="0"/>
        <pt x="507" y="20" on="0"/>
        <pt x="492" y="19" on="1"/>
        <pt x="56" y="2" on="1"/>
        <pt x="34" y="4" on="0"/>
        <pt x="34" y="34" on="1"/>
        <pt x="34" y="201" on="1"/>
        <pt x="34" y="217" on="0"/>
        <pt x="47" y="229" on="0"/>
        <pt x="64" y="230" on="1"/>
        <pt x="165" y="225" on="1"/>
        <pt x="682" y="1490" on="1"/>
        <pt x="691" y="1509" on="0"/>
        <pt x="709" y="1511" on="1"/>
        <pt x="1725" y="1553" on="1"/>
        <pt x="1755" y="1551" on="0"/>
        <pt x="1755" y="1526" on="1"/>
        <pt x="1745" y="1171" on="1"/>
        <pt x="1745" y="1147" on="0"/>
        <pt x="1725" y="1144" on="1"/>
        <pt x="1563" y="1114" on="1"/>
        <pt x="1549" y="1114" on="0"/>
        <pt x="1541" y="1127" on="0"/>
        <pt x="1540" y="1140" on="1"/>
        <pt x="1527" y="1349" on="1"/>
        <pt x="1160" y="1343" on="1"/>
        <pt x="1141" y="783" on="1"/>
      </contour>
      <contour>
        <pt x="603" y="759" on="1"/>
        <pt x="938" y="775" on="1"/>
        <pt x="943" y="1348" on="1"/>
        <pt x="841" y="1354" on="1"/>
      </contour>
      <contour>
        <pt x="1430" y="1842" on="1"/>
        <pt x="1434" y="1834" on="0"/>
        <pt x="1434" y="1811" on="0"/>
        <pt x="1419" y="1805" on="1"/>
        <pt x="925" y="1598" on="1"/>
        <pt x="917" y="1595" on="0"/>
        <pt x="903" y="1595" on="0"/>
        <pt x="899" y="1605" on="1"/>
        <pt x="860" y="1697" on="1"/>
        <pt x="856" y="1707" on="0"/>
        <pt x="856" y="1719" on="0"/>
        <pt x="865" y="1724" on="1"/>
        <pt x="1318" y="2014" on="1"/>
        <pt x="1330" y="2020" on="0"/>
        <pt x="1354" y="2020" on="0"/>
        <pt x="1360" y="2006" on="1"/>
      </contour>
    </TTGlyph>
    <TTGlyph name="Aacute" xMin="34" yMin="2" xMax="1379" yMax="2020">
      <contour>
        <pt x="56" y="2" on="1"/>
        <pt x="34" y="4" on="0"/>
        <pt x="34" y="34" on="1"/>
        <pt x="34" y="201" on="1"/>
        <pt x="34" y="217" on="0"/>
        <pt x="47" y="229" on="0"/>
        <pt x="64" y="230" on="1"/>
        <pt x="156" y="226" on="1"/>
        <pt x="552" y="1510" on="1"/>
        <pt x="558" y="1529" on="0"/>
        <pt x="576" y="1531" on="1"/>
        <pt x="803" y="1539" on="1"/>
        <pt x="821" y="1538" on="0"/>
        <pt x="828" y="1516" on="1"/>
        <pt x="1260" y="233" on="1"/>
        <pt x="1351" y="236" on="1"/>
        <pt x="1379" y="234" on="0"/>
        <pt x="1379" y="204" on="1"/>
        <pt x="1379" y="46" on="1"/>
        <pt x="1379" y="29" on="0"/>
        <pt x="1365" y="19" on="0"/>
        <pt x="1348" y="19" on="1"/>
        <pt x="885" y="19" on="1"/>
        <pt x="867" y="19" on="0"/>
        <pt x="861" y="35" on="0"/>
        <pt x="861" y="49" on="1"/>
        <pt x="881" y="195" on="1"/>
        <pt x="883" y="212" on="0"/>
        <pt x="895" y="223" on="0"/>
        <pt x="911" y="223" on="1"/>
        <pt x="1025" y="226" on="1"/>
        <pt x="939" y="492" on="1"/>
        <pt x="444" y="502" on="1"/>
        <pt x="363" y="212" on="1"/>
        <pt x="484" y="224" on="1"/>
        <pt x="496" y="224" on="0"/>
        <pt x="505" y="214" on="0"/>
        <pt x="507" y="201" on="1"/>
        <pt x="522" y="49" on="1"/>
        <pt x="520" y="32" on="0"/>
        <pt x="507" y="20" on="0"/>
        <pt x="492" y="19" on="1"/>
      </contour>
      <contour>
        <pt x="491" y="672" on="1"/>
        <pt x="880" y="672" on="1"/>
        <pt x="670" y="1315" on="1"/>
      </contour>
      <contour>
        <pt x="1029" y="1842" on="1"/>
        <pt x="1033" y="1834" on="0"/>
        <pt x="1033" y="1811" on="0"/>
        <pt x="1018" y="1805" on="1"/>
        <pt x="524" y="1598" on="1"/>
        <pt x="516" y="1595" on="0"/>
        <pt x="502" y="1595" on="0"/>
        <pt x="498" y="1605" on="1"/>
        <pt x="459" y="1697" on="1"/>
        <pt x="455" y="1707" on="0"/>
        <pt x="455" y="1719" on="0"/>
        <pt x="464" y="1724" on="1"/>
        <pt x="917" y="2014" on="1"/>
        <pt x="929" y="2020" on="0"/>
        <pt x="953" y="2020" on="0"/>
        <pt x="959" y="2006" on="1"/>
      </contour>
    </TTGlyph>
    <TTGlyph name="Abreve" xMin="34" yMin="2" xMax="1379" yMax="2020">
      <contour>
        <pt x="56" y="2" on="1"/>
        <pt x="34" y="4" on="0"/>
        <pt x="34" y="34" on="1"/>
        <pt x="34" y="201" on="1"/>
        <pt x="34" y="217" on="0"/>
        <pt x="47" y="229" on="0"/>
        <pt x="64" y="230" on="1"/>
        <pt x="156" y="226" on="1"/>
        <pt x="552" y="1510" on="1"/>
        <pt x="558" y="1529" on="0"/>
        <pt x="576" y="1531" on="1"/>
        <pt x="803" y="1539" on="1"/>
        <pt x="821" y="1538" on="0"/>
        <pt x="828" y="1516" on="1"/>
        <pt x="1260" y="233" on="1"/>
        <pt x="1351" y="236" on="1"/>
        <pt x="1379" y="234" on="0"/>
        <pt x="1379" y="204" on="1"/>
        <pt x="1379" y="46" on="1"/>
        <pt x="1379" y="29" on="0"/>
        <pt x="1365" y="19" on="0"/>
        <pt x="1348" y="19" on="1"/>
        <pt x="885" y="19" on="1"/>
        <pt x="867" y="19" on="0"/>
        <pt x="861" y="35" on="0"/>
        <pt x="861" y="49" on="1"/>
        <pt x="881" y="195" on="1"/>
        <pt x="883" y="212" on="0"/>
        <pt x="895" y="223" on="0"/>
        <pt x="911" y="223" on="1"/>
        <pt x="1025" y="226" on="1"/>
        <pt x="939" y="492" on="1"/>
        <pt x="444" y="502" on="1"/>
        <pt x="363" y="212" on="1"/>
        <pt x="484" y="224" on="1"/>
        <pt x="496" y="224" on="0"/>
        <pt x="505" y="214" on="0"/>
        <pt x="507" y="201" on="1"/>
        <pt x="522" y="49" on="1"/>
        <pt x="520" y="32" on="0"/>
        <pt x="507" y="20" on="0"/>
        <pt x="492" y="19" on="1"/>
      </contour>
      <contour>
        <pt x="491" y="672" on="1"/>
        <pt x="880" y="672" on="1"/>
        <pt x="670" y="1315" on="1"/>
      </contour>
      <contour>
        <pt x="1033" y="2006" on="1"/>
        <pt x="1057" y="2006" on="0"/>
        <pt x="1057" y="1983" on="1"/>
        <pt x="1057" y="1841" on="0"/>
        <pt x="962" y="1743" on="1"/>
        <pt x="861" y="1638" on="0"/>
        <pt x="694" y="1638" on="1"/>
        <pt x="523" y="1638" on="0"/>
        <pt x="413" y="1729" on="1"/>
        <pt x="300" y="1823" on="0"/>
        <pt x="300" y="1984" on="1"/>
        <pt x="300" y="2007" on="0"/>
        <pt x="324" y="2007" on="1"/>
        <pt x="467" y="2020" on="1"/>
        <pt x="486" y="2020" on="0"/>
        <pt x="491" y="1956" on="0"/>
        <pt x="524" y="1892" on="0"/>
        <pt x="550" y="1869" on="1"/>
        <pt x="606" y="1821" on="0"/>
        <pt x="687" y="1821" on="1"/>
        <pt x="839" y="1821" on="0"/>
        <pt x="869" y="1986" on="1"/>
        <pt x="873" y="2010" on="0"/>
        <pt x="890" y="2010" on="1"/>
      </contour>
    </TTGlyph>
    <TTGlyph name="Acircumflex" xMin="34" yMin="2" xMax="1379" yMax="2020">
      <contour>
        <pt x="56" y="2" on="1"/>
        <pt x="34" y="4" on="0"/>
        <pt x="34" y="34" on="1"/>
        <pt x="34" y="201" on="1"/>
        <pt x="34" y="217" on="0"/>
        <pt x="47" y="229" on="0"/>
        <pt x="64" y="230" on="1"/>
        <pt x="156" y="226" on="1"/>
        <pt x="552" y="1510" on="1"/>
        <pt x="558" y="1529" on="0"/>
        <pt x="576" y="1531" on="1"/>
        <pt x="803" y="1539" on="1"/>
        <pt x="821" y="1538" on="0"/>
        <pt x="828" y="1516" on="1"/>
        <pt x="1260" y="233" on="1"/>
        <pt x="1351" y="236" on="1"/>
        <pt x="1379" y="234" on="0"/>
        <pt x="1379" y="204" on="1"/>
        <pt x="1379" y="46" on="1"/>
        <pt x="1379" y="29" on="0"/>
        <pt x="1365" y="19" on="0"/>
        <pt x="1348" y="19" on="1"/>
        <pt x="885" y="19" on="1"/>
        <pt x="867" y="19" on="0"/>
        <pt x="861" y="35" on="0"/>
        <pt x="861" y="49" on="1"/>
        <pt x="881" y="195" on="1"/>
        <pt x="883" y="212" on="0"/>
        <pt x="895" y="223" on="0"/>
        <pt x="911" y="223" on="1"/>
        <pt x="1025" y="226" on="1"/>
        <pt x="939" y="492" on="1"/>
        <pt x="444" y="502" on="1"/>
        <pt x="363" y="212" on="1"/>
        <pt x="484" y="224" on="1"/>
        <pt x="496" y="224" on="0"/>
        <pt x="505" y="214" on="0"/>
        <pt x="507" y="201" on="1"/>
        <pt x="522" y="49" on="1"/>
        <pt x="520" y="32" on="0"/>
        <pt x="507" y="20" on="0"/>
        <pt x="492" y="19" on="1"/>
      </contour>
      <contour>
        <pt x="491" y="672" on="1"/>
        <pt x="880" y="672" on="1"/>
        <pt x="670" y="1315" on="1"/>
      </contour>
      <contour>
        <pt x="590" y="1985" on="1"/>
        <pt x="619" y="2008" on="0"/>
        <pt x="635" y="2010" on="1"/>
        <pt x="730" y="2020" on="1"/>
        <pt x="746" y="2020" on="0"/>
        <pt x="776" y="1994" on="1"/>
        <pt x="1078" y="1743" on="1"/>
        <pt x="1085" y="1736" on="0"/>
        <pt x="1085" y="1721" on="0"/>
        <pt x="1079" y="1714" on="1"/>
        <pt x="1018" y="1641" on="1"/>
        <pt x="1013" y="1635" on="0"/>
        <pt x="1002" y="1635" on="0"/>
        <pt x="994" y="1639" on="1"/>
        <pt x="674" y="1798" on="1"/>
        <pt x="377" y="1644" on="1"/>
        <pt x="373" y="1642" on="0"/>
        <pt x="361" y="1642" on="0"/>
        <pt x="355" y="1650" on="1"/>
        <pt x="293" y="1726" on="1"/>
        <pt x="287" y="1734" on="0"/>
        <pt x="287" y="1739" on="1"/>
        <pt x="287" y="1744" on="0"/>
        <pt x="292" y="1748" on="1"/>
      </contour>
    </TTGlyph>
    <TTGlyph name="Adieresis" xMin="34" yMin="2" xMax="1379" yMax="1988">
      <contour>
        <pt x="56" y="2" on="1"/>
        <pt x="34" y="4" on="0"/>
        <pt x="34" y="34" on="1"/>
        <pt x="34" y="201" on="1"/>
        <pt x="34" y="217" on="0"/>
        <pt x="47" y="229" on="0"/>
        <pt x="64" y="230" on="1"/>
        <pt x="156" y="226" on="1"/>
        <pt x="552" y="1510" on="1"/>
        <pt x="558" y="1529" on="0"/>
        <pt x="576" y="1531" on="1"/>
        <pt x="803" y="1539" on="1"/>
        <pt x="821" y="1538" on="0"/>
        <pt x="828" y="1516" on="1"/>
        <pt x="1260" y="233" on="1"/>
        <pt x="1351" y="236" on="1"/>
        <pt x="1379" y="234" on="0"/>
        <pt x="1379" y="204" on="1"/>
        <pt x="1379" y="46" on="1"/>
        <pt x="1379" y="29" on="0"/>
        <pt x="1365" y="19" on="0"/>
        <pt x="1348" y="19" on="1"/>
        <pt x="885" y="19" on="1"/>
        <pt x="867" y="19" on="0"/>
        <pt x="861" y="35" on="0"/>
        <pt x="861" y="49" on="1"/>
        <pt x="881" y="195" on="1"/>
        <pt x="883" y="212" on="0"/>
        <pt x="895" y="223" on="0"/>
        <pt x="911" y="223" on="1"/>
        <pt x="1025" y="226" on="1"/>
        <pt x="939" y="492" on="1"/>
        <pt x="444" y="502" on="1"/>
        <pt x="363" y="212" on="1"/>
        <pt x="484" y="224" on="1"/>
        <pt x="496" y="224" on="0"/>
        <pt x="505" y="214" on="0"/>
        <pt x="507" y="201" on="1"/>
        <pt x="522" y="49" on="1"/>
        <pt x="520" y="32" on="0"/>
        <pt x="507" y="20" on="0"/>
        <pt x="492" y="19" on="1"/>
      </contour>
      <contour>
        <pt x="491" y="672" on="1"/>
        <pt x="880" y="672" on="1"/>
        <pt x="670" y="1315" on="1"/>
      </contour>
      <contour>
        <pt x="538" y="1735" on="0"/>
        <pt x="474" y="1725" on="0"/>
        <pt x="389" y="1725" on="0"/>
        <pt x="342" y="1737" on="0"/>
        <pt x="328" y="1752" on="1"/>
        <pt x="301" y="1779" on="0"/>
        <pt x="301" y="1894" on="0"/>
        <pt x="314" y="1947" on="0"/>
        <pt x="332" y="1962" on="1"/>
        <pt x="363" y="1988" on="0"/>
        <pt x="501" y="1988" on="0"/>
        <pt x="548" y="1978" on="0"/>
        <pt x="562" y="1964" on="1"/>
        <pt x="590" y="1939" on="0"/>
        <pt x="590" y="1821" on="0"/>
        <pt x="576" y="1765" on="0"/>
      </contour>
      <contour>
        <pt x="1009" y="1735" on="0"/>
        <pt x="945" y="1725" on="0"/>
        <pt x="860" y="1725" on="0"/>
        <pt x="813" y="1737" on="0"/>
        <pt x="799" y="1752" on="1"/>
        <pt x="772" y="1779" on="0"/>
        <pt x="772" y="1894" on="0"/>
        <pt x="785" y="1947" on="0"/>
        <pt x="803" y="1962" on="1"/>
        <pt x="834" y="1988" on="0"/>
        <pt x="972" y="1988" on="0"/>
        <pt x="1019" y="1978" on="0"/>
        <pt x="1034" y="1964" on="1"/>
        <pt x="1061" y="1939" on="0"/>
        <pt x="1061" y="1821" on="0"/>
        <pt x="1047" y="1765" on="0"/>
      </contour>
    </TTGlyph>
    <TTGlyph name="Agrave" xMin="34" yMin="2" xMax="1379" yMax="2020">
      <contour>
        <pt x="56" y="2" on="1"/>
        <pt x="34" y="4" on="0"/>
        <pt x="34" y="34" on="1"/>
        <pt x="34" y="201" on="1"/>
        <pt x="34" y="217" on="0"/>
        <pt x="47" y="229" on="0"/>
        <pt x="64" y="230" on="1"/>
        <pt x="156" y="226" on="1"/>
        <pt x="552" y="1510" on="1"/>
        <pt x="558" y="1529" on="0"/>
        <pt x="576" y="1531" on="1"/>
        <pt x="803" y="1539" on="1"/>
        <pt x="821" y="1538" on="0"/>
        <pt x="828" y="1516" on="1"/>
        <pt x="1260" y="233" on="1"/>
        <pt x="1351" y="236" on="1"/>
        <pt x="1379" y="234" on="0"/>
        <pt x="1379" y="204" on="1"/>
        <pt x="1379" y="46" on="1"/>
        <pt x="1379" y="29" on="0"/>
        <pt x="1365" y="19" on="0"/>
        <pt x="1348" y="19" on="1"/>
        <pt x="885" y="19" on="1"/>
        <pt x="867" y="19" on="0"/>
        <pt x="861" y="35" on="0"/>
        <pt x="861" y="49" on="1"/>
        <pt x="881" y="195" on="1"/>
        <pt x="883" y="212" on="0"/>
        <pt x="895" y="223" on="0"/>
        <pt x="911" y="223" on="1"/>
        <pt x="1025" y="226" on="1"/>
        <pt x="939" y="492" on="1"/>
        <pt x="444" y="502" on="1"/>
        <pt x="363" y="212" on="1"/>
        <pt x="484" y="224" on="1"/>
        <pt x="496" y="224" on="0"/>
        <pt x="505" y="214" on="0"/>
        <pt x="507" y="201" on="1"/>
        <pt x="522" y="49" on="1"/>
        <pt x="520" y="32" on="0"/>
        <pt x="507" y="20" on="0"/>
        <pt x="492" y="19" on="1"/>
      </contour>
      <contour>
        <pt x="491" y="672" on="1"/>
        <pt x="880" y="672" on="1"/>
        <pt x="670" y="1315" on="1"/>
      </contour>
      <contour>
        <pt x="399" y="2006" on="1"/>
        <pt x="405" y="2020" on="0"/>
        <pt x="429" y="2020" on="0"/>
        <pt x="441" y="2014" on="1"/>
        <pt x="933" y="1738" on="1"/>
        <pt x="942" y="1733" on="0"/>
        <pt x="942" y="1721" on="0"/>
        <pt x="938" y="1711" on="1"/>
        <pt x="899" y="1619" on="1"/>
        <pt x="895" y="1609" on="0"/>
        <pt x="880" y="1609" on="0"/>
        <pt x="873" y="1612" on="1"/>
        <pt x="340" y="1805" on="1"/>
        <pt x="325" y="1811" on="0"/>
        <pt x="325" y="1834" on="0"/>
        <pt x="329" y="1842" on="1"/>
      </contour>
    </TTGlyph>
    <TTGlyph name="Amacron" xMin="34" yMin="2" xMax="1379" yMax="1971">
      <contour>
        <pt x="56" y="2" on="1"/>
        <pt x="34" y="4" on="0"/>
        <pt x="34" y="34" on="1"/>
        <pt x="34" y="201" on="1"/>
        <pt x="34" y="217" on="0"/>
        <pt x="47" y="229" on="0"/>
        <pt x="64" y="230" on="1"/>
        <pt x="156" y="226" on="1"/>
        <pt x="552" y="1510" on="1"/>
        <pt x="558" y="1529" on="0"/>
        <pt x="576" y="1531" on="1"/>
        <pt x="803" y="1539" on="1"/>
        <pt x="821" y="1538" on="0"/>
        <pt x="828" y="1516" on="1"/>
        <pt x="1260" y="233" on="1"/>
        <pt x="1351" y="236" on="1"/>
        <pt x="1379" y="234" on="0"/>
        <pt x="1379" y="204" on="1"/>
        <pt x="1379" y="46" on="1"/>
        <pt x="1379" y="29" on="0"/>
        <pt x="1365" y="19" on="0"/>
        <pt x="1348" y="19" on="1"/>
        <pt x="885" y="19" on="1"/>
        <pt x="867" y="19" on="0"/>
        <pt x="861" y="35" on="0"/>
        <pt x="861" y="49" on="1"/>
        <pt x="881" y="195" on="1"/>
        <pt x="883" y="212" on="0"/>
        <pt x="895" y="223" on="0"/>
        <pt x="911" y="223" on="1"/>
        <pt x="1025" y="226" on="1"/>
        <pt x="939" y="492" on="1"/>
        <pt x="444" y="502" on="1"/>
        <pt x="363" y="212" on="1"/>
        <pt x="484" y="224" on="1"/>
        <pt x="496" y="224" on="0"/>
        <pt x="505" y="214" on="0"/>
        <pt x="507" y="201" on="1"/>
        <pt x="522" y="49" on="1"/>
        <pt x="520" y="32" on="0"/>
        <pt x="507" y="20" on="0"/>
        <pt x="492" y="19" on="1"/>
      </contour>
      <contour>
        <pt x="491" y="672" on="1"/>
        <pt x="880" y="672" on="1"/>
        <pt x="670" y="1315" on="1"/>
      </contour>
      <contour>
        <pt x="1001" y="1971" on="1"/>
        <pt x="1017" y="1969" on="0"/>
        <pt x="1017" y="1952" on="1"/>
        <pt x="999" y="1781" on="1"/>
        <pt x="997" y="1769" on="0"/>
        <pt x="988" y="1761" on="0"/>
        <pt x="975" y="1761" on="1"/>
        <pt x="351" y="1767" on="1"/>
        <pt x="332" y="1767" on="0"/>
        <pt x="332" y="1791" on="1"/>
        <pt x="342" y="1942" on="1"/>
        <pt x="343" y="1961" on="0"/>
        <pt x="362" y="1961" on="1"/>
      </contour>
    </TTGlyph>
    <TTGlyph name="Aogonek" xMin="34" yMin="-450" xMax="1402" yMax="1539">
      <contour>
        <pt x="56" y="2" on="1"/>
        <pt x="34" y="4" on="0"/>
        <pt x="34" y="34" on="1"/>
        <pt x="34" y="201" on="1"/>
        <pt x="34" y="217" on="0"/>
        <pt x="47" y="229" on="0"/>
        <pt x="64" y="230" on="1"/>
        <pt x="156" y="226" on="1"/>
        <pt x="552" y="1510" on="1"/>
        <pt x="558" y="1529" on="0"/>
        <pt x="576" y="1531" on="1"/>
        <pt x="803" y="1539" on="1"/>
        <pt x="821" y="1538" on="0"/>
        <pt x="828" y="1516" on="1"/>
        <pt x="1260" y="233" on="1"/>
        <pt x="1351" y="236" on="1"/>
        <pt x="1379" y="234" on="0"/>
        <pt x="1379" y="204" on="1"/>
        <pt x="1379" y="46" on="1"/>
        <pt x="1379" y="29" on="0"/>
        <pt x="1365" y="19" on="0"/>
        <pt x="1348" y="19" on="1"/>
        <pt x="1194" y="19" on="1"/>
        <pt x="1092" y="-107" on="0"/>
        <pt x="1092" y="-181" on="1"/>
        <pt x="1092" y="-245" on="0"/>
        <pt x="1188" y="-245" on="1"/>
        <pt x="1246" y="-245" on="0"/>
        <pt x="1357" y="-205" on="0"/>
        <pt x="1365" y="-205" on="1"/>
        <pt x="1379" y="-205" on="0"/>
        <pt x="1381" y="-222" on="1"/>
        <pt x="1402" y="-388" on="1"/>
        <pt x="1402" y="-402" on="0"/>
        <pt x="1380" y="-410" on="1"/>
        <pt x="1253" y="-450" on="0"/>
        <pt x="1129" y="-450" on="1"/>
        <pt x="914" y="-450" on="0"/>
        <pt x="914" y="-271" on="1"/>
        <pt x="914" y="-143" on="0"/>
        <pt x="1022" y="19" on="1"/>
        <pt x="885" y="19" on="1"/>
        <pt x="867" y="19" on="0"/>
        <pt x="861" y="35" on="0"/>
        <pt x="861" y="49" on="1"/>
        <pt x="881" y="195" on="1"/>
        <pt x="883" y="212" on="0"/>
        <pt x="895" y="223" on="0"/>
        <pt x="911" y="223" on="1"/>
        <pt x="1025" y="226" on="1"/>
        <pt x="939" y="492" on="1"/>
        <pt x="444" y="502" on="1"/>
        <pt x="363" y="212" on="1"/>
        <pt x="484" y="224" on="1"/>
        <pt x="496" y="224" on="0"/>
        <pt x="505" y="214" on="0"/>
        <pt x="507" y="201" on="1"/>
        <pt x="522" y="49" on="1"/>
        <pt x="520" y="32" on="0"/>
        <pt x="507" y="20" on="0"/>
        <pt x="492" y="19" on="1"/>
      </contour>
      <contour>
        <pt x="491" y="672" on="1"/>
        <pt x="880" y="672" on="1"/>
        <pt x="670" y="1315" on="1"/>
      </contour>
    </TTGlyph>
    <TTGlyph name="Aring" xMin="34" yMin="2" xMax="1379" yMax="2010">
      <contour>
        <pt x="966" y="1766" on="1"/>
        <pt x="966" y="1578" on="0"/>
        <pt x="824" y="1526" on="1"/>
        <pt x="1260" y="233" on="1"/>
        <pt x="1351" y="236" on="1"/>
        <pt x="1379" y="234" on="0"/>
        <pt x="1379" y="204" on="1"/>
        <pt x="1379" y="46" on="1"/>
        <pt x="1379" y="29" on="0"/>
        <pt x="1365" y="19" on="0"/>
        <pt x="1348" y="19" on="1"/>
        <pt x="885" y="19" on="1"/>
        <pt x="867" y="19" on="0"/>
        <pt x="861" y="35" on="0"/>
        <pt x="861" y="49" on="1"/>
        <pt x="881" y="195" on="1"/>
        <pt x="883" y="212" on="0"/>
        <pt x="895" y="223" on="0"/>
        <pt x="911" y="223" on="1"/>
        <pt x="1025" y="226" on="1"/>
        <pt x="939" y="492" on="1"/>
        <pt x="444" y="502" on="1"/>
        <pt x="363" y="212" on="1"/>
        <pt x="484" y="224" on="1"/>
        <pt x="496" y="224" on="0"/>
        <pt x="505" y="214" on="0"/>
        <pt x="507" y="201" on="1"/>
        <pt x="522" y="49" on="1"/>
        <pt x="520" y="32" on="0"/>
        <pt x="507" y="20" on="0"/>
        <pt x="492" y="19" on="1"/>
        <pt x="56" y="2" on="1"/>
        <pt x="34" y="4" on="0"/>
        <pt x="34" y="34" on="1"/>
        <pt x="34" y="201" on="1"/>
        <pt x="34" y="217" on="0"/>
        <pt x="47" y="229" on="0"/>
        <pt x="64" y="230" on="1"/>
        <pt x="156" y="226" on="1"/>
        <pt x="552" y="1510" on="1"/>
        <pt x="558" y="1522" on="1"/>
        <pt x="406" y="1571" on="0"/>
        <pt x="406" y="1746" on="1"/>
        <pt x="406" y="2010" on="0"/>
        <pt x="690" y="2010" on="1"/>
        <pt x="903" y="2010" on="0"/>
        <pt x="950" y="1872" on="1"/>
        <pt x="966" y="1826" on="0"/>
      </contour>
      <contour>
        <pt x="491" y="672" on="1"/>
        <pt x="880" y="672" on="1"/>
        <pt x="670" y="1315" on="1"/>
      </contour>
      <contour>
        <pt x="569" y="1757" on="1"/>
        <pt x="569" y="1646" on="0"/>
        <pt x="686" y="1646" on="1"/>
        <pt x="780" y="1646" on="0"/>
        <pt x="802" y="1721" on="1"/>
        <pt x="809" y="1743" on="0"/>
        <pt x="809" y="1814" on="0"/>
        <pt x="757" y="1874" on="0"/>
        <pt x="653" y="1874" on="0"/>
        <pt x="604" y="1853" on="0"/>
        <pt x="591" y="1836" on="1"/>
        <pt x="569" y="1809" on="0"/>
      </contour>
    </TTGlyph>
    <TTGlyph name="Atilde" xMin="34" yMin="2" xMax="1379" yMax="2012">
      <contour>
        <pt x="56" y="2" on="1"/>
        <pt x="34" y="4" on="0"/>
        <pt x="34" y="34" on="1"/>
        <pt x="34" y="201" on="1"/>
        <pt x="34" y="217" on="0"/>
        <pt x="47" y="229" on="0"/>
        <pt x="64" y="230" on="1"/>
        <pt x="156" y="226" on="1"/>
        <pt x="552" y="1510" on="1"/>
        <pt x="558" y="1529" on="0"/>
        <pt x="576" y="1531" on="1"/>
        <pt x="803" y="1539" on="1"/>
        <pt x="821" y="1538" on="0"/>
        <pt x="828" y="1516" on="1"/>
        <pt x="1260" y="233" on="1"/>
        <pt x="1351" y="236" on="1"/>
        <pt x="1379" y="234" on="0"/>
        <pt x="1379" y="204" on="1"/>
        <pt x="1379" y="46" on="1"/>
        <pt x="1379" y="29" on="0"/>
        <pt x="1365" y="19" on="0"/>
        <pt x="1348" y="19" on="1"/>
        <pt x="885" y="19" on="1"/>
        <pt x="867" y="19" on="0"/>
        <pt x="861" y="35" on="0"/>
        <pt x="861" y="49" on="1"/>
        <pt x="881" y="195" on="1"/>
        <pt x="883" y="212" on="0"/>
        <pt x="895" y="223" on="0"/>
        <pt x="911" y="223" on="1"/>
        <pt x="1025" y="226" on="1"/>
        <pt x="939" y="492" on="1"/>
        <pt x="444" y="502" on="1"/>
        <pt x="363" y="212" on="1"/>
        <pt x="484" y="224" on="1"/>
        <pt x="496" y="224" on="0"/>
        <pt x="505" y="214" on="0"/>
        <pt x="507" y="201" on="1"/>
        <pt x="522" y="49" on="1"/>
        <pt x="520" y="32" on="0"/>
        <pt x="507" y="20" on="0"/>
        <pt x="492" y="19" on="1"/>
      </contour>
      <contour>
        <pt x="491" y="672" on="1"/>
        <pt x="880" y="672" on="1"/>
        <pt x="670" y="1315" on="1"/>
      </contour>
      <contour>
        <pt x="266" y="1842" on="1"/>
        <pt x="266" y="1859" on="0"/>
        <pt x="367" y="1944" on="0"/>
        <pt x="401" y="1965" on="1"/>
        <pt x="477" y="2012" on="0"/>
        <pt x="529" y="2012" on="1"/>
        <pt x="571" y="2012" on="0"/>
        <pt x="706" y="1937" on="0"/>
        <pt x="784" y="1900" on="0"/>
        <pt x="839" y="1900" on="0"/>
        <pt x="888" y="1912" on="0"/>
        <pt x="934" y="1931" on="0"/>
        <pt x="955" y="1942" on="1"/>
        <pt x="993" y="1962" on="1"/>
        <pt x="1026" y="1981" on="0"/>
        <pt x="1048" y="1981" on="0"/>
        <pt x="1055" y="1962" on="1"/>
        <pt x="1088" y="1884" on="1"/>
        <pt x="1090" y="1879" on="0"/>
        <pt x="1090" y="1872" on="1"/>
        <pt x="1090" y="1859" on="0"/>
        <pt x="995" y="1770" on="0"/>
        <pt x="960" y="1746" on="1"/>
        <pt x="880" y="1690" on="0"/>
        <pt x="783" y="1690" on="0"/>
        <pt x="704" y="1725" on="0"/>
        <pt x="664" y="1745" on="1"/>
        <pt x="558" y="1798" on="0"/>
        <pt x="502" y="1798" on="0"/>
        <pt x="463" y="1788" on="0"/>
        <pt x="422" y="1772" on="0"/>
        <pt x="402" y="1763" on="1"/>
        <pt x="364" y="1746" on="1"/>
        <pt x="332" y="1731" on="0"/>
        <pt x="321" y="1731" on="1"/>
        <pt x="305" y="1731" on="0"/>
        <pt x="298" y="1751" on="1"/>
      </contour>
    </TTGlyph>
    <TTGlyph name="B" xMin="118" yMin="-15" xMax="1268" yMax="1555">
      <contour>
        <pt x="953" y="795" on="1"/>
        <pt x="1268" y="730" on="0"/>
        <pt x="1268" y="433" on="1"/>
        <pt x="1268" y="80" on="0"/>
        <pt x="932" y="8" on="1"/>
        <pt x="822" y="-15" on="0"/>
        <pt x="614" y="-15" on="0"/>
        <pt x="460" y="-8" on="0"/>
        <pt x="386" y="-2" on="1"/>
        <pt x="137" y="18" on="0"/>
        <pt x="124" y="38" on="1"/>
        <pt x="119" y="46" on="0"/>
        <pt x="118" y="58" on="1"/>
        <pt x="127" y="205" on="1"/>
        <pt x="129" y="233" on="0"/>
        <pt x="189" y="233" on="0"/>
        <pt x="278" y="221" on="1"/>
        <pt x="278" y="1320" on="1"/>
        <pt x="198" y="1315" on="0"/>
        <pt x="129" y="1315" on="0"/>
        <pt x="127" y="1343" on="1"/>
        <pt x="118" y="1483" on="1"/>
        <pt x="120" y="1510" on="0"/>
        <pt x="142" y="1514" on="1"/>
        <pt x="373" y="1555" on="0"/>
        <pt x="645" y="1555" on="1"/>
        <pt x="1178" y="1555" on="0"/>
        <pt x="1178" y="1136" on="1"/>
        <pt x="1178" y="930" on="0"/>
        <pt x="1048" y="842" on="1"/>
        <pt x="1006" y="813" on="0"/>
      </contour>
      <contour>
        <pt x="502" y="195" on="1"/>
        <pt x="592" y="190" on="0"/>
        <pt x="748" y="190" on="0"/>
        <pt x="889" y="207" on="0"/>
        <pt x="940" y="232" on="1"/>
        <pt x="1048" y="286" on="0"/>
        <pt x="1048" y="431" on="1"/>
        <pt x="1048" y="633" on="0"/>
        <pt x="834" y="660" on="1"/>
        <pt x="771" y="668" on="0"/>
        <pt x="594" y="668" on="0"/>
        <pt x="502" y="659" on="1"/>
      </contour>
      <contour>
        <pt x="771" y="1342" on="1"/>
        <pt x="716" y="1351" on="0"/>
        <pt x="590" y="1351" on="0"/>
        <pt x="502" y="1342" on="1"/>
        <pt x="502" y="855" on="1"/>
        <pt x="531" y="853" on="0"/>
        <pt x="560" y="853" on="1"/>
        <pt x="619" y="853" on="1"/>
        <pt x="783" y="853" on="0"/>
        <pt x="862" y="904" on="1"/>
        <pt x="955" y="963" on="0"/>
        <pt x="955" y="1111" on="1"/>
        <pt x="955" y="1312" on="0"/>
      </contour>
    </TTGlyph>
    <TTGlyph name="C" xMin="130" yMin="-48" xMax="1242" yMax="1540">
      <contour>
        <pt x="1173" y="1530" on="1"/>
        <pt x="1213" y="1530" on="0"/>
        <pt x="1215" y="1491" on="1"/>
        <pt x="1203" y="1055" on="1"/>
        <pt x="1203" y="1029" on="0"/>
        <pt x="1181" y="1029" on="1"/>
        <pt x="1013" y="1025" on="1"/>
        <pt x="994" y="1025" on="0"/>
        <pt x="992" y="1048" on="1"/>
        <pt x="971" y="1305" on="1"/>
        <pt x="849" y="1335" on="0"/>
        <pt x="643" y="1335" on="0"/>
        <pt x="501" y="1274" on="0"/>
        <pt x="455" y="1206" on="1"/>
        <pt x="366" y="1074" on="0"/>
        <pt x="366" y="765" on="1"/>
        <pt x="366" y="298" on="0"/>
        <pt x="592" y="206" on="1"/>
        <pt x="666" y="176" on="0"/>
        <pt x="878" y="176" on="0"/>
        <pt x="996" y="214" on="1"/>
        <pt x="991" y="348" on="1"/>
        <pt x="993" y="366" on="0"/>
        <pt x="1015" y="370" on="1"/>
        <pt x="1181" y="398" on="1"/>
        <pt x="1198" y="398" on="0"/>
        <pt x="1202" y="375" on="1"/>
        <pt x="1242" y="-15" on="1"/>
        <pt x="1242" y="-31" on="0"/>
        <pt x="1219" y="-33" on="1"/>
        <pt x="1047" y="-48" on="1"/>
        <pt x="1007" y="-48" on="0"/>
        <pt x="1005" y="-9" on="1"/>
        <pt x="1003" y="33" on="1"/>
        <pt x="864" y="-41" on="0"/>
        <pt x="555" y="-41" on="0"/>
        <pt x="344" y="65" on="0"/>
        <pt x="273" y="168" on="1"/>
        <pt x="130" y="377" on="0"/>
        <pt x="130" y="776" on="1"/>
        <pt x="130" y="1172" on="0"/>
        <pt x="290" y="1364" on="1"/>
        <pt x="436" y="1540" on="0"/>
        <pt x="707" y="1540" on="1"/>
        <pt x="877" y="1540" on="0"/>
        <pt x="993" y="1502" on="1"/>
      </contour>
    </TTGlyph>
    <TTGlyph name="Cacute" xMin="130" yMin="-48" xMax="1242" yMax="2020">
      <contour>
        <pt x="1173" y="1530" on="1"/>
        <pt x="1213" y="1530" on="0"/>
        <pt x="1215" y="1491" on="1"/>
        <pt x="1203" y="1055" on="1"/>
        <pt x="1203" y="1029" on="0"/>
        <pt x="1181" y="1029" on="1"/>
        <pt x="1013" y="1025" on="1"/>
        <pt x="994" y="1025" on="0"/>
        <pt x="992" y="1048" on="1"/>
        <pt x="971" y="1305" on="1"/>
        <pt x="849" y="1335" on="0"/>
        <pt x="643" y="1335" on="0"/>
        <pt x="501" y="1274" on="0"/>
        <pt x="455" y="1206" on="1"/>
        <pt x="366" y="1074" on="0"/>
        <pt x="366" y="765" on="1"/>
        <pt x="366" y="298" on="0"/>
        <pt x="592" y="206" on="1"/>
        <pt x="666" y="176" on="0"/>
        <pt x="878" y="176" on="0"/>
        <pt x="996" y="214" on="1"/>
        <pt x="991" y="348" on="1"/>
        <pt x="993" y="366" on="0"/>
        <pt x="1015" y="370" on="1"/>
        <pt x="1181" y="398" on="1"/>
        <pt x="1198" y="398" on="0"/>
        <pt x="1202" y="375" on="1"/>
        <pt x="1242" y="-15" on="1"/>
        <pt x="1242" y="-31" on="0"/>
        <pt x="1219" y="-33" on="1"/>
        <pt x="1047" y="-48" on="1"/>
        <pt x="1007" y="-48" on="0"/>
        <pt x="1005" y="-9" on="1"/>
        <pt x="1003" y="33" on="1"/>
        <pt x="864" y="-41" on="0"/>
        <pt x="555" y="-41" on="0"/>
        <pt x="344" y="65" on="0"/>
        <pt x="273" y="168" on="1"/>
        <pt x="130" y="377" on="0"/>
        <pt x="130" y="776" on="1"/>
        <pt x="130" y="1172" on="0"/>
        <pt x="290" y="1364" on="1"/>
        <pt x="436" y="1540" on="0"/>
        <pt x="707" y="1540" on="1"/>
        <pt x="877" y="1540" on="0"/>
        <pt x="993" y="1502" on="1"/>
      </contour>
      <contour>
        <pt x="1092" y="1842" on="1"/>
        <pt x="1096" y="1834" on="0"/>
        <pt x="1096" y="1811" on="0"/>
        <pt x="1081" y="1805" on="1"/>
        <pt x="587" y="1598" on="1"/>
        <pt x="579" y="1595" on="0"/>
        <pt x="565" y="1595" on="0"/>
        <pt x="561" y="1605" on="1"/>
        <pt x="522" y="1697" on="1"/>
        <pt x="518" y="1707" on="0"/>
        <pt x="518" y="1719" on="0"/>
        <pt x="527" y="1724" on="1"/>
        <pt x="980" y="2014" on="1"/>
        <pt x="992" y="2020" on="0"/>
        <pt x="1016" y="2020" on="0"/>
        <pt x="1022" y="2006" on="1"/>
      </contour>
    </TTGlyph>
    <TTGlyph name="Ccaron" xMin="130" yMin="-48" xMax="1242" yMax="2020">
      <contour>
        <pt x="1173" y="1530" on="1"/>
        <pt x="1213" y="1530" on="0"/>
        <pt x="1215" y="1491" on="1"/>
        <pt x="1203" y="1055" on="1"/>
        <pt x="1203" y="1029" on="0"/>
        <pt x="1181" y="1029" on="1"/>
        <pt x="1013" y="1025" on="1"/>
        <pt x="994" y="1025" on="0"/>
        <pt x="992" y="1048" on="1"/>
        <pt x="971" y="1305" on="1"/>
        <pt x="849" y="1335" on="0"/>
        <pt x="643" y="1335" on="0"/>
        <pt x="501" y="1274" on="0"/>
        <pt x="455" y="1206" on="1"/>
        <pt x="366" y="1074" on="0"/>
        <pt x="366" y="765" on="1"/>
        <pt x="366" y="298" on="0"/>
        <pt x="592" y="206" on="1"/>
        <pt x="666" y="176" on="0"/>
        <pt x="878" y="176" on="0"/>
        <pt x="996" y="214" on="1"/>
        <pt x="991" y="348" on="1"/>
        <pt x="993" y="366" on="0"/>
        <pt x="1015" y="370" on="1"/>
        <pt x="1181" y="398" on="1"/>
        <pt x="1198" y="398" on="0"/>
        <pt x="1202" y="375" on="1"/>
        <pt x="1242" y="-15" on="1"/>
        <pt x="1242" y="-31" on="0"/>
        <pt x="1219" y="-33" on="1"/>
        <pt x="1047" y="-48" on="1"/>
        <pt x="1007" y="-48" on="0"/>
        <pt x="1005" y="-9" on="1"/>
        <pt x="1003" y="33" on="1"/>
        <pt x="864" y="-41" on="0"/>
        <pt x="555" y="-41" on="0"/>
        <pt x="344" y="65" on="0"/>
        <pt x="273" y="168" on="1"/>
        <pt x="130" y="377" on="0"/>
        <pt x="130" y="776" on="1"/>
        <pt x="130" y="1172" on="0"/>
        <pt x="290" y="1364" on="1"/>
        <pt x="436" y="1540" on="0"/>
        <pt x="707" y="1540" on="1"/>
        <pt x="877" y="1540" on="0"/>
        <pt x="993" y="1502" on="1"/>
      </contour>
      <contour>
        <pt x="826" y="1643" on="1"/>
        <pt x="798" y="1619" on="0"/>
        <pt x="784" y="1618" on="1"/>
        <pt x="686" y="1609" on="1"/>
        <pt x="669" y="1609" on="0"/>
        <pt x="640" y="1634" on="1"/>
        <pt x="326" y="1912" on="1"/>
        <pt x="319" y="1919" on="0"/>
        <pt x="319" y="1933" on="0"/>
        <pt x="325" y="1941" on="1"/>
        <pt x="386" y="2014" on="1"/>
        <pt x="390" y="2020" on="0"/>
        <pt x="402" y="2020" on="0"/>
        <pt x="410" y="2016" on="1"/>
        <pt x="741" y="1832" on="1"/>
        <pt x="1039" y="2013" on="1"/>
        <pt x="1051" y="2019" on="0"/>
        <pt x="1063" y="2019" on="0"/>
        <pt x="1069" y="2011" on="1"/>
        <pt x="1129" y="1939" on="1"/>
        <pt x="1137" y="1928" on="0"/>
        <pt x="1137" y="1922" on="1"/>
        <pt x="1137" y="1917" on="0"/>
        <pt x="1132" y="1913" on="1"/>
      </contour>
    </TTGlyph>
    <TTGlyph name="Ccedilla" xMin="130" yMin="-522" xMax="1242" yMax="1540">
      <contour>
        <pt x="795" y="-374" on="1"/>
        <pt x="878" y="-374" on="0"/>
        <pt x="878" y="-305" on="1"/>
        <pt x="878" y="-276" on="0"/>
        <pt x="841" y="-234" on="0"/>
        <pt x="785" y="-234" on="0"/>
        <pt x="761" y="-237" on="0"/>
        <pt x="749" y="-238" on="1"/>
        <pt x="721" y="-242" on="0"/>
        <pt x="711" y="-242" on="0"/>
        <pt x="688" y="-217" on="0"/>
        <pt x="675" y="-201" on="1"/>
        <pt x="643" y="-162" on="0"/>
        <pt x="643" y="-147" on="1"/>
        <pt x="670" y="-40" on="1"/>
        <pt x="270" y="-28" on="0"/>
        <pt x="164" y="431" on="1"/>
        <pt x="130" y="581" on="0"/>
        <pt x="130" y="983" on="0"/>
        <pt x="214" y="1273" on="0"/>
        <pt x="290" y="1364" on="1"/>
        <pt x="436" y="1540" on="0"/>
        <pt x="707" y="1540" on="1"/>
        <pt x="877" y="1540" on="0"/>
        <pt x="993" y="1502" on="1"/>
        <pt x="1173" y="1530" on="1"/>
        <pt x="1213" y="1530" on="0"/>
        <pt x="1215" y="1491" on="1"/>
        <pt x="1203" y="1055" on="1"/>
        <pt x="1203" y="1029" on="0"/>
        <pt x="1181" y="1029" on="1"/>
        <pt x="1013" y="1025" on="1"/>
        <pt x="994" y="1025" on="0"/>
        <pt x="992" y="1048" on="1"/>
        <pt x="971" y="1305" on="1"/>
        <pt x="849" y="1335" on="0"/>
        <pt x="643" y="1335" on="0"/>
        <pt x="501" y="1274" on="0"/>
        <pt x="455" y="1206" on="1"/>
        <pt x="366" y="1074" on="0"/>
        <pt x="366" y="765" on="1"/>
        <pt x="366" y="298" on="0"/>
        <pt x="592" y="206" on="1"/>
        <pt x="666" y="176" on="0"/>
        <pt x="878" y="176" on="0"/>
        <pt x="996" y="214" on="1"/>
        <pt x="991" y="348" on="1"/>
        <pt x="993" y="366" on="0"/>
        <pt x="1015" y="370" on="1"/>
        <pt x="1181" y="398" on="1"/>
        <pt x="1198" y="398" on="0"/>
        <pt x="1202" y="375" on="1"/>
        <pt x="1242" y="-15" on="1"/>
        <pt x="1242" y="-31" on="0"/>
        <pt x="1219" y="-33" on="1"/>
        <pt x="1047" y="-48" on="1"/>
        <pt x="1007" y="-48" on="0"/>
        <pt x="1005" y="-9" on="1"/>
        <pt x="1003" y="33" on="1"/>
        <pt x="904" y="-19" on="0"/>
        <pt x="798" y="-33" on="1"/>
        <pt x="786" y="-112" on="1"/>
        <pt x="827" y="-103" on="0"/>
        <pt x="921" y="-103" on="0"/>
        <pt x="987" y="-135" on="0"/>
        <pt x="1010" y="-162" on="1"/>
        <pt x="1054" y="-217" on="0"/>
        <pt x="1054" y="-320" on="1"/>
        <pt x="1054" y="-522" on="0"/>
        <pt x="807" y="-522" on="1"/>
        <pt x="693" y="-522" on="0"/>
        <pt x="616" y="-489" on="1"/>
        <pt x="595" y="-480" on="0"/>
        <pt x="595" y="-471" on="1"/>
        <pt x="616" y="-364" on="1"/>
        <pt x="619" y="-347" on="0"/>
        <pt x="635" y="-347" on="1"/>
        <pt x="642" y="-347" on="0"/>
        <pt x="670" y="-354" on="1"/>
        <pt x="750" y="-374" on="0"/>
      </contour>
    </TTGlyph>
    <TTGlyph name="Ccircumflex" xMin="130" yMin="-48" xMax="1242" yMax="2020">
      <contour>
        <pt x="1173" y="1530" on="1"/>
        <pt x="1213" y="1530" on="0"/>
        <pt x="1215" y="1491" on="1"/>
        <pt x="1203" y="1055" on="1"/>
        <pt x="1203" y="1029" on="0"/>
        <pt x="1181" y="1029" on="1"/>
        <pt x="1013" y="1025" on="1"/>
        <pt x="994" y="1025" on="0"/>
        <pt x="992" y="1048" on="1"/>
        <pt x="971" y="1305" on="1"/>
        <pt x="849" y="1335" on="0"/>
        <pt x="643" y="1335" on="0"/>
        <pt x="501" y="1274" on="0"/>
        <pt x="455" y="1206" on="1"/>
        <pt x="366" y="1074" on="0"/>
        <pt x="366" y="765" on="1"/>
        <pt x="366" y="298" on="0"/>
        <pt x="592" y="206" on="1"/>
        <pt x="666" y="176" on="0"/>
        <pt x="878" y="176" on="0"/>
        <pt x="996" y="214" on="1"/>
        <pt x="991" y="348" on="1"/>
        <pt x="993" y="366" on="0"/>
        <pt x="1015" y="370" on="1"/>
        <pt x="1181" y="398" on="1"/>
        <pt x="1198" y="398" on="0"/>
        <pt x="1202" y="375" on="1"/>
        <pt x="1242" y="-15" on="1"/>
        <pt x="1242" y="-31" on="0"/>
        <pt x="1219" y="-33" on="1"/>
        <pt x="1047" y="-48" on="1"/>
        <pt x="1007" y="-48" on="0"/>
        <pt x="1005" y="-9" on="1"/>
        <pt x="1003" y="33" on="1"/>
        <pt x="864" y="-41" on="0"/>
        <pt x="555" y="-41" on="0"/>
        <pt x="344" y="65" on="0"/>
        <pt x="273" y="168" on="1"/>
        <pt x="130" y="377" on="0"/>
        <pt x="130" y="776" on="1"/>
        <pt x="130" y="1172" on="0"/>
        <pt x="290" y="1364" on="1"/>
        <pt x="436" y="1540" on="0"/>
        <pt x="707" y="1540" on="1"/>
        <pt x="877" y="1540" on="0"/>
        <pt x="993" y="1502" on="1"/>
      </contour>
      <contour>
        <pt x="653" y="1985" on="1"/>
        <pt x="682" y="2008" on="0"/>
        <pt x="698" y="2010" on="1"/>
        <pt x="793" y="2020" on="1"/>
        <pt x="809" y="2020" on="0"/>
        <pt x="839" y="1994" on="1"/>
        <pt x="1141" y="1743" on="1"/>
        <pt x="1148" y="1736" on="0"/>
        <pt x="1148" y="1721" on="0"/>
        <pt x="1142" y="1714" on="1"/>
        <pt x="1081" y="1641" on="1"/>
        <pt x="1076" y="1635" on="0"/>
        <pt x="1065" y="1635" on="0"/>
        <pt x="1057" y="1639" on="1"/>
        <pt x="737" y="1798" on="1"/>
        <pt x="440" y="1644" on="1"/>
        <pt x="436" y="1642" on="0"/>
        <pt x="424" y="1642" on="0"/>
        <pt x="418" y="1650" on="1"/>
        <pt x="356" y="1726" on="1"/>
        <pt x="350" y="1734" on="0"/>
        <pt x="350" y="1739" on="1"/>
        <pt x="350" y="1744" on="0"/>
        <pt x="355" y="1748" on="1"/>
      </contour>
    </TTGlyph>
    <TTGlyph name="Cdotaccent" xMin="130" yMin="-48" xMax="1242" yMax="1988">
      <contour>
        <pt x="1173" y="1530" on="1"/>
        <pt x="1213" y="1530" on="0"/>
        <pt x="1215" y="1491" on="1"/>
        <pt x="1203" y="1055" on="1"/>
        <pt x="1203" y="1029" on="0"/>
        <pt x="1181" y="1029" on="1"/>
        <pt x="1013" y="1025" on="1"/>
        <pt x="994" y="1025" on="0"/>
        <pt x="992" y="1048" on="1"/>
        <pt x="971" y="1305" on="1"/>
        <pt x="849" y="1335" on="0"/>
        <pt x="643" y="1335" on="0"/>
        <pt x="501" y="1274" on="0"/>
        <pt x="455" y="1206" on="1"/>
        <pt x="366" y="1074" on="0"/>
        <pt x="366" y="765" on="1"/>
        <pt x="366" y="298" on="0"/>
        <pt x="592" y="206" on="1"/>
        <pt x="666" y="176" on="0"/>
        <pt x="878" y="176" on="0"/>
        <pt x="996" y="214" on="1"/>
        <pt x="991" y="348" on="1"/>
        <pt x="993" y="366" on="0"/>
        <pt x="1015" y="370" on="1"/>
        <pt x="1181" y="398" on="1"/>
        <pt x="1198" y="398" on="0"/>
        <pt x="1202" y="375" on="1"/>
        <pt x="1242" y="-15" on="1"/>
        <pt x="1242" y="-31" on="0"/>
        <pt x="1219" y="-33" on="1"/>
        <pt x="1047" y="-48" on="1"/>
        <pt x="1007" y="-48" on="0"/>
        <pt x="1005" y="-9" on="1"/>
        <pt x="1003" y="33" on="1"/>
        <pt x="864" y="-41" on="0"/>
        <pt x="555" y="-41" on="0"/>
        <pt x="344" y="65" on="0"/>
        <pt x="273" y="168" on="1"/>
        <pt x="130" y="377" on="0"/>
        <pt x="130" y="776" on="1"/>
        <pt x="130" y="1172" on="0"/>
        <pt x="290" y="1364" on="1"/>
        <pt x="436" y="1540" on="0"/>
        <pt x="707" y="1540" on="1"/>
        <pt x="877" y="1540" on="0"/>
        <pt x="993" y="1502" on="1"/>
      </contour>
      <contour>
        <pt x="831" y="1735" on="0"/>
        <pt x="764" y="1725" on="0"/>
        <pt x="649" y="1725" on="0"/>
        <pt x="597" y="1782" on="0"/>
        <pt x="597" y="1894" on="0"/>
        <pt x="610" y="1947" on="0"/>
        <pt x="628" y="1962" on="1"/>
        <pt x="659" y="1988" on="0"/>
        <pt x="763" y="1988" on="1"/>
        <pt x="831" y="1988" on="0"/>
        <pt x="852" y="1969" on="1"/>
        <pt x="886" y="1937" on="0"/>
        <pt x="886" y="1821" on="0"/>
        <pt x="870" y="1765" on="0"/>
      </contour>
    </TTGlyph>
    <TTGlyph name="D" xMin="73" yMin="-19" xMax="1259" yMax="1540">
      <contour>
        <pt x="246" y="1313" on="1"/>
        <pt x="185" y="1309" on="0"/>
        <pt x="105" y="1301" on="1"/>
        <pt x="94" y="1301" on="0"/>
        <pt x="88" y="1311" on="0"/>
        <pt x="87" y="1323" on="1"/>
        <pt x="73" y="1509" on="1"/>
        <pt x="74" y="1521" on="0"/>
        <pt x="85" y="1528" on="0"/>
        <pt x="97" y="1530" on="1"/>
        <pt x="196" y="1532" on="0"/>
        <pt x="343" y="1536" on="0"/>
        <pt x="452" y="1538" on="0"/>
        <pt x="529" y="1539" on="0"/>
        <pt x="586" y="1540" on="0"/>
        <pt x="608" y="1540" on="1"/>
        <pt x="650" y="1540" on="1"/>
        <pt x="948" y="1540" on="0"/>
        <pt x="1092" y="1384" on="1"/>
        <pt x="1259" y="1204" on="0"/>
        <pt x="1259" y="786" on="1"/>
        <pt x="1259" y="391" on="0"/>
        <pt x="1090" y="180" on="1"/>
        <pt x="929" y="-19" on="0"/>
        <pt x="645" y="-19" on="1"/>
        <pt x="347" y="-19" on="0"/>
        <pt x="101" y="6" on="1"/>
        <pt x="84" y="7" on="0"/>
        <pt x="83" y="30" on="1"/>
        <pt x="95" y="207" on="1"/>
        <pt x="97" y="223" on="0"/>
        <pt x="111" y="226" on="1"/>
        <pt x="220" y="218" on="1"/>
      </contour>
      <contour>
        <pt x="453" y="205" on="1"/>
        <pt x="537" y="199" on="0"/>
        <pt x="575" y="199" on="1"/>
        <pt x="639" y="199" on="1"/>
        <pt x="842" y="199" on="0"/>
        <pt x="1033" y="481" on="0"/>
        <pt x="1033" y="761" on="1"/>
        <pt x="1033" y="1225" on="0"/>
        <pt x="810" y="1309" on="1"/>
        <pt x="738" y="1336" on="0"/>
        <pt x="680" y="1336" on="1"/>
        <pt x="580" y="1336" on="0"/>
        <pt x="465" y="1329" on="1"/>
      </contour>
    </TTGlyph>
    <TTGlyph name="Dcaron" xMin="73" yMin="-19" xMax="1259" yMax="2020">
      <contour>
        <pt x="246" y="1313" on="1"/>
        <pt x="185" y="1309" on="0"/>
        <pt x="105" y="1301" on="1"/>
        <pt x="94" y="1301" on="0"/>
        <pt x="88" y="1311" on="0"/>
        <pt x="87" y="1323" on="1"/>
        <pt x="73" y="1509" on="1"/>
        <pt x="74" y="1521" on="0"/>
        <pt x="85" y="1528" on="0"/>
        <pt x="97" y="1530" on="1"/>
        <pt x="196" y="1532" on="0"/>
        <pt x="343" y="1536" on="0"/>
        <pt x="452" y="1538" on="0"/>
        <pt x="529" y="1539" on="0"/>
        <pt x="586" y="1540" on="0"/>
        <pt x="608" y="1540" on="1"/>
        <pt x="650" y="1540" on="1"/>
        <pt x="948" y="1540" on="0"/>
        <pt x="1092" y="1384" on="1"/>
        <pt x="1259" y="1204" on="0"/>
        <pt x="1259" y="786" on="1"/>
        <pt x="1259" y="391" on="0"/>
        <pt x="1090" y="180" on="1"/>
        <pt x="929" y="-19" on="0"/>
        <pt x="645" y="-19" on="1"/>
        <pt x="347" y="-19" on="0"/>
        <pt x="101" y="6" on="1"/>
        <pt x="84" y="7" on="0"/>
        <pt x="83" y="30" on="1"/>
        <pt x="95" y="207" on="1"/>
        <pt x="97" y="223" on="0"/>
        <pt x="111" y="226" on="1"/>
        <pt x="220" y="218" on="1"/>
      </contour>
      <contour>
        <pt x="453" y="205" on="1"/>
        <pt x="537" y="199" on="0"/>
        <pt x="575" y="199" on="1"/>
        <pt x="639" y="199" on="1"/>
        <pt x="842" y="199" on="0"/>
        <pt x="1033" y="481" on="0"/>
        <pt x="1033" y="761" on="1"/>
        <pt x="1033" y="1225" on="0"/>
        <pt x="810" y="1309" on="1"/>
        <pt x="738" y="1336" on="0"/>
        <pt x="680" y="1336" on="1"/>
        <pt x="580" y="1336" on="0"/>
        <pt x="465" y="1329" on="1"/>
      </contour>
      <contour>
        <pt x="764" y="1643" on="1"/>
        <pt x="736" y="1619" on="0"/>
        <pt x="722" y="1618" on="1"/>
        <pt x="624" y="1609" on="1"/>
        <pt x="607" y="1609" on="0"/>
        <pt x="578" y="1634" on="1"/>
        <pt x="264" y="1912" on="1"/>
        <pt x="257" y="1919" on="0"/>
        <pt x="257" y="1933" on="0"/>
        <pt x="263" y="1941" on="1"/>
        <pt x="324" y="2014" on="1"/>
        <pt x="328" y="2020" on="0"/>
        <pt x="340" y="2020" on="0"/>
        <pt x="348" y="2016" on="1"/>
        <pt x="679" y="1832" on="1"/>
        <pt x="977" y="2013" on="1"/>
        <pt x="989" y="2019" on="0"/>
        <pt x="1001" y="2019" on="0"/>
        <pt x="1007" y="2011" on="1"/>
        <pt x="1067" y="1939" on="1"/>
        <pt x="1075" y="1928" on="0"/>
        <pt x="1075" y="1922" on="1"/>
        <pt x="1075" y="1917" on="0"/>
        <pt x="1070" y="1913" on="1"/>
      </contour>
    </TTGlyph>
    <TTGlyph name="Dcroat" xMin="73" yMin="-19" xMax="1259" yMax="1540">
      <contour>
        <pt x="246" y="1313" on="1"/>
        <pt x="185" y="1309" on="0"/>
        <pt x="105" y="1301" on="1"/>
        <pt x="94" y="1301" on="0"/>
        <pt x="88" y="1311" on="0"/>
        <pt x="87" y="1323" on="1"/>
        <pt x="73" y="1509" on="1"/>
        <pt x="74" y="1521" on="0"/>
        <pt x="85" y="1528" on="0"/>
        <pt x="97" y="1530" on="1"/>
        <pt x="196" y="1532" on="0"/>
        <pt x="343" y="1536" on="0"/>
        <pt x="452" y="1538" on="0"/>
        <pt x="529" y="1539" on="0"/>
        <pt x="586" y="1540" on="0"/>
        <pt x="608" y="1540" on="1"/>
        <pt x="650" y="1540" on="1"/>
        <pt x="948" y="1540" on="0"/>
        <pt x="1092" y="1384" on="1"/>
        <pt x="1259" y="1204" on="0"/>
        <pt x="1259" y="786" on="1"/>
        <pt x="1259" y="391" on="0"/>
        <pt x="1090" y="180" on="1"/>
        <pt x="929" y="-19" on="0"/>
        <pt x="645" y="-19" on="1"/>
        <pt x="347" y="-19" on="0"/>
        <pt x="101" y="6" on="1"/>
        <pt x="84" y="7" on="0"/>
        <pt x="83" y="30" on="1"/>
        <pt x="95" y="207" on="1"/>
        <pt x="97" y="223" on="0"/>
        <pt x="111" y="226" on="1"/>
        <pt x="220" y="218" on="1"/>
        <pt x="229" y="602" on="1"/>
        <pt x="115" y="596" on="1"/>
        <pt x="91" y="598" on="0"/>
        <pt x="91" y="615" on="1"/>
        <pt x="89" y="746" on="1"/>
        <pt x="89" y="766" on="0"/>
        <pt x="105" y="766" on="1"/>
        <pt x="233" y="768" on="1"/>
      </contour>
      <contour>
        <pt x="453" y="205" on="1"/>
        <pt x="537" y="199" on="0"/>
        <pt x="575" y="199" on="1"/>
        <pt x="639" y="199" on="1"/>
        <pt x="842" y="199" on="0"/>
        <pt x="1033" y="481" on="0"/>
        <pt x="1033" y="761" on="1"/>
        <pt x="1033" y="1225" on="0"/>
        <pt x="810" y="1309" on="1"/>
        <pt x="738" y="1336" on="0"/>
        <pt x="680" y="1336" on="1"/>
        <pt x="580" y="1336" on="0"/>
        <pt x="465" y="1329" on="1"/>
        <pt x="459" y="771" on="1"/>
        <pt x="792" y="794" on="1"/>
        <pt x="808" y="794" on="0"/>
        <pt x="808" y="776" on="1"/>
        <pt x="811" y="639" on="1"/>
        <pt x="811" y="620" on="0"/>
        <pt x="798" y="620" on="1"/>
        <pt x="467" y="614" on="1"/>
        <pt x="457" y="613" on="1"/>
      </contour>
    </TTGlyph>
    <TTGlyph name="Delta" xMin="105" yMin="-4" xMax="1089" yMax="1543">
      <contour>
        <pt x="500" y="1522" on="1"/>
        <pt x="506" y="1540" on="0"/>
        <pt x="524" y="1543" on="1"/>
        <pt x="670" y="1539" on="1"/>
        <pt x="689" y="1539" on="0"/>
        <pt x="695" y="1522" on="1"/>
        <pt x="1084" y="202" on="1"/>
        <pt x="1089" y="182" on="0"/>
        <pt x="1089" y="171" on="1"/>
        <pt x="1077" y="30" on="1"/>
        <pt x="1073" y="6" on="0"/>
        <pt x="1053" y="6" on="1"/>
        <pt x="137" y="-4" on="1"/>
        <pt x="119" y="-4" on="0"/>
        <pt x="118" y="20" on="1"/>
        <pt x="105" y="163" on="1"/>
        <pt x="105" y="176" on="0"/>
        <pt x="111" y="200" on="1"/>
      </contour>
      <contour>
        <pt x="310" y="187" on="1"/>
        <pt x="885" y="195" on="1"/>
        <pt x="597" y="1235" on="1"/>
      </contour>
    </TTGlyph>
    <TTGlyph name="E" xMin="117" yMin="-64" xMax="1272" yMax="1553">
      <contour>
        <pt x="1272" y="-41" on="1"/>
        <pt x="1268" y="-64" on="0"/>
        <pt x="1251" y="-64" on="1"/>
        <pt x="1063" y="-60" on="1"/>
        <pt x="1041" y="-60" on="0"/>
        <pt x="1041" y="-34" on="1"/>
        <pt x="1039" y="27" on="1"/>
        <pt x="146" y="2" on="1"/>
        <pt x="123" y="2" on="0"/>
        <pt x="122" y="26" on="1"/>
        <pt x="128" y="210" on="1"/>
        <pt x="128" y="225" on="0"/>
        <pt x="144" y="229" on="1"/>
        <pt x="269" y="212" on="1"/>
        <pt x="261" y="1301" on="1"/>
        <pt x="135" y="1290" on="1"/>
        <pt x="117" y="1290" on="0"/>
        <pt x="117" y="1312" on="1"/>
        <pt x="128" y="1494" on="1"/>
        <pt x="130" y="1513" on="0"/>
        <pt x="152" y="1515" on="1"/>
        <pt x="1151" y="1553" on="1"/>
        <pt x="1181" y="1551" on="0"/>
        <pt x="1181" y="1526" on="1"/>
        <pt x="1161" y="1161" on="1"/>
        <pt x="1161" y="1138" on="0"/>
        <pt x="1145" y="1138" on="1"/>
        <pt x="977" y="1144" on="1"/>
        <pt x="963" y="1145" on="0"/>
        <pt x="957" y="1157" on="0"/>
        <pt x="956" y="1170" on="1"/>
        <pt x="950" y="1342" on="1"/>
        <pt x="477" y="1317" on="1"/>
        <pt x="484" y="851" on="1"/>
        <pt x="975" y="882" on="1"/>
        <pt x="1000" y="882" on="0"/>
        <pt x="1002" y="859" on="1"/>
        <pt x="1009" y="691" on="1"/>
        <pt x="1007" y="668" on="0"/>
        <pt x="988" y="668" on="1"/>
        <pt x="486" y="661" on="1"/>
        <pt x="493" y="204" on="1"/>
        <pt x="1033" y="222" on="1"/>
        <pt x="1029" y="353" on="1"/>
        <pt x="1031" y="390" on="0"/>
        <pt x="1071" y="392" on="1"/>
        <pt x="1233" y="387" on="1"/>
        <pt x="1256" y="385" on="0"/>
        <pt x="1256" y="369" on="1"/>
      </contour>
    </TTGlyph>
    <TTGlyph name="Eacute" xMin="117" yMin="-64" xMax="1272" yMax="2020">
      <contour>
        <pt x="1272" y="-41" on="1"/>
        <pt x="1268" y="-64" on="0"/>
        <pt x="1251" y="-64" on="1"/>
        <pt x="1063" y="-60" on="1"/>
        <pt x="1041" y="-60" on="0"/>
        <pt x="1041" y="-34" on="1"/>
        <pt x="1039" y="27" on="1"/>
        <pt x="146" y="2" on="1"/>
        <pt x="123" y="2" on="0"/>
        <pt x="122" y="26" on="1"/>
        <pt x="128" y="210" on="1"/>
        <pt x="128" y="225" on="0"/>
        <pt x="144" y="229" on="1"/>
        <pt x="269" y="212" on="1"/>
        <pt x="261" y="1301" on="1"/>
        <pt x="135" y="1290" on="1"/>
        <pt x="117" y="1290" on="0"/>
        <pt x="117" y="1312" on="1"/>
        <pt x="128" y="1494" on="1"/>
        <pt x="130" y="1513" on="0"/>
        <pt x="152" y="1515" on="1"/>
        <pt x="1151" y="1553" on="1"/>
        <pt x="1181" y="1551" on="0"/>
        <pt x="1181" y="1526" on="1"/>
        <pt x="1161" y="1161" on="1"/>
        <pt x="1161" y="1138" on="0"/>
        <pt x="1145" y="1138" on="1"/>
        <pt x="977" y="1144" on="1"/>
        <pt x="963" y="1145" on="0"/>
        <pt x="957" y="1157" on="0"/>
        <pt x="956" y="1170" on="1"/>
        <pt x="950" y="1342" on="1"/>
        <pt x="477" y="1317" on="1"/>
        <pt x="484" y="851" on="1"/>
        <pt x="975" y="882" on="1"/>
        <pt x="1000" y="882" on="0"/>
        <pt x="1002" y="859" on="1"/>
        <pt x="1009" y="691" on="1"/>
        <pt x="1007" y="668" on="0"/>
        <pt x="988" y="668" on="1"/>
        <pt x="486" y="661" on="1"/>
        <pt x="493" y="204" on="1"/>
        <pt x="1033" y="222" on="1"/>
        <pt x="1029" y="353" on="1"/>
        <pt x="1031" y="390" on="0"/>
        <pt x="1071" y="392" on="1"/>
        <pt x="1233" y="387" on="1"/>
        <pt x="1256" y="385" on="0"/>
        <pt x="1256" y="369" on="1"/>
      </contour>
      <contour>
        <pt x="1035" y="1842" on="1"/>
        <pt x="1039" y="1834" on="0"/>
        <pt x="1039" y="1811" on="0"/>
        <pt x="1024" y="1805" on="1"/>
        <pt x="530" y="1598" on="1"/>
        <pt x="522" y="1595" on="0"/>
        <pt x="508" y="1595" on="0"/>
        <pt x="504" y="1605" on="1"/>
        <pt x="465" y="1697" on="1"/>
        <pt x="461" y="1707" on="0"/>
        <pt x="461" y="1719" on="0"/>
        <pt x="470" y="1724" on="1"/>
        <pt x="923" y="2014" on="1"/>
        <pt x="935" y="2020" on="0"/>
        <pt x="959" y="2020" on="0"/>
        <pt x="965" y="2006" on="1"/>
      </contour>
    </TTGlyph>
    <TTGlyph name="Ebreve" xMin="117" yMin="-64" xMax="1272" yMax="2020">
      <contour>
        <pt x="1272" y="-41" on="1"/>
        <pt x="1268" y="-64" on="0"/>
        <pt x="1251" y="-64" on="1"/>
        <pt x="1063" y="-60" on="1"/>
        <pt x="1041" y="-60" on="0"/>
        <pt x="1041" y="-34" on="1"/>
        <pt x="1039" y="27" on="1"/>
        <pt x="146" y="2" on="1"/>
        <pt x="123" y="2" on="0"/>
        <pt x="122" y="26" on="1"/>
        <pt x="128" y="210" on="1"/>
        <pt x="128" y="225" on="0"/>
        <pt x="144" y="229" on="1"/>
        <pt x="269" y="212" on="1"/>
        <pt x="261" y="1301" on="1"/>
        <pt x="135" y="1290" on="1"/>
        <pt x="117" y="1290" on="0"/>
        <pt x="117" y="1312" on="1"/>
        <pt x="128" y="1494" on="1"/>
        <pt x="130" y="1513" on="0"/>
        <pt x="152" y="1515" on="1"/>
        <pt x="1151" y="1553" on="1"/>
        <pt x="1181" y="1551" on="0"/>
        <pt x="1181" y="1526" on="1"/>
        <pt x="1161" y="1161" on="1"/>
        <pt x="1161" y="1138" on="0"/>
        <pt x="1145" y="1138" on="1"/>
        <pt x="977" y="1144" on="1"/>
        <pt x="963" y="1145" on="0"/>
        <pt x="957" y="1157" on="0"/>
        <pt x="956" y="1170" on="1"/>
        <pt x="950" y="1342" on="1"/>
        <pt x="477" y="1317" on="1"/>
        <pt x="484" y="851" on="1"/>
        <pt x="975" y="882" on="1"/>
        <pt x="1000" y="882" on="0"/>
        <pt x="1002" y="859" on="1"/>
        <pt x="1009" y="691" on="1"/>
        <pt x="1007" y="668" on="0"/>
        <pt x="988" y="668" on="1"/>
        <pt x="486" y="661" on="1"/>
        <pt x="493" y="204" on="1"/>
        <pt x="1033" y="222" on="1"/>
        <pt x="1029" y="353" on="1"/>
        <pt x="1031" y="390" on="0"/>
        <pt x="1071" y="392" on="1"/>
        <pt x="1233" y="387" on="1"/>
        <pt x="1256" y="385" on="0"/>
        <pt x="1256" y="369" on="1"/>
      </contour>
      <contour>
        <pt x="1039" y="2006" on="1"/>
        <pt x="1063" y="2006" on="0"/>
        <pt x="1063" y="1983" on="1"/>
        <pt x="1063" y="1841" on="0"/>
        <pt x="968" y="1743" on="1"/>
        <pt x="867" y="1638" on="0"/>
        <pt x="700" y="1638" on="1"/>
        <pt x="529" y="1638" on="0"/>
        <pt x="419" y="1729" on="1"/>
        <pt x="306" y="1823" on="0"/>
        <pt x="306" y="1984" on="1"/>
        <pt x="306" y="2007" on="0"/>
        <pt x="330" y="2007" on="1"/>
        <pt x="473" y="2020" on="1"/>
        <pt x="492" y="2020" on="0"/>
        <pt x="497" y="1956" on="0"/>
        <pt x="530" y="1892" on="0"/>
        <pt x="556" y="1869" on="1"/>
        <pt x="612" y="1821" on="0"/>
        <pt x="693" y="1821" on="1"/>
        <pt x="845" y="1821" on="0"/>
        <pt x="875" y="1986" on="1"/>
        <pt x="879" y="2010" on="0"/>
        <pt x="896" y="2010" on="1"/>
      </contour>
    </TTGlyph>
    <TTGlyph name="Ecaron" xMin="117" yMin="-64" xMax="1272" yMax="2020">
      <contour>
        <pt x="1272" y="-41" on="1"/>
        <pt x="1268" y="-64" on="0"/>
        <pt x="1251" y="-64" on="1"/>
        <pt x="1063" y="-60" on="1"/>
        <pt x="1041" y="-60" on="0"/>
        <pt x="1041" y="-34" on="1"/>
        <pt x="1039" y="27" on="1"/>
        <pt x="146" y="2" on="1"/>
        <pt x="123" y="2" on="0"/>
        <pt x="122" y="26" on="1"/>
        <pt x="128" y="210" on="1"/>
        <pt x="128" y="225" on="0"/>
        <pt x="144" y="229" on="1"/>
        <pt x="269" y="212" on="1"/>
        <pt x="261" y="1301" on="1"/>
        <pt x="135" y="1290" on="1"/>
        <pt x="117" y="1290" on="0"/>
        <pt x="117" y="1312" on="1"/>
        <pt x="128" y="1494" on="1"/>
        <pt x="130" y="1513" on="0"/>
        <pt x="152" y="1515" on="1"/>
        <pt x="1151" y="1553" on="1"/>
        <pt x="1181" y="1551" on="0"/>
        <pt x="1181" y="1526" on="1"/>
        <pt x="1161" y="1161" on="1"/>
        <pt x="1161" y="1138" on="0"/>
        <pt x="1145" y="1138" on="1"/>
        <pt x="977" y="1144" on="1"/>
        <pt x="963" y="1145" on="0"/>
        <pt x="957" y="1157" on="0"/>
        <pt x="956" y="1170" on="1"/>
        <pt x="950" y="1342" on="1"/>
        <pt x="477" y="1317" on="1"/>
        <pt x="484" y="851" on="1"/>
        <pt x="975" y="882" on="1"/>
        <pt x="1000" y="882" on="0"/>
        <pt x="1002" y="859" on="1"/>
        <pt x="1009" y="691" on="1"/>
        <pt x="1007" y="668" on="0"/>
        <pt x="988" y="668" on="1"/>
        <pt x="486" y="661" on="1"/>
        <pt x="493" y="204" on="1"/>
        <pt x="1033" y="222" on="1"/>
        <pt x="1029" y="353" on="1"/>
        <pt x="1031" y="390" on="0"/>
        <pt x="1071" y="392" on="1"/>
        <pt x="1233" y="387" on="1"/>
        <pt x="1256" y="385" on="0"/>
        <pt x="1256" y="369" on="1"/>
      </contour>
      <contour>
        <pt x="769" y="1643" on="1"/>
        <pt x="741" y="1619" on="0"/>
        <pt x="727" y="1618" on="1"/>
        <pt x="629" y="1609" on="1"/>
        <pt x="612" y="1609" on="0"/>
        <pt x="583" y="1634" on="1"/>
        <pt x="269" y="1912" on="1"/>
        <pt x="262" y="1919" on="0"/>
        <pt x="262" y="1933" on="0"/>
        <pt x="268" y="1941" on="1"/>
        <pt x="329" y="2014" on="1"/>
        <pt x="333" y="2020" on="0"/>
        <pt x="345" y="2020" on="0"/>
        <pt x="353" y="2016" on="1"/>
        <pt x="684" y="1832" on="1"/>
        <pt x="982" y="2013" on="1"/>
        <pt x="994" y="2019" on="0"/>
        <pt x="1006" y="2019" on="0"/>
        <pt x="1012" y="2011" on="1"/>
        <pt x="1072" y="1939" on="1"/>
        <pt x="1080" y="1928" on="0"/>
        <pt x="1080" y="1922" on="1"/>
        <pt x="1080" y="1917" on="0"/>
        <pt x="1075" y="1913" on="1"/>
      </contour>
    </TTGlyph>
    <TTGlyph name="Ecircumflex" xMin="117" yMin="-64" xMax="1272" yMax="2020">
      <contour>
        <pt x="1272" y="-41" on="1"/>
        <pt x="1268" y="-64" on="0"/>
        <pt x="1251" y="-64" on="1"/>
        <pt x="1063" y="-60" on="1"/>
        <pt x="1041" y="-60" on="0"/>
        <pt x="1041" y="-34" on="1"/>
        <pt x="1039" y="27" on="1"/>
        <pt x="146" y="2" on="1"/>
        <pt x="123" y="2" on="0"/>
        <pt x="122" y="26" on="1"/>
        <pt x="128" y="210" on="1"/>
        <pt x="128" y="225" on="0"/>
        <pt x="144" y="229" on="1"/>
        <pt x="269" y="212" on="1"/>
        <pt x="261" y="1301" on="1"/>
        <pt x="135" y="1290" on="1"/>
        <pt x="117" y="1290" on="0"/>
        <pt x="117" y="1312" on="1"/>
        <pt x="128" y="1494" on="1"/>
        <pt x="130" y="1513" on="0"/>
        <pt x="152" y="1515" on="1"/>
        <pt x="1151" y="1553" on="1"/>
        <pt x="1181" y="1551" on="0"/>
        <pt x="1181" y="1526" on="1"/>
        <pt x="1161" y="1161" on="1"/>
        <pt x="1161" y="1138" on="0"/>
        <pt x="1145" y="1138" on="1"/>
        <pt x="977" y="1144" on="1"/>
        <pt x="963" y="1145" on="0"/>
        <pt x="957" y="1157" on="0"/>
        <pt x="956" y="1170" on="1"/>
        <pt x="950" y="1342" on="1"/>
        <pt x="477" y="1317" on="1"/>
        <pt x="484" y="851" on="1"/>
        <pt x="975" y="882" on="1"/>
        <pt x="1000" y="882" on="0"/>
        <pt x="1002" y="859" on="1"/>
        <pt x="1009" y="691" on="1"/>
        <pt x="1007" y="668" on="0"/>
        <pt x="988" y="668" on="1"/>
        <pt x="486" y="661" on="1"/>
        <pt x="493" y="204" on="1"/>
        <pt x="1033" y="222" on="1"/>
        <pt x="1029" y="353" on="1"/>
        <pt x="1031" y="390" on="0"/>
        <pt x="1071" y="392" on="1"/>
        <pt x="1233" y="387" on="1"/>
        <pt x="1256" y="385" on="0"/>
        <pt x="1256" y="369" on="1"/>
      </contour>
      <contour>
        <pt x="596" y="1985" on="1"/>
        <pt x="625" y="2008" on="0"/>
        <pt x="641" y="2010" on="1"/>
        <pt x="736" y="2020" on="1"/>
        <pt x="752" y="2020" on="0"/>
        <pt x="782" y="1994" on="1"/>
        <pt x="1084" y="1743" on="1"/>
        <pt x="1091" y="1736" on="0"/>
        <pt x="1091" y="1721" on="0"/>
        <pt x="1085" y="1714" on="1"/>
        <pt x="1024" y="1641" on="1"/>
        <pt x="1019" y="1635" on="0"/>
        <pt x="1008" y="1635" on="0"/>
        <pt x="1000" y="1639" on="1"/>
        <pt x="680" y="1798" on="1"/>
        <pt x="383" y="1644" on="1"/>
        <pt x="379" y="1642" on="0"/>
        <pt x="367" y="1642" on="0"/>
        <pt x="361" y="1650" on="1"/>
        <pt x="299" y="1726" on="1"/>
        <pt x="293" y="1734" on="0"/>
        <pt x="293" y="1739" on="1"/>
        <pt x="293" y="1744" on="0"/>
        <pt x="298" y="1748" on="1"/>
      </contour>
    </TTGlyph>
    <TTGlyph name="Edieresis" xMin="117" yMin="-64" xMax="1272" yMax="1988">
      <contour>
        <pt x="1272" y="-41" on="1"/>
        <pt x="1268" y="-64" on="0"/>
        <pt x="1251" y="-64" on="1"/>
        <pt x="1063" y="-60" on="1"/>
        <pt x="1041" y="-60" on="0"/>
        <pt x="1041" y="-34" on="1"/>
        <pt x="1039" y="27" on="1"/>
        <pt x="146" y="2" on="1"/>
        <pt x="123" y="2" on="0"/>
        <pt x="122" y="26" on="1"/>
        <pt x="128" y="210" on="1"/>
        <pt x="128" y="225" on="0"/>
        <pt x="144" y="229" on="1"/>
        <pt x="269" y="212" on="1"/>
        <pt x="261" y="1301" on="1"/>
        <pt x="135" y="1290" on="1"/>
        <pt x="117" y="1290" on="0"/>
        <pt x="117" y="1312" on="1"/>
        <pt x="128" y="1494" on="1"/>
        <pt x="130" y="1513" on="0"/>
        <pt x="152" y="1515" on="1"/>
        <pt x="1151" y="1553" on="1"/>
        <pt x="1181" y="1551" on="0"/>
        <pt x="1181" y="1526" on="1"/>
        <pt x="1161" y="1161" on="1"/>
        <pt x="1161" y="1138" on="0"/>
        <pt x="1145" y="1138" on="1"/>
        <pt x="977" y="1144" on="1"/>
        <pt x="963" y="1145" on="0"/>
        <pt x="957" y="1157" on="0"/>
        <pt x="956" y="1170" on="1"/>
        <pt x="950" y="1342" on="1"/>
        <pt x="477" y="1317" on="1"/>
        <pt x="484" y="851" on="1"/>
        <pt x="975" y="882" on="1"/>
        <pt x="1000" y="882" on="0"/>
        <pt x="1002" y="859" on="1"/>
        <pt x="1009" y="691" on="1"/>
        <pt x="1007" y="668" on="0"/>
        <pt x="988" y="668" on="1"/>
        <pt x="486" y="661" on="1"/>
        <pt x="493" y="204" on="1"/>
        <pt x="1033" y="222" on="1"/>
        <pt x="1029" y="353" on="1"/>
        <pt x="1031" y="390" on="0"/>
        <pt x="1071" y="392" on="1"/>
        <pt x="1233" y="387" on="1"/>
        <pt x="1256" y="385" on="0"/>
        <pt x="1256" y="369" on="1"/>
      </contour>
      <contour>
        <pt x="544" y="1735" on="0"/>
        <pt x="480" y="1725" on="0"/>
        <pt x="395" y="1725" on="0"/>
        <pt x="348" y="1737" on="0"/>
        <pt x="334" y="1752" on="1"/>
        <pt x="307" y="1779" on="0"/>
        <pt x="307" y="1894" on="0"/>
        <pt x="320" y="1947" on="0"/>
        <pt x="338" y="1962" on="1"/>
        <pt x="369" y="1988" on="0"/>
        <pt x="507" y="1988" on="0"/>
        <pt x="554" y="1978" on="0"/>
        <pt x="568" y="1964" on="1"/>
        <pt x="596" y="1939" on="0"/>
        <pt x="596" y="1821" on="0"/>
        <pt x="582" y="1765" on="0"/>
      </contour>
      <contour>
        <pt x="1015" y="1735" on="0"/>
        <pt x="951" y="1725" on="0"/>
        <pt x="866" y="1725" on="0"/>
        <pt x="819" y="1737" on="0"/>
        <pt x="805" y="1752" on="1"/>
        <pt x="778" y="1779" on="0"/>
        <pt x="778" y="1894" on="0"/>
        <pt x="791" y="1947" on="0"/>
        <pt x="809" y="1962" on="1"/>
        <pt x="840" y="1988" on="0"/>
        <pt x="978" y="1988" on="0"/>
        <pt x="1025" y="1978" on="0"/>
        <pt x="1040" y="1964" on="1"/>
        <pt x="1067" y="1939" on="0"/>
        <pt x="1067" y="1821" on="0"/>
        <pt x="1053" y="1765" on="0"/>
      </contour>
    </TTGlyph>
    <TTGlyph name="Edotaccent" xMin="117" yMin="-64" xMax="1272" yMax="1988">
      <contour>
        <pt x="1272" y="-41" on="1"/>
        <pt x="1268" y="-64" on="0"/>
        <pt x="1251" y="-64" on="1"/>
        <pt x="1063" y="-60" on="1"/>
        <pt x="1041" y="-60" on="0"/>
        <pt x="1041" y="-34" on="1"/>
        <pt x="1039" y="27" on="1"/>
        <pt x="146" y="2" on="1"/>
        <pt x="123" y="2" on="0"/>
        <pt x="122" y="26" on="1"/>
        <pt x="128" y="210" on="1"/>
        <pt x="128" y="225" on="0"/>
        <pt x="144" y="229" on="1"/>
        <pt x="269" y="212" on="1"/>
        <pt x="261" y="1301" on="1"/>
        <pt x="135" y="1290" on="1"/>
        <pt x="117" y="1290" on="0"/>
        <pt x="117" y="1312" on="1"/>
        <pt x="128" y="1494" on="1"/>
        <pt x="130" y="1513" on="0"/>
        <pt x="152" y="1515" on="1"/>
        <pt x="1151" y="1553" on="1"/>
        <pt x="1181" y="1551" on="0"/>
        <pt x="1181" y="1526" on="1"/>
        <pt x="1161" y="1161" on="1"/>
        <pt x="1161" y="1138" on="0"/>
        <pt x="1145" y="1138" on="1"/>
        <pt x="977" y="1144" on="1"/>
        <pt x="963" y="1145" on="0"/>
        <pt x="957" y="1157" on="0"/>
        <pt x="956" y="1170" on="1"/>
        <pt x="950" y="1342" on="1"/>
        <pt x="477" y="1317" on="1"/>
        <pt x="484" y="851" on="1"/>
        <pt x="975" y="882" on="1"/>
        <pt x="1000" y="882" on="0"/>
        <pt x="1002" y="859" on="1"/>
        <pt x="1009" y="691" on="1"/>
        <pt x="1007" y="668" on="0"/>
        <pt x="988" y="668" on="1"/>
        <pt x="486" y="661" on="1"/>
        <pt x="493" y="204" on="1"/>
        <pt x="1033" y="222" on="1"/>
        <pt x="1029" y="353" on="1"/>
        <pt x="1031" y="390" on="0"/>
        <pt x="1071" y="392" on="1"/>
        <pt x="1233" y="387" on="1"/>
        <pt x="1256" y="385" on="0"/>
        <pt x="1256" y="369" on="1"/>
      </contour>
      <contour>
        <pt x="774" y="1735" on="0"/>
        <pt x="707" y="1725" on="0"/>
        <pt x="592" y="1725" on="0"/>
        <pt x="540" y="1782" on="0"/>
        <pt x="540" y="1894" on="0"/>
        <pt x="553" y="1947" on="0"/>
        <pt x="571" y="1962" on="1"/>
        <pt x="602" y="1988" on="0"/>
        <pt x="706" y="1988" on="1"/>
        <pt x="774" y="1988" on="0"/>
        <pt x="795" y="1969" on="1"/>
        <pt x="829" y="1937" on="0"/>
        <pt x="829" y="1821" on="0"/>
        <pt x="813" y="1765" on="0"/>
      </contour>
    </TTGlyph>
    <TTGlyph name="Egrave" xMin="117" yMin="-64" xMax="1272" yMax="2020">
      <contour>
        <pt x="1272" y="-41" on="1"/>
        <pt x="1268" y="-64" on="0"/>
        <pt x="1251" y="-64" on="1"/>
        <pt x="1063" y="-60" on="1"/>
        <pt x="1041" y="-60" on="0"/>
        <pt x="1041" y="-34" on="1"/>
        <pt x="1039" y="27" on="1"/>
        <pt x="146" y="2" on="1"/>
        <pt x="123" y="2" on="0"/>
        <pt x="122" y="26" on="1"/>
        <pt x="128" y="210" on="1"/>
        <pt x="128" y="225" on="0"/>
        <pt x="144" y="229" on="1"/>
        <pt x="269" y="212" on="1"/>
        <pt x="261" y="1301" on="1"/>
        <pt x="135" y="1290" on="1"/>
        <pt x="117" y="1290" on="0"/>
        <pt x="117" y="1312" on="1"/>
        <pt x="128" y="1494" on="1"/>
        <pt x="130" y="1513" on="0"/>
        <pt x="152" y="1515" on="1"/>
        <pt x="1151" y="1553" on="1"/>
        <pt x="1181" y="1551" on="0"/>
        <pt x="1181" y="1526" on="1"/>
        <pt x="1161" y="1161" on="1"/>
        <pt x="1161" y="1138" on="0"/>
        <pt x="1145" y="1138" on="1"/>
        <pt x="977" y="1144" on="1"/>
        <pt x="963" y="1145" on="0"/>
        <pt x="957" y="1157" on="0"/>
        <pt x="956" y="1170" on="1"/>
        <pt x="950" y="1342" on="1"/>
        <pt x="477" y="1317" on="1"/>
        <pt x="484" y="851" on="1"/>
        <pt x="975" y="882" on="1"/>
        <pt x="1000" y="882" on="0"/>
        <pt x="1002" y="859" on="1"/>
        <pt x="1009" y="691" on="1"/>
        <pt x="1007" y="668" on="0"/>
        <pt x="988" y="668" on="1"/>
        <pt x="486" y="661" on="1"/>
        <pt x="493" y="204" on="1"/>
        <pt x="1033" y="222" on="1"/>
        <pt x="1029" y="353" on="1"/>
        <pt x="1031" y="390" on="0"/>
        <pt x="1071" y="392" on="1"/>
        <pt x="1233" y="387" on="1"/>
        <pt x="1256" y="385" on="0"/>
        <pt x="1256" y="369" on="1"/>
      </contour>
      <contour>
        <pt x="405" y="2006" on="1"/>
        <pt x="411" y="2020" on="0"/>
        <pt x="435" y="2020" on="0"/>
        <pt x="447" y="2014" on="1"/>
        <pt x="939" y="1738" on="1"/>
        <pt x="948" y="1733" on="0"/>
        <pt x="948" y="1721" on="0"/>
        <pt x="944" y="1711" on="1"/>
        <pt x="905" y="1619" on="1"/>
        <pt x="901" y="1609" on="0"/>
        <pt x="886" y="1609" on="0"/>
        <pt x="879" y="1612" on="1"/>
        <pt x="346" y="1805" on="1"/>
        <pt x="331" y="1811" on="0"/>
        <pt x="331" y="1834" on="0"/>
        <pt x="335" y="1842" on="1"/>
      </contour>
    </TTGlyph>
    <TTGlyph name="Emacron" xMin="117" yMin="-64" xMax="1272" yMax="1971">
      <contour>
        <pt x="1272" y="-41" on="1"/>
        <pt x="1268" y="-64" on="0"/>
        <pt x="1251" y="-64" on="1"/>
        <pt x="1063" y="-60" on="1"/>
        <pt x="1041" y="-60" on="0"/>
        <pt x="1041" y="-34" on="1"/>
        <pt x="1039" y="27" on="1"/>
        <pt x="146" y="2" on="1"/>
        <pt x="123" y="2" on="0"/>
        <pt x="122" y="26" on="1"/>
        <pt x="128" y="210" on="1"/>
        <pt x="128" y="225" on="0"/>
        <pt x="144" y="229" on="1"/>
        <pt x="269" y="212" on="1"/>
        <pt x="261" y="1301" on="1"/>
        <pt x="135" y="1290" on="1"/>
        <pt x="117" y="1290" on="0"/>
        <pt x="117" y="1312" on="1"/>
        <pt x="128" y="1494" on="1"/>
        <pt x="130" y="1513" on="0"/>
        <pt x="152" y="1515" on="1"/>
        <pt x="1151" y="1553" on="1"/>
        <pt x="1181" y="1551" on="0"/>
        <pt x="1181" y="1526" on="1"/>
        <pt x="1161" y="1161" on="1"/>
        <pt x="1161" y="1138" on="0"/>
        <pt x="1145" y="1138" on="1"/>
        <pt x="977" y="1144" on="1"/>
        <pt x="963" y="1145" on="0"/>
        <pt x="957" y="1157" on="0"/>
        <pt x="956" y="1170" on="1"/>
        <pt x="950" y="1342" on="1"/>
        <pt x="477" y="1317" on="1"/>
        <pt x="484" y="851" on="1"/>
        <pt x="975" y="882" on="1"/>
        <pt x="1000" y="882" on="0"/>
        <pt x="1002" y="859" on="1"/>
        <pt x="1009" y="691" on="1"/>
        <pt x="1007" y="668" on="0"/>
        <pt x="988" y="668" on="1"/>
        <pt x="486" y="661" on="1"/>
        <pt x="493" y="204" on="1"/>
        <pt x="1033" y="222" on="1"/>
        <pt x="1029" y="353" on="1"/>
        <pt x="1031" y="390" on="0"/>
        <pt x="1071" y="392" on="1"/>
        <pt x="1233" y="387" on="1"/>
        <pt x="1256" y="385" on="0"/>
        <pt x="1256" y="369" on="1"/>
      </contour>
      <contour>
        <pt x="1007" y="1971" on="1"/>
        <pt x="1023" y="1969" on="0"/>
        <pt x="1023" y="1952" on="1"/>
        <pt x="1005" y="1781" on="1"/>
        <pt x="1003" y="1769" on="0"/>
        <pt x="994" y="1761" on="0"/>
        <pt x="981" y="1761" on="1"/>
        <pt x="357" y="1767" on="1"/>
        <pt x="338" y="1767" on="0"/>
        <pt x="338" y="1791" on="1"/>
        <pt x="348" y="1942" on="1"/>
        <pt x="349" y="1961" on="0"/>
        <pt x="368" y="1961" on="1"/>
      </contour>
    </TTGlyph>
    <TTGlyph name="Eng" xMin="71" yMin="-530" xMax="1459" yMax="1534">
      <contour>
        <pt x="735" y="-530" on="1"/>
        <pt x="693" y="-530" on="0"/>
        <pt x="693" y="-491" on="1"/>
        <pt x="725" y="-154" on="1"/>
        <pt x="729" y="-131" on="0"/>
        <pt x="747" y="-128" on="1"/>
        <pt x="886" y="-114" on="1"/>
        <pt x="907" y="-114" on="0"/>
        <pt x="907" y="-137" on="1"/>
        <pt x="908" y="-285" on="1"/>
        <pt x="914" y="-286" on="0"/>
        <pt x="920" y="-286" on="1"/>
        <pt x="933" y="-286" on="1"/>
        <pt x="1028" y="-286" on="0"/>
        <pt x="1072" y="-224" on="1"/>
        <pt x="1118" y="-160" on="0"/>
        <pt x="1128" y="1" on="1"/>
        <pt x="430" y="1324" on="1"/>
        <pt x="453" y="230" on="1"/>
        <pt x="606" y="240" on="1"/>
        <pt x="623" y="240" on="0"/>
        <pt x="626" y="221" on="1"/>
        <pt x="643" y="23" on="1"/>
        <pt x="641" y="3" on="0"/>
        <pt x="619" y="3" on="1"/>
        <pt x="135" y="6" on="1"/>
        <pt x="121" y="6" on="0"/>
        <pt x="117" y="30" on="1"/>
        <pt x="99" y="197" on="1"/>
        <pt x="101" y="216" on="0"/>
        <pt x="115" y="216" on="1"/>
        <pt x="272" y="220" on="1"/>
        <pt x="272" y="1301" on="1"/>
        <pt x="89" y="1293" on="1"/>
        <pt x="78" y="1294" on="0"/>
        <pt x="73" y="1303" on="0"/>
        <pt x="71" y="1315" on="1"/>
        <pt x="82" y="1491" on="1"/>
        <pt x="84" y="1510" on="0"/>
        <pt x="106" y="1512" on="1"/>
        <pt x="546" y="1534" on="1"/>
        <pt x="571" y="1533" on="0"/>
        <pt x="583" y="1506" on="1"/>
        <pt x="1146" y="397" on="1"/>
        <pt x="1124" y="1311" on="1"/>
        <pt x="969" y="1316" on="1"/>
        <pt x="958" y="1316" on="0"/>
        <pt x="952" y="1326" on="0"/>
        <pt x="951" y="1338" on="1"/>
        <pt x="957" y="1504" on="1"/>
        <pt x="959" y="1525" on="0"/>
        <pt x="981" y="1525" on="1"/>
        <pt x="1428" y="1527" on="1"/>
        <pt x="1439" y="1526" on="0"/>
        <pt x="1445" y="1517" on="0"/>
        <pt x="1446" y="1504" on="1"/>
        <pt x="1459" y="1325" on="1"/>
        <pt x="1459" y="1303" on="0"/>
        <pt x="1436" y="1303" on="1"/>
        <pt x="1309" y="1306" on="1"/>
        <pt x="1307" y="30" on="1"/>
        <pt x="1307" y="-209" on="0"/>
        <pt x="1236" y="-325" on="1"/>
        <pt x="1153" y="-459" on="0"/>
        <pt x="959" y="-459" on="1"/>
        <pt x="934" y="-459" on="0"/>
        <pt x="910" y="-457" on="1"/>
        <pt x="911" y="-497" on="1"/>
        <pt x="911" y="-513" on="0"/>
        <pt x="888" y="-515" on="1"/>
      </contour>
    </TTGlyph>
    <TTGlyph name="Eogonek" xMin="117" yMin="-450" xMax="1272" yMax="1553">
      <contour>
        <pt x="1272" y="-41" on="1"/>
        <pt x="1268" y="-64" on="0"/>
        <pt x="1251" y="-64" on="1"/>
        <pt x="1063" y="-60" on="1"/>
        <pt x="1041" y="-60" on="0"/>
        <pt x="1041" y="-34" on="1"/>
        <pt x="1040" y="2" on="1"/>
        <pt x="951" y="-113" on="0"/>
        <pt x="951" y="-245" on="0"/>
        <pt x="1047" y="-245" on="1"/>
        <pt x="1105" y="-245" on="0"/>
        <pt x="1216" y="-205" on="0"/>
        <pt x="1224" y="-205" on="1"/>
        <pt x="1238" y="-205" on="0"/>
        <pt x="1240" y="-222" on="1"/>
        <pt x="1261" y="-388" on="1"/>
        <pt x="1261" y="-402" on="0"/>
        <pt x="1239" y="-410" on="1"/>
        <pt x="1112" y="-450" on="0"/>
        <pt x="988" y="-450" on="1"/>
        <pt x="773" y="-450" on="0"/>
        <pt x="773" y="-271" on="1"/>
        <pt x="773" y="-143" on="0"/>
        <pt x="883" y="22" on="1"/>
        <pt x="146" y="2" on="1"/>
        <pt x="123" y="2" on="0"/>
        <pt x="122" y="26" on="1"/>
        <pt x="128" y="210" on="1"/>
        <pt x="128" y="225" on="0"/>
        <pt x="144" y="229" on="1"/>
        <pt x="269" y="212" on="1"/>
        <pt x="261" y="1301" on="1"/>
        <pt x="135" y="1290" on="1"/>
        <pt x="117" y="1290" on="0"/>
        <pt x="117" y="1312" on="1"/>
        <pt x="128" y="1494" on="1"/>
        <pt x="130" y="1513" on="0"/>
        <pt x="152" y="1515" on="1"/>
        <pt x="1151" y="1553" on="1"/>
        <pt x="1181" y="1551" on="0"/>
        <pt x="1181" y="1526" on="1"/>
        <pt x="1161" y="1161" on="1"/>
        <pt x="1161" y="1138" on="0"/>
        <pt x="1145" y="1138" on="1"/>
        <pt x="977" y="1144" on="1"/>
        <pt x="963" y="1145" on="0"/>
        <pt x="957" y="1157" on="0"/>
        <pt x="956" y="1170" on="1"/>
        <pt x="950" y="1342" on="1"/>
        <pt x="477" y="1317" on="1"/>
        <pt x="484" y="851" on="1"/>
        <pt x="975" y="882" on="1"/>
        <pt x="1000" y="882" on="0"/>
        <pt x="1002" y="859" on="1"/>
        <pt x="1009" y="691" on="1"/>
        <pt x="1007" y="668" on="0"/>
        <pt x="988" y="668" on="1"/>
        <pt x="486" y="661" on="1"/>
        <pt x="493" y="204" on="1"/>
        <pt x="1033" y="222" on="1"/>
        <pt x="1029" y="353" on="1"/>
        <pt x="1031" y="390" on="0"/>
        <pt x="1071" y="392" on="1"/>
        <pt x="1233" y="387" on="1"/>
        <pt x="1256" y="385" on="0"/>
        <pt x="1256" y="369" on="1"/>
      </contour>
    </TTGlyph>
    <TTGlyph name="Eth" xMin="72" yMin="-19" xMax="1259" yMax="1540">
      <contour>
        <pt x="246" y="1313" on="1"/>
        <pt x="185" y="1309" on="0"/>
        <pt x="105" y="1301" on="1"/>
        <pt x="94" y="1301" on="0"/>
        <pt x="88" y="1311" on="0"/>
        <pt x="87" y="1323" on="1"/>
        <pt x="73" y="1509" on="1"/>
        <pt x="74" y="1521" on="0"/>
        <pt x="85" y="1528" on="0"/>
        <pt x="97" y="1530" on="1"/>
        <pt x="196" y="1532" on="0"/>
        <pt x="343" y="1536" on="0"/>
        <pt x="452" y="1538" on="0"/>
        <pt x="529" y="1539" on="0"/>
        <pt x="586" y="1540" on="0"/>
        <pt x="608" y="1540" on="1"/>
        <pt x="650" y="1540" on="1"/>
        <pt x="948" y="1540" on="0"/>
        <pt x="1092" y="1384" on="1"/>
        <pt x="1259" y="1204" on="0"/>
        <pt x="1259" y="786" on="1"/>
        <pt x="1259" y="391" on="0"/>
        <pt x="1090" y="180" on="1"/>
        <pt x="929" y="-19" on="0"/>
        <pt x="645" y="-19" on="1"/>
        <pt x="347" y="-19" on="0"/>
        <pt x="101" y="6" on="1"/>
        <pt x="84" y="7" on="0"/>
        <pt x="83" y="30" on="1"/>
        <pt x="95" y="207" on="1"/>
        <pt x="97" y="223" on="0"/>
        <pt x="111" y="226" on="1"/>
        <pt x="220" y="218" on="1"/>
        <pt x="229" y="602" on="1"/>
        <pt x="98" y="596" on="1"/>
        <pt x="74" y="598" on="0"/>
        <pt x="74" y="615" on="1"/>
        <pt x="72" y="746" on="1"/>
        <pt x="72" y="766" on="0"/>
        <pt x="88" y="766" on="1"/>
        <pt x="233" y="768" on="1"/>
      </contour>
      <contour>
        <pt x="453" y="205" on="1"/>
        <pt x="537" y="199" on="0"/>
        <pt x="575" y="199" on="1"/>
        <pt x="639" y="199" on="1"/>
        <pt x="842" y="199" on="0"/>
        <pt x="1033" y="481" on="0"/>
        <pt x="1033" y="761" on="1"/>
        <pt x="1033" y="1225" on="0"/>
        <pt x="810" y="1309" on="1"/>
        <pt x="738" y="1336" on="0"/>
        <pt x="680" y="1336" on="1"/>
        <pt x="580" y="1336" on="0"/>
        <pt x="465" y="1329" on="1"/>
        <pt x="459" y="772" on="1"/>
        <pt x="469" y="772" on="1"/>
        <pt x="775" y="794" on="1"/>
        <pt x="791" y="794" on="0"/>
        <pt x="791" y="776" on="1"/>
        <pt x="794" y="642" on="1"/>
        <pt x="794" y="639" on="1"/>
        <pt x="794" y="621" on="0"/>
        <pt x="781" y="620" on="1"/>
        <pt x="457" y="614" on="1"/>
      </contour>
    </TTGlyph>
    <TTGlyph name="Euro" xMin="91" yMin="-44" xMax="1290" yMax="1550">
      <contour>
        <pt x="860" y="842" on="1"/>
        <pt x="860" y="818" on="0"/>
        <pt x="846" y="818" on="1"/>
        <pt x="474" y="828" on="1"/>
        <pt x="474" y="631" on="1"/>
        <pt x="788" y="638" on="1"/>
        <pt x="801" y="637" on="0"/>
        <pt x="811" y="630" on="0"/>
        <pt x="812" y="618" on="1"/>
        <pt x="820" y="487" on="1"/>
        <pt x="820" y="470" on="0"/>
        <pt x="804" y="468" on="1"/>
        <pt x="481" y="472" on="1"/>
        <pt x="493" y="302" on="0"/>
        <pt x="549" y="234" on="1"/>
        <pt x="609" y="160" on="0"/>
        <pt x="749" y="160" on="1"/>
        <pt x="861" y="160" on="0"/>
        <pt x="1007" y="192" on="1"/>
        <pt x="1016" y="370" on="1"/>
        <pt x="1017" y="382" on="0"/>
        <pt x="1027" y="390" on="0"/>
        <pt x="1040" y="392" on="1"/>
        <pt x="1216" y="400" on="1"/>
        <pt x="1233" y="400" on="0"/>
        <pt x="1237" y="377" on="1"/>
        <pt x="1227" y="-15" on="1"/>
        <pt x="1227" y="-33" on="0"/>
        <pt x="1204" y="-33" on="1"/>
        <pt x="1018" y="11" on="1"/>
        <pt x="883" y="-44" on="0"/>
        <pt x="590" y="-44" on="0"/>
        <pt x="436" y="26" on="0"/>
        <pt x="386" y="92" on="1"/>
        <pt x="296" y="213" on="0"/>
        <pt x="270" y="471" on="1"/>
        <pt x="107" y="468" on="1"/>
        <pt x="91" y="468" on="0"/>
        <pt x="91" y="487" on="1"/>
        <pt x="91" y="608" on="1"/>
        <pt x="91" y="632" on="0"/>
        <pt x="105" y="632" on="1"/>
        <pt x="260" y="631" on="1"/>
        <pt x="258" y="666" on="0"/>
        <pt x="258" y="704" on="1"/>
        <pt x="258" y="819" on="1"/>
        <pt x="153" y="812" on="1"/>
        <pt x="140" y="813" on="0"/>
        <pt x="130" y="820" on="0"/>
        <pt x="129" y="832" on="1"/>
        <pt x="121" y="963" on="1"/>
        <pt x="121" y="980" on="0"/>
        <pt x="137" y="982" on="1"/>
        <pt x="267" y="982" on="1"/>
        <pt x="308" y="1403" on="0"/>
        <pt x="558" y="1502" on="1"/>
        <pt x="641" y="1536" on="0"/>
        <pt x="914" y="1536" on="0"/>
        <pt x="1080" y="1476" on="1"/>
        <pt x="1083" y="1528" on="1"/>
        <pt x="1084" y="1549" on="0"/>
        <pt x="1103" y="1550" on="1"/>
        <pt x="1248" y="1540" on="1"/>
        <pt x="1288" y="1536" on="0"/>
        <pt x="1290" y="1501" on="1"/>
        <pt x="1268" y="1055" on="1"/>
        <pt x="1267" y="1032" on="0"/>
        <pt x="1246" y="1029" on="1"/>
        <pt x="1078" y="1045" on="1"/>
        <pt x="1061" y="1047" on="0"/>
        <pt x="1057" y="1068" on="1"/>
        <pt x="1070" y="1310" on="1"/>
        <pt x="908" y="1337" on="0"/>
        <pt x="726" y="1337" on="0"/>
        <pt x="614" y="1298" on="0"/>
        <pt x="576" y="1256" on="1"/>
        <pt x="503" y="1176" on="0"/>
        <pt x="483" y="982" on="1"/>
        <pt x="844" y="982" on="1"/>
        <pt x="860" y="982" on="0"/>
        <pt x="860" y="963" on="1"/>
      </contour>
    </TTGlyph>
    <TTGlyph name="F" xMin="106" yMin="-5" xMax="1125" yMax="1614">
      <contour>
        <pt x="123" y="1311" on="1"/>
        <pt x="109" y="1314" on="0"/>
        <pt x="107" y="1330" on="1"/>
        <pt x="121" y="1514" on="1"/>
        <pt x="122" y="1538" on="0"/>
        <pt x="139" y="1538" on="1"/>
        <pt x="871" y="1521" on="1"/>
        <pt x="870" y="1574" on="1"/>
        <pt x="870" y="1597" on="0"/>
        <pt x="892" y="1600" on="1"/>
        <pt x="1050" y="1614" on="1"/>
        <pt x="1067" y="1614" on="0"/>
        <pt x="1071" y="1591" on="1"/>
        <pt x="1125" y="1171" on="1"/>
        <pt x="1125" y="1155" on="0"/>
        <pt x="1102" y="1153" on="1"/>
        <pt x="920" y="1138" on="1"/>
        <pt x="880" y="1138" on="0"/>
        <pt x="878" y="1177" on="1"/>
        <pt x="875" y="1315" on="1"/>
        <pt x="482" y="1326" on="1"/>
        <pt x="475" y="850" on="1"/>
        <pt x="991" y="852" on="1"/>
        <pt x="1009" y="852" on="0"/>
        <pt x="1009" y="833" on="1"/>
        <pt x="1002" y="671" on="1"/>
        <pt x="1000" y="648" on="0"/>
        <pt x="975" y="648" on="1"/>
        <pt x="472" y="661" on="1"/>
        <pt x="466" y="213" on="1"/>
        <pt x="724" y="228" on="1"/>
        <pt x="745" y="228" on="0"/>
        <pt x="747" y="206" on="1"/>
        <pt x="758" y="30" on="1"/>
        <pt x="757" y="17" on="0"/>
        <pt x="751" y="7" on="0"/>
        <pt x="740" y="7" on="1"/>
        <pt x="141" y="-5" on="1"/>
        <pt x="129" y="-3" on="0"/>
        <pt x="118" y="4" on="0"/>
        <pt x="117" y="16" on="1"/>
        <pt x="106" y="198" on="1"/>
        <pt x="106" y="218" on="0"/>
        <pt x="124" y="220" on="1"/>
        <pt x="250" y="214" on="1"/>
        <pt x="258" y="1322" on="1"/>
      </contour>
    </TTGlyph>
    <TTGlyph name="G" xMin="96" yMin="-22" xMax="1262" yMax="1604">
      <contour>
        <pt x="729" y="596" on="1"/>
        <pt x="706" y="600" on="0"/>
        <pt x="706" y="617" on="1"/>
        <pt x="710" y="795" on="1"/>
        <pt x="710" y="815" on="0"/>
        <pt x="736" y="817" on="1"/>
        <pt x="1223" y="849" on="1"/>
        <pt x="1260" y="847" on="0"/>
        <pt x="1262" y="807" on="1"/>
        <pt x="1257" y="635" on="1"/>
        <pt x="1257" y="624" on="0"/>
        <pt x="1245" y="612" on="0"/>
        <pt x="1239" y="612" on="1"/>
        <pt x="1187" y="610" on="1"/>
        <pt x="1205" y="15" on="1"/>
        <pt x="1203" y="-13" on="0"/>
        <pt x="1179" y="-13" on="1"/>
        <pt x="1123" y="-13" on="0"/>
        <pt x="990" y="56" on="1"/>
        <pt x="855" y="-22" on="0"/>
        <pt x="542" y="-22" on="0"/>
        <pt x="322" y="71" on="0"/>
        <pt x="248" y="170" on="1"/>
        <pt x="96" y="370" on="0"/>
        <pt x="96" y="790" on="1"/>
        <pt x="96" y="1376" on="0"/>
        <pt x="426" y="1500" on="1"/>
        <pt x="531" y="1540" on="0"/>
        <pt x="661" y="1540" on="1"/>
        <pt x="847" y="1540" on="0"/>
        <pt x="966" y="1443" on="1"/>
        <pt x="986" y="1564" on="1"/>
        <pt x="989" y="1589" on="0"/>
        <pt x="1008" y="1590" on="1"/>
        <pt x="1165" y="1604" on="1"/>
        <pt x="1189" y="1604" on="0"/>
        <pt x="1189" y="1581" on="1"/>
        <pt x="1200" y="1215" on="1"/>
        <pt x="1200" y="1196" on="0"/>
        <pt x="1180" y="1193" on="1"/>
        <pt x="990" y="1167" on="1"/>
        <pt x="929" y="1248" on="0"/>
        <pt x="882" y="1277" on="1"/>
        <pt x="798" y="1329" on="0"/>
        <pt x="620" y="1329" on="0"/>
        <pt x="473" y="1279" on="0"/>
        <pt x="421" y="1217" on="1"/>
        <pt x="312" y="1087" on="0"/>
        <pt x="312" y="786" on="1"/>
        <pt x="312" y="301" on="0"/>
        <pt x="556" y="219" on="1"/>
        <pt x="633" y="193" on="0"/>
        <pt x="855" y="193" on="0"/>
        <pt x="977" y="237" on="1"/>
        <pt x="972" y="603" on="1"/>
      </contour>
    </TTGlyph>
    <TTGlyph name="Gbreve" xMin="96" yMin="-22" xMax="1262" yMax="2020">
      <contour>
        <pt x="729" y="596" on="1"/>
        <pt x="706" y="600" on="0"/>
        <pt x="706" y="617" on="1"/>
        <pt x="710" y="795" on="1"/>
        <pt x="710" y="815" on="0"/>
        <pt x="736" y="817" on="1"/>
        <pt x="1223" y="849" on="1"/>
        <pt x="1260" y="847" on="0"/>
        <pt x="1262" y="807" on="1"/>
        <pt x="1257" y="635" on="1"/>
        <pt x="1257" y="624" on="0"/>
        <pt x="1245" y="612" on="0"/>
        <pt x="1239" y="612" on="1"/>
        <pt x="1187" y="610" on="1"/>
        <pt x="1205" y="15" on="1"/>
        <pt x="1203" y="-13" on="0"/>
        <pt x="1179" y="-13" on="1"/>
        <pt x="1123" y="-13" on="0"/>
        <pt x="990" y="56" on="1"/>
        <pt x="855" y="-22" on="0"/>
        <pt x="542" y="-22" on="0"/>
        <pt x="322" y="71" on="0"/>
        <pt x="248" y="170" on="1"/>
        <pt x="96" y="370" on="0"/>
        <pt x="96" y="790" on="1"/>
        <pt x="96" y="1376" on="0"/>
        <pt x="426" y="1500" on="1"/>
        <pt x="531" y="1540" on="0"/>
        <pt x="661" y="1540" on="1"/>
        <pt x="847" y="1540" on="0"/>
        <pt x="966" y="1443" on="1"/>
        <pt x="986" y="1564" on="1"/>
        <pt x="989" y="1589" on="0"/>
        <pt x="1008" y="1590" on="1"/>
        <pt x="1165" y="1604" on="1"/>
        <pt x="1189" y="1604" on="0"/>
        <pt x="1189" y="1581" on="1"/>
        <pt x="1200" y="1215" on="1"/>
        <pt x="1200" y="1196" on="0"/>
        <pt x="1180" y="1193" on="1"/>
        <pt x="990" y="1167" on="1"/>
        <pt x="929" y="1248" on="0"/>
        <pt x="882" y="1277" on="1"/>
        <pt x="798" y="1329" on="0"/>
        <pt x="620" y="1329" on="0"/>
        <pt x="473" y="1279" on="0"/>
        <pt x="421" y="1217" on="1"/>
        <pt x="312" y="1087" on="0"/>
        <pt x="312" y="786" on="1"/>
        <pt x="312" y="301" on="0"/>
        <pt x="556" y="219" on="1"/>
        <pt x="633" y="193" on="0"/>
        <pt x="855" y="193" on="0"/>
        <pt x="977" y="237" on="1"/>
        <pt x="972" y="603" on="1"/>
      </contour>
      <contour>
        <pt x="989" y="2006" on="1"/>
        <pt x="1013" y="2006" on="0"/>
        <pt x="1013" y="1983" on="1"/>
        <pt x="1013" y="1841" on="0"/>
        <pt x="918" y="1743" on="1"/>
        <pt x="817" y="1638" on="0"/>
        <pt x="650" y="1638" on="1"/>
        <pt x="479" y="1638" on="0"/>
        <pt x="369" y="1729" on="1"/>
        <pt x="256" y="1823" on="0"/>
        <pt x="256" y="1984" on="1"/>
        <pt x="256" y="2007" on="0"/>
        <pt x="280" y="2007" on="1"/>
        <pt x="423" y="2020" on="1"/>
        <pt x="442" y="2020" on="0"/>
        <pt x="447" y="1956" on="0"/>
        <pt x="480" y="1892" on="0"/>
        <pt x="506" y="1869" on="1"/>
        <pt x="562" y="1821" on="0"/>
        <pt x="643" y="1821" on="1"/>
        <pt x="795" y="1821" on="0"/>
        <pt x="825" y="1986" on="1"/>
        <pt x="829" y="2010" on="0"/>
        <pt x="846" y="2010" on="1"/>
      </contour>
    </TTGlyph>
    <TTGlyph name="Gcircumflex" xMin="96" yMin="-22" xMax="1262" yMax="2020">
      <contour>
        <pt x="729" y="596" on="1"/>
        <pt x="706" y="600" on="0"/>
        <pt x="706" y="617" on="1"/>
        <pt x="710" y="795" on="1"/>
        <pt x="710" y="815" on="0"/>
        <pt x="736" y="817" on="1"/>
        <pt x="1223" y="849" on="1"/>
        <pt x="1260" y="847" on="0"/>
        <pt x="1262" y="807" on="1"/>
        <pt x="1257" y="635" on="1"/>
        <pt x="1257" y="624" on="0"/>
        <pt x="1245" y="612" on="0"/>
        <pt x="1239" y="612" on="1"/>
        <pt x="1187" y="610" on="1"/>
        <pt x="1205" y="15" on="1"/>
        <pt x="1203" y="-13" on="0"/>
        <pt x="1179" y="-13" on="1"/>
        <pt x="1123" y="-13" on="0"/>
        <pt x="990" y="56" on="1"/>
        <pt x="855" y="-22" on="0"/>
        <pt x="542" y="-22" on="0"/>
        <pt x="322" y="71" on="0"/>
        <pt x="248" y="170" on="1"/>
        <pt x="96" y="370" on="0"/>
        <pt x="96" y="790" on="1"/>
        <pt x="96" y="1376" on="0"/>
        <pt x="426" y="1500" on="1"/>
        <pt x="531" y="1540" on="0"/>
        <pt x="661" y="1540" on="1"/>
        <pt x="847" y="1540" on="0"/>
        <pt x="966" y="1443" on="1"/>
        <pt x="986" y="1564" on="1"/>
        <pt x="989" y="1589" on="0"/>
        <pt x="1008" y="1590" on="1"/>
        <pt x="1165" y="1604" on="1"/>
        <pt x="1189" y="1604" on="0"/>
        <pt x="1189" y="1581" on="1"/>
        <pt x="1200" y="1215" on="1"/>
        <pt x="1200" y="1196" on="0"/>
        <pt x="1180" y="1193" on="1"/>
        <pt x="990" y="1167" on="1"/>
        <pt x="929" y="1248" on="0"/>
        <pt x="882" y="1277" on="1"/>
        <pt x="798" y="1329" on="0"/>
        <pt x="620" y="1329" on="0"/>
        <pt x="473" y="1279" on="0"/>
        <pt x="421" y="1217" on="1"/>
        <pt x="312" y="1087" on="0"/>
        <pt x="312" y="786" on="1"/>
        <pt x="312" y="301" on="0"/>
        <pt x="556" y="219" on="1"/>
        <pt x="633" y="193" on="0"/>
        <pt x="855" y="193" on="0"/>
        <pt x="977" y="237" on="1"/>
        <pt x="972" y="603" on="1"/>
      </contour>
      <contour>
        <pt x="546" y="1985" on="1"/>
        <pt x="575" y="2008" on="0"/>
        <pt x="591" y="2010" on="1"/>
        <pt x="686" y="2020" on="1"/>
        <pt x="702" y="2020" on="0"/>
        <pt x="732" y="1994" on="1"/>
        <pt x="1034" y="1743" on="1"/>
        <pt x="1041" y="1736" on="0"/>
        <pt x="1041" y="1721" on="0"/>
        <pt x="1035" y="1714" on="1"/>
        <pt x="974" y="1641" on="1"/>
        <pt x="969" y="1635" on="0"/>
        <pt x="958" y="1635" on="0"/>
        <pt x="950" y="1639" on="1"/>
        <pt x="630" y="1798" on="1"/>
        <pt x="333" y="1644" on="1"/>
        <pt x="329" y="1642" on="0"/>
        <pt x="317" y="1642" on="0"/>
        <pt x="311" y="1650" on="1"/>
        <pt x="249" y="1726" on="1"/>
        <pt x="243" y="1734" on="0"/>
        <pt x="243" y="1739" on="1"/>
        <pt x="243" y="1744" on="0"/>
        <pt x="248" y="1748" on="1"/>
      </contour>
    </TTGlyph>
    <TTGlyph name="Gcommaaccent" xMin="96" yMin="-540" xMax="1262" yMax="1604">
      <contour>
        <pt x="729" y="596" on="1"/>
        <pt x="706" y="600" on="0"/>
        <pt x="706" y="617" on="1"/>
        <pt x="710" y="795" on="1"/>
        <pt x="710" y="815" on="0"/>
        <pt x="736" y="817" on="1"/>
        <pt x="1223" y="849" on="1"/>
        <pt x="1260" y="847" on="0"/>
        <pt x="1262" y="807" on="1"/>
        <pt x="1257" y="635" on="1"/>
        <pt x="1257" y="624" on="0"/>
        <pt x="1245" y="612" on="0"/>
        <pt x="1239" y="612" on="1"/>
        <pt x="1187" y="610" on="1"/>
        <pt x="1205" y="15" on="1"/>
        <pt x="1203" y="-13" on="0"/>
        <pt x="1179" y="-13" on="1"/>
        <pt x="1123" y="-13" on="0"/>
        <pt x="990" y="56" on="1"/>
        <pt x="855" y="-22" on="0"/>
        <pt x="542" y="-22" on="0"/>
        <pt x="322" y="71" on="0"/>
        <pt x="248" y="170" on="1"/>
        <pt x="96" y="370" on="0"/>
        <pt x="96" y="790" on="1"/>
        <pt x="96" y="1376" on="0"/>
        <pt x="426" y="1500" on="1"/>
        <pt x="531" y="1540" on="0"/>
        <pt x="661" y="1540" on="1"/>
        <pt x="847" y="1540" on="0"/>
        <pt x="966" y="1443" on="1"/>
        <pt x="986" y="1564" on="1"/>
        <pt x="989" y="1589" on="0"/>
        <pt x="1008" y="1590" on="1"/>
        <pt x="1165" y="1604" on="1"/>
        <pt x="1189" y="1604" on="0"/>
        <pt x="1189" y="1581" on="1"/>
        <pt x="1200" y="1215" on="1"/>
        <pt x="1200" y="1196" on="0"/>
        <pt x="1180" y="1193" on="1"/>
        <pt x="990" y="1167" on="1"/>
        <pt x="929" y="1248" on="0"/>
        <pt x="882" y="1277" on="1"/>
        <pt x="798" y="1329" on="0"/>
        <pt x="620" y="1329" on="0"/>
        <pt x="473" y="1279" on="0"/>
        <pt x="421" y="1217" on="1"/>
        <pt x="312" y="1087" on="0"/>
        <pt x="312" y="786" on="1"/>
        <pt x="312" y="301" on="0"/>
        <pt x="556" y="219" on="1"/>
        <pt x="633" y="193" on="0"/>
        <pt x="855" y="193" on="0"/>
        <pt x="977" y="237" on="1"/>
        <pt x="972" y="603" on="1"/>
      </contour>
      <contour>
        <pt x="687" y="-540" on="1"/>
        <pt x="592" y="-504" on="1"/>
        <pt x="578" y="-499" on="0"/>
        <pt x="578" y="-485" on="0"/>
        <pt x="588" y="-464" on="0"/>
        <pt x="604" y="-426" on="0"/>
        <pt x="611" y="-407" on="1"/>
        <pt x="627" y="-364" on="0"/>
        <pt x="627" y="-344" on="1"/>
        <pt x="627" y="-316" on="0"/>
        <pt x="592" y="-291" on="1"/>
        <pt x="556" y="-263" on="0"/>
        <pt x="556" y="-219" on="0"/>
        <pt x="584" y="-168" on="0"/>
        <pt x="606" y="-148" on="1"/>
        <pt x="654" y="-101" on="0"/>
        <pt x="740" y="-101" on="0"/>
        <pt x="789" y="-126" on="0"/>
        <pt x="804" y="-146" on="1"/>
        <pt x="832" y="-185" on="0"/>
        <pt x="832" y="-286" on="0"/>
        <pt x="810" y="-361" on="0"/>
        <pt x="792" y="-396" on="1"/>
        <pt x="765" y="-452" on="0"/>
        <pt x="699" y="-540" on="0"/>
      </contour>
    </TTGlyph>
    <TTGlyph name="Gdotaccent" xMin="96" yMin="-22" xMax="1262" yMax="1988">
      <contour>
        <pt x="729" y="596" on="1"/>
        <pt x="706" y="600" on="0"/>
        <pt x="706" y="617" on="1"/>
        <pt x="710" y="795" on="1"/>
        <pt x="710" y="815" on="0"/>
        <pt x="736" y="817" on="1"/>
        <pt x="1223" y="849" on="1"/>
        <pt x="1260" y="847" on="0"/>
        <pt x="1262" y="807" on="1"/>
        <pt x="1257" y="635" on="1"/>
        <pt x="1257" y="624" on="0"/>
        <pt x="1245" y="612" on="0"/>
        <pt x="1239" y="612" on="1"/>
        <pt x="1187" y="610" on="1"/>
        <pt x="1205" y="15" on="1"/>
        <pt x="1203" y="-13" on="0"/>
        <pt x="1179" y="-13" on="1"/>
        <pt x="1123" y="-13" on="0"/>
        <pt x="990" y="56" on="1"/>
        <pt x="855" y="-22" on="0"/>
        <pt x="542" y="-22" on="0"/>
        <pt x="322" y="71" on="0"/>
        <pt x="248" y="170" on="1"/>
        <pt x="96" y="370" on="0"/>
        <pt x="96" y="790" on="1"/>
        <pt x="96" y="1376" on="0"/>
        <pt x="426" y="1500" on="1"/>
        <pt x="531" y="1540" on="0"/>
        <pt x="661" y="1540" on="1"/>
        <pt x="847" y="1540" on="0"/>
        <pt x="966" y="1443" on="1"/>
        <pt x="986" y="1564" on="1"/>
        <pt x="989" y="1589" on="0"/>
        <pt x="1008" y="1590" on="1"/>
        <pt x="1165" y="1604" on="1"/>
        <pt x="1189" y="1604" on="0"/>
        <pt x="1189" y="1581" on="1"/>
        <pt x="1200" y="1215" on="1"/>
        <pt x="1200" y="1196" on="0"/>
        <pt x="1180" y="1193" on="1"/>
        <pt x="990" y="1167" on="1"/>
        <pt x="929" y="1248" on="0"/>
        <pt x="882" y="1277" on="1"/>
        <pt x="798" y="1329" on="0"/>
        <pt x="620" y="1329" on="0"/>
        <pt x="473" y="1279" on="0"/>
        <pt x="421" y="1217" on="1"/>
        <pt x="312" y="1087" on="0"/>
        <pt x="312" y="786" on="1"/>
        <pt x="312" y="301" on="0"/>
        <pt x="556" y="219" on="1"/>
        <pt x="633" y="193" on="0"/>
        <pt x="855" y="193" on="0"/>
        <pt x="977" y="237" on="1"/>
        <pt x="972" y="603" on="1"/>
      </contour>
      <contour>
        <pt x="724" y="1735" on="0"/>
        <pt x="657" y="1725" on="0"/>
        <pt x="542" y="1725" on="0"/>
        <pt x="490" y="1782" on="0"/>
        <pt x="490" y="1894" on="0"/>
        <pt x="503" y="1947" on="0"/>
        <pt x="521" y="1962" on="1"/>
        <pt x="552" y="1988" on="0"/>
        <pt x="656" y="1988" on="1"/>
        <pt x="724" y="1988" on="0"/>
        <pt x="745" y="1969" on="1"/>
        <pt x="779" y="1937" on="0"/>
        <pt x="779" y="1821" on="0"/>
        <pt x="763" y="1765" on="0"/>
      </contour>
    </TTGlyph>
    <TTGlyph name="H" xMin="126" yMin="-7" xMax="1440" yMax="1537">
      <contour>
        <pt x="664" y="240" on="1"/>
        <pt x="680" y="240" on="0"/>
        <pt x="680" y="221" on="1"/>
        <pt x="667" y="33" on="1"/>
        <pt x="665" y="13" on="0"/>
        <pt x="643" y="13" on="1"/>
        <pt x="179" y="6" on="1"/>
        <pt x="162" y="6" on="0"/>
        <pt x="161" y="30" on="1"/>
        <pt x="163" y="207" on="1"/>
        <pt x="163" y="222" on="0"/>
        <pt x="179" y="226" on="1"/>
        <pt x="286" y="223" on="1"/>
        <pt x="286" y="1304" on="1"/>
        <pt x="153" y="1303" on="1"/>
        <pt x="142" y="1303" on="0"/>
        <pt x="136" y="1313" on="0"/>
        <pt x="135" y="1325" on="1"/>
        <pt x="126" y="1501" on="1"/>
        <pt x="127" y="1513" on="0"/>
        <pt x="138" y="1520" on="0"/>
        <pt x="150" y="1522" on="1"/>
        <pt x="649" y="1514" on="1"/>
        <pt x="667" y="1512" on="0"/>
        <pt x="667" y="1491" on="1"/>
        <pt x="663" y="1315" on="1"/>
        <pt x="663" y="1293" on="0"/>
        <pt x="640" y="1293" on="1"/>
        <pt x="509" y="1300" on="1"/>
        <pt x="508" y="858" on="1"/>
        <pt x="1050" y="865" on="1"/>
        <pt x="1050" y="1322" on="1"/>
        <pt x="913" y="1326" on="1"/>
        <pt x="902" y="1326" on="0"/>
        <pt x="896" y="1336" on="0"/>
        <pt x="895" y="1348" on="1"/>
        <pt x="901" y="1514" on="1"/>
        <pt x="903" y="1535" on="0"/>
        <pt x="925" y="1535" on="1"/>
        <pt x="1392" y="1537" on="1"/>
        <pt x="1403" y="1536" on="0"/>
        <pt x="1409" y="1527" on="0"/>
        <pt x="1410" y="1514" on="1"/>
        <pt x="1423" y="1335" on="1"/>
        <pt x="1423" y="1313" on="0"/>
        <pt x="1400" y="1313" on="1"/>
        <pt x="1273" y="1316" on="1"/>
        <pt x="1270" y="205" on="1"/>
        <pt x="1424" y="210" on="1"/>
        <pt x="1440" y="210" on="0"/>
        <pt x="1440" y="191" on="1"/>
        <pt x="1427" y="13" on="1"/>
        <pt x="1425" y="-7" on="0"/>
        <pt x="1403" y="-7" on="1"/>
        <pt x="929" y="6" on="1"/>
        <pt x="912" y="6" on="0"/>
        <pt x="911" y="30" on="1"/>
        <pt x="913" y="197" on="1"/>
        <pt x="913" y="212" on="0"/>
        <pt x="929" y="216" on="1"/>
        <pt x="1050" y="207" on="1"/>
        <pt x="1050" y="663" on="1"/>
        <pt x="507" y="659" on="1"/>
        <pt x="506" y="229" on="1"/>
      </contour>
    </TTGlyph>
    <TTGlyph name="Hbar" xMin="82" yMin="-7" xMax="1463" yMax="1537">
      <contour>
        <pt x="664" y="240" on="1"/>
        <pt x="680" y="240" on="0"/>
        <pt x="680" y="221" on="1"/>
        <pt x="667" y="33" on="1"/>
        <pt x="665" y="13" on="0"/>
        <pt x="643" y="13" on="1"/>
        <pt x="179" y="6" on="1"/>
        <pt x="162" y="6" on="0"/>
        <pt x="161" y="30" on="1"/>
        <pt x="163" y="207" on="1"/>
        <pt x="163" y="222" on="0"/>
        <pt x="179" y="226" on="1"/>
        <pt x="286" y="223" on="1"/>
        <pt x="286" y="1010" on="1"/>
        <pt x="103" y="1001" on="1"/>
        <pt x="82" y="1003" on="0"/>
        <pt x="82" y="1021" on="1"/>
        <pt x="94" y="1152" on="1"/>
        <pt x="95" y="1170" on="0"/>
        <pt x="112" y="1171" on="1"/>
        <pt x="286" y="1163" on="1"/>
        <pt x="286" y="1304" on="1"/>
        <pt x="153" y="1303" on="1"/>
        <pt x="142" y="1303" on="0"/>
        <pt x="136" y="1313" on="0"/>
        <pt x="135" y="1325" on="1"/>
        <pt x="126" y="1501" on="1"/>
        <pt x="127" y="1513" on="0"/>
        <pt x="138" y="1520" on="0"/>
        <pt x="150" y="1522" on="1"/>
        <pt x="649" y="1514" on="1"/>
        <pt x="667" y="1512" on="0"/>
        <pt x="667" y="1491" on="1"/>
        <pt x="663" y="1315" on="1"/>
        <pt x="663" y="1293" on="0"/>
        <pt x="640" y="1293" on="1"/>
        <pt x="509" y="1300" on="1"/>
        <pt x="508" y="1158" on="1"/>
        <pt x="1050" y="1154" on="1"/>
        <pt x="1050" y="1322" on="1"/>
        <pt x="913" y="1326" on="1"/>
        <pt x="902" y="1326" on="0"/>
        <pt x="896" y="1336" on="0"/>
        <pt x="895" y="1348" on="1"/>
        <pt x="901" y="1514" on="1"/>
        <pt x="903" y="1535" on="0"/>
        <pt x="925" y="1535" on="1"/>
        <pt x="1392" y="1537" on="1"/>
        <pt x="1403" y="1536" on="0"/>
        <pt x="1409" y="1527" on="0"/>
        <pt x="1410" y="1514" on="1"/>
        <pt x="1423" y="1335" on="1"/>
        <pt x="1423" y="1313" on="0"/>
        <pt x="1400" y="1313" on="1"/>
        <pt x="1273" y="1316" on="1"/>
        <pt x="1272" y="1156" on="1"/>
        <pt x="1437" y="1161" on="1"/>
        <pt x="1451" y="1161" on="0"/>
        <pt x="1453" y="1142" on="1"/>
        <pt x="1463" y="1021" on="1"/>
        <pt x="1459" y="997" on="0"/>
        <pt x="1441" y="997" on="1"/>
        <pt x="1272" y="1007" on="1"/>
        <pt x="1270" y="205" on="1"/>
        <pt x="1424" y="210" on="1"/>
        <pt x="1440" y="210" on="0"/>
        <pt x="1440" y="191" on="1"/>
        <pt x="1427" y="13" on="1"/>
        <pt x="1425" y="-7" on="0"/>
        <pt x="1403" y="-7" on="1"/>
        <pt x="929" y="6" on="1"/>
        <pt x="912" y="6" on="0"/>
        <pt x="911" y="30" on="1"/>
        <pt x="913" y="197" on="1"/>
        <pt x="913" y="212" on="0"/>
        <pt x="929" y="216" on="1"/>
        <pt x="1050" y="207" on="1"/>
        <pt x="1050" y="663" on="1"/>
        <pt x="507" y="659" on="1"/>
        <pt x="506" y="229" on="1"/>
      </contour>
      <contour>
        <pt x="1050" y="865" on="1"/>
        <pt x="1050" y="1016" on="1"/>
        <pt x="508" y="1019" on="1"/>
        <pt x="508" y="858" on="1"/>
      </contour>
    </TTGlyph>
    <TTGlyph name="Hcircumflex" xMin="126" yMin="-7" xMax="1440" yMax="2020">
      <contour>
        <pt x="664" y="240" on="1"/>
        <pt x="680" y="240" on="0"/>
        <pt x="680" y="221" on="1"/>
        <pt x="667" y="33" on="1"/>
        <pt x="665" y="13" on="0"/>
        <pt x="643" y="13" on="1"/>
        <pt x="179" y="6" on="1"/>
        <pt x="162" y="6" on="0"/>
        <pt x="161" y="30" on="1"/>
        <pt x="163" y="207" on="1"/>
        <pt x="163" y="222" on="0"/>
        <pt x="179" y="226" on="1"/>
        <pt x="286" y="223" on="1"/>
        <pt x="286" y="1304" on="1"/>
        <pt x="153" y="1303" on="1"/>
        <pt x="142" y="1303" on="0"/>
        <pt x="136" y="1313" on="0"/>
        <pt x="135" y="1325" on="1"/>
        <pt x="126" y="1501" on="1"/>
        <pt x="127" y="1513" on="0"/>
        <pt x="138" y="1520" on="0"/>
        <pt x="150" y="1522" on="1"/>
        <pt x="649" y="1514" on="1"/>
        <pt x="667" y="1512" on="0"/>
        <pt x="667" y="1491" on="1"/>
        <pt x="663" y="1315" on="1"/>
        <pt x="663" y="1293" on="0"/>
        <pt x="640" y="1293" on="1"/>
        <pt x="509" y="1300" on="1"/>
        <pt x="508" y="858" on="1"/>
        <pt x="1050" y="865" on="1"/>
        <pt x="1050" y="1322" on="1"/>
        <pt x="913" y="1326" on="1"/>
        <pt x="902" y="1326" on="0"/>
        <pt x="896" y="1336" on="0"/>
        <pt x="895" y="1348" on="1"/>
        <pt x="901" y="1514" on="1"/>
        <pt x="903" y="1535" on="0"/>
        <pt x="925" y="1535" on="1"/>
        <pt x="1392" y="1537" on="1"/>
        <pt x="1403" y="1536" on="0"/>
        <pt x="1409" y="1527" on="0"/>
        <pt x="1410" y="1514" on="1"/>
        <pt x="1423" y="1335" on="1"/>
        <pt x="1423" y="1313" on="0"/>
        <pt x="1400" y="1313" on="1"/>
        <pt x="1273" y="1316" on="1"/>
        <pt x="1270" y="205" on="1"/>
        <pt x="1424" y="210" on="1"/>
        <pt x="1440" y="210" on="0"/>
        <pt x="1440" y="191" on="1"/>
        <pt x="1427" y="13" on="1"/>
        <pt x="1425" y="-7" on="0"/>
        <pt x="1403" y="-7" on="1"/>
        <pt x="929" y="6" on="1"/>
        <pt x="912" y="6" on="0"/>
        <pt x="911" y="30" on="1"/>
        <pt x="913" y="197" on="1"/>
        <pt x="913" y="212" on="0"/>
        <pt x="929" y="216" on="1"/>
        <pt x="1050" y="207" on="1"/>
        <pt x="1050" y="663" on="1"/>
        <pt x="507" y="659" on="1"/>
        <pt x="506" y="229" on="1"/>
      </contour>
      <contour>
        <pt x="686" y="1985" on="1"/>
        <pt x="715" y="2008" on="0"/>
        <pt x="731" y="2010" on="1"/>
        <pt x="826" y="2020" on="1"/>
        <pt x="842" y="2020" on="0"/>
        <pt x="872" y="1994" on="1"/>
        <pt x="1174" y="1743" on="1"/>
        <pt x="1181" y="1736" on="0"/>
        <pt x="1181" y="1721" on="0"/>
        <pt x="1175" y="1714" on="1"/>
        <pt x="1114" y="1641" on="1"/>
        <pt x="1109" y="1635" on="0"/>
        <pt x="1098" y="1635" on="0"/>
        <pt x="1090" y="1639" on="1"/>
        <pt x="770" y="1798" on="1"/>
        <pt x="473" y="1644" on="1"/>
        <pt x="469" y="1642" on="0"/>
        <pt x="457" y="1642" on="0"/>
        <pt x="451" y="1650" on="1"/>
        <pt x="389" y="1726" on="1"/>
        <pt x="383" y="1734" on="0"/>
        <pt x="383" y="1739" on="1"/>
        <pt x="383" y="1744" on="0"/>
        <pt x="388" y="1748" on="1"/>
      </contour>
    </TTGlyph>
    <TTGlyph name="I" xMin="76" yMin="-7" xMax="601" yMax="1525">
      <contour>
        <pt x="585" y="210" on="1"/>
        <pt x="601" y="210" on="0"/>
        <pt x="601" y="191" on="1"/>
        <pt x="598" y="13" on="1"/>
        <pt x="598" y="-7" on="0"/>
        <pt x="574" y="-7" on="1"/>
        <pt x="110" y="6" on="1"/>
        <pt x="93" y="6" on="0"/>
        <pt x="92" y="30" on="1"/>
        <pt x="84" y="207" on="1"/>
        <pt x="86" y="223" on="0"/>
        <pt x="100" y="226" on="1"/>
        <pt x="239" y="216" on="1"/>
        <pt x="231" y="1305" on="1"/>
        <pt x="94" y="1306" on="1"/>
        <pt x="76" y="1306" on="0"/>
        <pt x="76" y="1328" on="1"/>
        <pt x="92" y="1504" on="1"/>
        <pt x="93" y="1516" on="0"/>
        <pt x="104" y="1523" on="0"/>
        <pt x="116" y="1525" on="1"/>
        <pt x="583" y="1507" on="1"/>
        <pt x="594" y="1506" on="0"/>
        <pt x="600" y="1497" on="0"/>
        <pt x="601" y="1484" on="1"/>
        <pt x="594" y="1325" on="1"/>
        <pt x="592" y="1303" on="0"/>
        <pt x="571" y="1303" on="1"/>
        <pt x="454" y="1303" on="1"/>
        <pt x="451" y="210" on="1"/>
      </contour>
    </TTGlyph>
    <TTGlyph name="IJ" xMin="76" yMin="-328" xMax="1524" yMax="1542">
      <contour>
        <pt x="1360" y="1315" on="1"/>
        <pt x="1404" y="803" on="0"/>
        <pt x="1404" y="259" on="1"/>
        <pt x="1404" y="13" on="0"/>
        <pt x="1315" y="-88" on="1"/>
        <pt x="1229" y="-187" on="0"/>
        <pt x="1024" y="-187" on="1"/>
        <pt x="1012" y="-187" on="1"/>
        <pt x="1026" y="-288" on="1"/>
        <pt x="1026" y="-310" on="0"/>
        <pt x="1003" y="-313" on="1"/>
        <pt x="850" y="-328" on="1"/>
        <pt x="812" y="-328" on="0"/>
        <pt x="808" y="-289" on="1"/>
        <pt x="780" y="148" on="1"/>
        <pt x="780" y="173" on="0"/>
        <pt x="802" y="174" on="1"/>
        <pt x="941" y="188" on="1"/>
        <pt x="958" y="188" on="0"/>
        <pt x="962" y="165" on="1"/>
        <pt x="987" y="-11" on="1"/>
        <pt x="991" y="-11" on="1"/>
        <pt x="1100" y="-11" on="0"/>
        <pt x="1188" y="140" on="0"/>
        <pt x="1188" y="318" on="1"/>
        <pt x="1188" y="666" on="0"/>
        <pt x="1142" y="1310" on="1"/>
        <pt x="935" y="1298" on="1"/>
        <pt x="919" y="1298" on="0"/>
        <pt x="919" y="1317" on="1"/>
        <pt x="912" y="1505" on="1"/>
        <pt x="913" y="1517" on="0"/>
        <pt x="923" y="1524" on="0"/>
        <pt x="936" y="1525" on="1"/>
        <pt x="1498" y="1542" on="1"/>
        <pt x="1514" y="1542" on="0"/>
        <pt x="1516" y="1521" on="1"/>
        <pt x="1524" y="1331" on="1"/>
        <pt x="1522" y="1315" on="0"/>
        <pt x="1508" y="1312" on="1"/>
      </contour>
      <contour>
        <pt x="585" y="210" on="1"/>
        <pt x="601" y="210" on="0"/>
        <pt x="601" y="191" on="1"/>
        <pt x="598" y="13" on="1"/>
        <pt x="598" y="-7" on="0"/>
        <pt x="574" y="-7" on="1"/>
        <pt x="110" y="6" on="1"/>
        <pt x="93" y="6" on="0"/>
        <pt x="92" y="30" on="1"/>
        <pt x="84" y="207" on="1"/>
        <pt x="86" y="223" on="0"/>
        <pt x="100" y="226" on="1"/>
        <pt x="239" y="216" on="1"/>
        <pt x="231" y="1305" on="1"/>
        <pt x="94" y="1306" on="1"/>
        <pt x="76" y="1306" on="0"/>
        <pt x="76" y="1328" on="1"/>
        <pt x="92" y="1504" on="1"/>
        <pt x="93" y="1516" on="0"/>
        <pt x="104" y="1523" on="0"/>
        <pt x="116" y="1525" on="1"/>
        <pt x="583" y="1507" on="1"/>
        <pt x="594" y="1506" on="0"/>
        <pt x="600" y="1497" on="0"/>
        <pt x="601" y="1484" on="1"/>
        <pt x="594" y="1325" on="1"/>
        <pt x="592" y="1303" on="0"/>
        <pt x="571" y="1303" on="1"/>
        <pt x="454" y="1303" on="1"/>
        <pt x="451" y="210" on="1"/>
      </contour>
    </TTGlyph>
    <TTGlyph name="Iacute" xMin="76" yMin="-7" xMax="693" yMax="2020">
      <contour>
        <pt x="585" y="210" on="1"/>
        <pt x="601" y="210" on="0"/>
        <pt x="601" y="191" on="1"/>
        <pt x="598" y="13" on="1"/>
        <pt x="598" y="-7" on="0"/>
        <pt x="574" y="-7" on="1"/>
        <pt x="110" y="6" on="1"/>
        <pt x="93" y="6" on="0"/>
        <pt x="92" y="30" on="1"/>
        <pt x="84" y="207" on="1"/>
        <pt x="86" y="223" on="0"/>
        <pt x="100" y="226" on="1"/>
        <pt x="239" y="216" on="1"/>
        <pt x="231" y="1305" on="1"/>
        <pt x="94" y="1306" on="1"/>
        <pt x="76" y="1306" on="0"/>
        <pt x="76" y="1328" on="1"/>
        <pt x="92" y="1504" on="1"/>
        <pt x="93" y="1516" on="0"/>
        <pt x="104" y="1523" on="0"/>
        <pt x="116" y="1525" on="1"/>
        <pt x="583" y="1507" on="1"/>
        <pt x="594" y="1506" on="0"/>
        <pt x="600" y="1497" on="0"/>
        <pt x="601" y="1484" on="1"/>
        <pt x="594" y="1325" on="1"/>
        <pt x="592" y="1303" on="0"/>
        <pt x="571" y="1303" on="1"/>
        <pt x="454" y="1303" on="1"/>
        <pt x="451" y="210" on="1"/>
      </contour>
      <contour>
        <pt x="689" y="1842" on="1"/>
        <pt x="693" y="1834" on="0"/>
        <pt x="693" y="1811" on="0"/>
        <pt x="678" y="1805" on="1"/>
        <pt x="184" y="1598" on="1"/>
        <pt x="176" y="1595" on="0"/>
        <pt x="162" y="1595" on="0"/>
        <pt x="158" y="1605" on="1"/>
        <pt x="119" y="1697" on="1"/>
        <pt x="115" y="1707" on="0"/>
        <pt x="115" y="1719" on="0"/>
        <pt x="124" y="1724" on="1"/>
        <pt x="577" y="2014" on="1"/>
        <pt x="589" y="2020" on="0"/>
        <pt x="613" y="2020" on="0"/>
        <pt x="619" y="2006" on="1"/>
      </contour>
    </TTGlyph>
    <TTGlyph name="Ibreve" xMin="-40" yMin="-7" xMax="717" yMax="2020">
      <contour>
        <pt x="585" y="210" on="1"/>
        <pt x="601" y="210" on="0"/>
        <pt x="601" y="191" on="1"/>
        <pt x="598" y="13" on="1"/>
        <pt x="598" y="-7" on="0"/>
        <pt x="574" y="-7" on="1"/>
        <pt x="110" y="6" on="1"/>
        <pt x="93" y="6" on="0"/>
        <pt x="92" y="30" on="1"/>
        <pt x="84" y="207" on="1"/>
        <pt x="86" y="223" on="0"/>
        <pt x="100" y="226" on="1"/>
        <pt x="239" y="216" on="1"/>
        <pt x="231" y="1305" on="1"/>
        <pt x="94" y="1306" on="1"/>
        <pt x="76" y="1306" on="0"/>
        <pt x="76" y="1328" on="1"/>
        <pt x="92" y="1504" on="1"/>
        <pt x="93" y="1516" on="0"/>
        <pt x="104" y="1523" on="0"/>
        <pt x="116" y="1525" on="1"/>
        <pt x="583" y="1507" on="1"/>
        <pt x="594" y="1506" on="0"/>
        <pt x="600" y="1497" on="0"/>
        <pt x="601" y="1484" on="1"/>
        <pt x="594" y="1325" on="1"/>
        <pt x="592" y="1303" on="0"/>
        <pt x="571" y="1303" on="1"/>
        <pt x="454" y="1303" on="1"/>
        <pt x="451" y="210" on="1"/>
      </contour>
      <contour>
        <pt x="693" y="2006" on="1"/>
        <pt x="717" y="2006" on="0"/>
        <pt x="717" y="1983" on="1"/>
        <pt x="717" y="1841" on="0"/>
        <pt x="622" y="1743" on="1"/>
        <pt x="521" y="1638" on="0"/>
        <pt x="354" y="1638" on="1"/>
        <pt x="183" y="1638" on="0"/>
        <pt x="73" y="1729" on="1"/>
        <pt x="-40" y="1823" on="0"/>
        <pt x="-40" y="1984" on="1"/>
        <pt x="-40" y="2007" on="0"/>
        <pt x="-16" y="2007" on="1"/>
        <pt x="127" y="2020" on="1"/>
        <pt x="146" y="2020" on="0"/>
        <pt x="151" y="1956" on="0"/>
        <pt x="184" y="1892" on="0"/>
        <pt x="210" y="1869" on="1"/>
        <pt x="266" y="1821" on="0"/>
        <pt x="347" y="1821" on="1"/>
        <pt x="499" y="1821" on="0"/>
        <pt x="529" y="1986" on="1"/>
        <pt x="533" y="2010" on="0"/>
        <pt x="550" y="2010" on="1"/>
      </contour>
    </TTGlyph>
    <TTGlyph name="Icircumflex" xMin="-53" yMin="-7" xMax="745" yMax="2020">
      <contour>
        <pt x="585" y="210" on="1"/>
        <pt x="601" y="210" on="0"/>
        <pt x="601" y="191" on="1"/>
        <pt x="598" y="13" on="1"/>
        <pt x="598" y="-7" on="0"/>
        <pt x="574" y="-7" on="1"/>
        <pt x="110" y="6" on="1"/>
        <pt x="93" y="6" on="0"/>
        <pt x="92" y="30" on="1"/>
        <pt x="84" y="207" on="1"/>
        <pt x="86" y="223" on="0"/>
        <pt x="100" y="226" on="1"/>
        <pt x="239" y="216" on="1"/>
        <pt x="231" y="1305" on="1"/>
        <pt x="94" y="1306" on="1"/>
        <pt x="76" y="1306" on="0"/>
        <pt x="76" y="1328" on="1"/>
        <pt x="92" y="1504" on="1"/>
        <pt x="93" y="1516" on="0"/>
        <pt x="104" y="1523" on="0"/>
        <pt x="116" y="1525" on="1"/>
        <pt x="583" y="1507" on="1"/>
        <pt x="594" y="1506" on="0"/>
        <pt x="600" y="1497" on="0"/>
        <pt x="601" y="1484" on="1"/>
        <pt x="594" y="1325" on="1"/>
        <pt x="592" y="1303" on="0"/>
        <pt x="571" y="1303" on="1"/>
        <pt x="454" y="1303" on="1"/>
        <pt x="451" y="210" on="1"/>
      </contour>
      <contour>
        <pt x="250" y="1985" on="1"/>
        <pt x="279" y="2008" on="0"/>
        <pt x="295" y="2010" on="1"/>
        <pt x="390" y="2020" on="1"/>
        <pt x="406" y="2020" on="0"/>
        <pt x="436" y="1994" on="1"/>
        <pt x="738" y="1743" on="1"/>
        <pt x="745" y="1736" on="0"/>
        <pt x="745" y="1721" on="0"/>
        <pt x="739" y="1714" on="1"/>
        <pt x="678" y="1641" on="1"/>
        <pt x="673" y="1635" on="0"/>
        <pt x="662" y="1635" on="0"/>
        <pt x="654" y="1639" on="1"/>
        <pt x="334" y="1798" on="1"/>
        <pt x="37" y="1644" on="1"/>
        <pt x="33" y="1642" on="0"/>
        <pt x="21" y="1642" on="0"/>
        <pt x="15" y="1650" on="1"/>
        <pt x="-47" y="1726" on="1"/>
        <pt x="-53" y="1734" on="0"/>
        <pt x="-53" y="1739" on="1"/>
        <pt x="-53" y="1744" on="0"/>
        <pt x="-48" y="1748" on="1"/>
      </contour>
    </TTGlyph>
    <TTGlyph name="Idieresis" xMin="-39" yMin="-7" xMax="721" yMax="1988">
      <contour>
        <pt x="585" y="210" on="1"/>
        <pt x="601" y="210" on="0"/>
        <pt x="601" y="191" on="1"/>
        <pt x="598" y="13" on="1"/>
        <pt x="598" y="-7" on="0"/>
        <pt x="574" y="-7" on="1"/>
        <pt x="110" y="6" on="1"/>
        <pt x="93" y="6" on="0"/>
        <pt x="92" y="30" on="1"/>
        <pt x="84" y="207" on="1"/>
        <pt x="86" y="223" on="0"/>
        <pt x="100" y="226" on="1"/>
        <pt x="239" y="216" on="1"/>
        <pt x="231" y="1305" on="1"/>
        <pt x="94" y="1306" on="1"/>
        <pt x="76" y="1306" on="0"/>
        <pt x="76" y="1328" on="1"/>
        <pt x="92" y="1504" on="1"/>
        <pt x="93" y="1516" on="0"/>
        <pt x="104" y="1523" on="0"/>
        <pt x="116" y="1525" on="1"/>
        <pt x="583" y="1507" on="1"/>
        <pt x="594" y="1506" on="0"/>
        <pt x="600" y="1497" on="0"/>
        <pt x="601" y="1484" on="1"/>
        <pt x="594" y="1325" on="1"/>
        <pt x="592" y="1303" on="0"/>
        <pt x="571" y="1303" on="1"/>
        <pt x="454" y="1303" on="1"/>
        <pt x="451" y="210" on="1"/>
      </contour>
      <contour>
        <pt x="198" y="1735" on="0"/>
        <pt x="134" y="1725" on="0"/>
        <pt x="49" y="1725" on="0"/>
        <pt x="2" y="1737" on="0"/>
        <pt x="-12" y="1752" on="1"/>
        <pt x="-39" y="1779" on="0"/>
        <pt x="-39" y="1894" on="0"/>
        <pt x="-26" y="1947" on="0"/>
        <pt x="-8" y="1962" on="1"/>
        <pt x="23" y="1988" on="0"/>
        <pt x="161" y="1988" on="0"/>
        <pt x="208" y="1978" on="0"/>
        <pt x="222" y="1964" on="1"/>
        <pt x="250" y="1939" on="0"/>
        <pt x="250" y="1821" on="0"/>
        <pt x="236" y="1765" on="0"/>
      </contour>
      <contour>
        <pt x="669" y="1735" on="0"/>
        <pt x="605" y="1725" on="0"/>
        <pt x="520" y="1725" on="0"/>
        <pt x="473" y="1737" on="0"/>
        <pt x="459" y="1752" on="1"/>
        <pt x="432" y="1779" on="0"/>
        <pt x="432" y="1894" on="0"/>
        <pt x="445" y="1947" on="0"/>
        <pt x="463" y="1962" on="1"/>
        <pt x="494" y="1988" on="0"/>
        <pt x="632" y="1988" on="0"/>
        <pt x="679" y="1978" on="0"/>
        <pt x="694" y="1964" on="1"/>
        <pt x="721" y="1939" on="0"/>
        <pt x="721" y="1821" on="0"/>
        <pt x="707" y="1765" on="0"/>
      </contour>
    </TTGlyph>
    <TTGlyph name="Idotaccent" xMin="76" yMin="-7" xMax="601" yMax="1988">
      <contour>
        <pt x="585" y="210" on="1"/>
        <pt x="601" y="210" on="0"/>
        <pt x="601" y="191" on="1"/>
        <pt x="598" y="13" on="1"/>
        <pt x="598" y="-7" on="0"/>
        <pt x="574" y="-7" on="1"/>
        <pt x="110" y="6" on="1"/>
        <pt x="93" y="6" on="0"/>
        <pt x="92" y="30" on="1"/>
        <pt x="84" y="207" on="1"/>
        <pt x="86" y="223" on="0"/>
        <pt x="100" y="226" on="1"/>
        <pt x="239" y="216" on="1"/>
        <pt x="231" y="1305" on="1"/>
        <pt x="94" y="1306" on="1"/>
        <pt x="76" y="1306" on="0"/>
        <pt x="76" y="1328" on="1"/>
        <pt x="92" y="1504" on="1"/>
        <pt x="93" y="1516" on="0"/>
        <pt x="104" y="1523" on="0"/>
        <pt x="116" y="1525" on="1"/>
        <pt x="583" y="1507" on="1"/>
        <pt x="594" y="1506" on="0"/>
        <pt x="600" y="1497" on="0"/>
        <pt x="601" y="1484" on="1"/>
        <pt x="594" y="1325" on="1"/>
        <pt x="592" y="1303" on="0"/>
        <pt x="571" y="1303" on="1"/>
        <pt x="454" y="1303" on="1"/>
        <pt x="451" y="210" on="1"/>
      </contour>
      <contour>
        <pt x="428" y="1735" on="0"/>
        <pt x="361" y="1725" on="0"/>
        <pt x="246" y="1725" on="0"/>
        <pt x="194" y="1782" on="0"/>
        <pt x="194" y="1894" on="0"/>
        <pt x="207" y="1947" on="0"/>
        <pt x="225" y="1962" on="1"/>
        <pt x="256" y="1988" on="0"/>
        <pt x="360" y="1988" on="1"/>
        <pt x="428" y="1988" on="0"/>
        <pt x="449" y="1969" on="1"/>
        <pt x="483" y="1937" on="0"/>
        <pt x="483" y="1821" on="0"/>
        <pt x="467" y="1765" on="0"/>
      </contour>
    </TTGlyph>
    <TTGlyph name="Igrave" xMin="-15" yMin="-7" xMax="602" yMax="2020">
      <contour>
        <pt x="585" y="210" on="1"/>
        <pt x="601" y="210" on="0"/>
        <pt x="601" y="191" on="1"/>
        <pt x="598" y="13" on="1"/>
        <pt x="598" y="-7" on="0"/>
        <pt x="574" y="-7" on="1"/>
        <pt x="110" y="6" on="1"/>
        <pt x="93" y="6" on="0"/>
        <pt x="92" y="30" on="1"/>
        <pt x="84" y="207" on="1"/>
        <pt x="86" y="223" on="0"/>
        <pt x="100" y="226" on="1"/>
        <pt x="239" y="216" on="1"/>
        <pt x="231" y="1305" on="1"/>
        <pt x="94" y="1306" on="1"/>
        <pt x="76" y="1306" on="0"/>
        <pt x="76" y="1328" on="1"/>
        <pt x="92" y="1504" on="1"/>
        <pt x="93" y="1516" on="0"/>
        <pt x="104" y="1523" on="0"/>
        <pt x="116" y="1525" on="1"/>
        <pt x="583" y="1507" on="1"/>
        <pt x="594" y="1506" on="0"/>
        <pt x="600" y="1497" on="0"/>
        <pt x="601" y="1484" on="1"/>
        <pt x="594" y="1325" on="1"/>
        <pt x="592" y="1303" on="0"/>
        <pt x="571" y="1303" on="1"/>
        <pt x="454" y="1303" on="1"/>
        <pt x="451" y="210" on="1"/>
      </contour>
      <contour>
        <pt x="59" y="2006" on="1"/>
        <pt x="65" y="2020" on="0"/>
        <pt x="89" y="2020" on="0"/>
        <pt x="101" y="2014" on="1"/>
        <pt x="593" y="1738" on="1"/>
        <pt x="602" y="1733" on="0"/>
        <pt x="602" y="1721" on="0"/>
        <pt x="598" y="1711" on="1"/>
        <pt x="559" y="1619" on="1"/>
        <pt x="555" y="1609" on="0"/>
        <pt x="540" y="1609" on="0"/>
        <pt x="533" y="1612" on="1"/>
        <pt x="0" y="1805" on="1"/>
        <pt x="-15" y="1811" on="0"/>
        <pt x="-15" y="1834" on="0"/>
        <pt x="-11" y="1842" on="1"/>
      </contour>
    </TTGlyph>
    <TTGlyph name="Imacron" xMin="-8" yMin="-7" xMax="677" yMax="1971">
      <contour>
        <pt x="585" y="210" on="1"/>
        <pt x="601" y="210" on="0"/>
        <pt x="601" y="191" on="1"/>
        <pt x="598" y="13" on="1"/>
        <pt x="598" y="-7" on="0"/>
        <pt x="574" y="-7" on="1"/>
        <pt x="110" y="6" on="1"/>
        <pt x="93" y="6" on="0"/>
        <pt x="92" y="30" on="1"/>
        <pt x="84" y="207" on="1"/>
        <pt x="86" y="223" on="0"/>
        <pt x="100" y="226" on="1"/>
        <pt x="239" y="216" on="1"/>
        <pt x="231" y="1305" on="1"/>
        <pt x="94" y="1306" on="1"/>
        <pt x="76" y="1306" on="0"/>
        <pt x="76" y="1328" on="1"/>
        <pt x="92" y="1504" on="1"/>
        <pt x="93" y="1516" on="0"/>
        <pt x="104" y="1523" on="0"/>
        <pt x="116" y="1525" on="1"/>
        <pt x="583" y="1507" on="1"/>
        <pt x="594" y="1506" on="0"/>
        <pt x="600" y="1497" on="0"/>
        <pt x="601" y="1484" on="1"/>
        <pt x="594" y="1325" on="1"/>
        <pt x="592" y="1303" on="0"/>
        <pt x="571" y="1303" on="1"/>
        <pt x="454" y="1303" on="1"/>
        <pt x="451" y="210" on="1"/>
      </contour>
      <contour>
        <pt x="661" y="1971" on="1"/>
        <pt x="677" y="1969" on="0"/>
        <pt x="677" y="1952" on="1"/>
        <pt x="659" y="1781" on="1"/>
        <pt x="657" y="1769" on="0"/>
        <pt x="648" y="1761" on="0"/>
        <pt x="635" y="1761" on="1"/>
        <pt x="11" y="1767" on="1"/>
        <pt x="-8" y="1767" on="0"/>
        <pt x="-8" y="1791" on="1"/>
        <pt x="2" y="1942" on="1"/>
        <pt x="3" y="1961" on="0"/>
        <pt x="22" y="1961" on="1"/>
      </contour>
    </TTGlyph>
    <TTGlyph name="Iogonek" xMin="76" yMin="-450" xMax="610" yMax="1525">
      <contour>
        <pt x="585" y="210" on="1"/>
        <pt x="601" y="210" on="0"/>
        <pt x="601" y="191" on="1"/>
        <pt x="598" y="13" on="1"/>
        <pt x="598" y="-7" on="0"/>
        <pt x="574" y="-7" on="1"/>
        <pt x="429" y="-3" on="1"/>
        <pt x="392" y="-44" on="1"/>
        <pt x="330" y="-115" on="0"/>
        <pt x="330" y="-173" on="1"/>
        <pt x="330" y="-245" on="0"/>
        <pt x="426" y="-245" on="1"/>
        <pt x="479" y="-245" on="0"/>
        <pt x="568" y="-205" on="0"/>
        <pt x="587" y="-205" on="0"/>
        <pt x="589" y="-222" on="1"/>
        <pt x="610" y="-388" on="1"/>
        <pt x="610" y="-402" on="0"/>
        <pt x="588" y="-410" on="1"/>
        <pt x="463" y="-450" on="0"/>
        <pt x="367" y="-450" on="1"/>
        <pt x="152" y="-450" on="0"/>
        <pt x="152" y="-271" on="1"/>
        <pt x="152" y="-169" on="0"/>
        <pt x="262" y="1" on="1"/>
        <pt x="110" y="6" on="1"/>
        <pt x="93" y="6" on="0"/>
        <pt x="92" y="30" on="1"/>
        <pt x="84" y="207" on="1"/>
        <pt x="86" y="223" on="0"/>
        <pt x="100" y="226" on="1"/>
        <pt x="239" y="216" on="1"/>
        <pt x="231" y="1305" on="1"/>
        <pt x="94" y="1306" on="1"/>
        <pt x="76" y="1306" on="0"/>
        <pt x="76" y="1328" on="1"/>
        <pt x="92" y="1504" on="1"/>
        <pt x="93" y="1516" on="0"/>
        <pt x="104" y="1523" on="0"/>
        <pt x="116" y="1525" on="1"/>
        <pt x="583" y="1507" on="1"/>
        <pt x="594" y="1506" on="0"/>
        <pt x="600" y="1497" on="0"/>
        <pt x="601" y="1484" on="1"/>
        <pt x="594" y="1325" on="1"/>
        <pt x="592" y="1303" on="0"/>
        <pt x="571" y="1303" on="1"/>
        <pt x="454" y="1303" on="1"/>
        <pt x="451" y="210" on="1"/>
      </contour>
    </TTGlyph>
    <TTGlyph name="Itilde" xMin="-74" yMin="-7" xMax="750" yMax="2012">
      <contour>
        <pt x="585" y="210" on="1"/>
        <pt x="601" y="210" on="0"/>
        <pt x="601" y="191" on="1"/>
        <pt x="598" y="13" on="1"/>
        <pt x="598" y="-7" on="0"/>
        <pt x="574" y="-7" on="1"/>
        <pt x="110" y="6" on="1"/>
        <pt x="93" y="6" on="0"/>
        <pt x="92" y="30" on="1"/>
        <pt x="84" y="207" on="1"/>
        <pt x="86" y="223" on="0"/>
        <pt x="100" y="226" on="1"/>
        <pt x="239" y="216" on="1"/>
        <pt x="231" y="1305" on="1"/>
        <pt x="94" y="1306" on="1"/>
        <pt x="76" y="1306" on="0"/>
        <pt x="76" y="1328" on="1"/>
        <pt x="92" y="1504" on="1"/>
        <pt x="93" y="1516" on="0"/>
        <pt x="104" y="1523" on="0"/>
        <pt x="116" y="1525" on="1"/>
        <pt x="583" y="1507" on="1"/>
        <pt x="594" y="1506" on="0"/>
        <pt x="600" y="1497" on="0"/>
        <pt x="601" y="1484" on="1"/>
        <pt x="594" y="1325" on="1"/>
        <pt x="592" y="1303" on="0"/>
        <pt x="571" y="1303" on="1"/>
        <pt x="454" y="1303" on="1"/>
        <pt x="451" y="210" on="1"/>
      </contour>
      <contour>
        <pt x="-74" y="1842" on="1"/>
        <pt x="-74" y="1859" on="0"/>
        <pt x="27" y="1944" on="0"/>
        <pt x="61" y="1965" on="1"/>
        <pt x="137" y="2012" on="0"/>
        <pt x="189" y="2012" on="1"/>
        <pt x="231" y="2012" on="0"/>
        <pt x="366" y="1937" on="0"/>
        <pt x="444" y="1900" on="0"/>
        <pt x="499" y="1900" on="0"/>
        <pt x="548" y="1912" on="0"/>
        <pt x="594" y="1931" on="0"/>
        <pt x="615" y="1942" on="1"/>
        <pt x="653" y="1962" on="1"/>
        <pt x="686" y="1981" on="0"/>
        <pt x="708" y="1981" on="0"/>
        <pt x="715" y="1962" on="1"/>
        <pt x="748" y="1884" on="1"/>
        <pt x="750" y="1879" on="0"/>
        <pt x="750" y="1872" on="1"/>
        <pt x="750" y="1859" on="0"/>
        <pt x="655" y="1770" on="0"/>
        <pt x="620" y="1746" on="1"/>
        <pt x="540" y="1690" on="0"/>
        <pt x="443" y="1690" on="0"/>
        <pt x="364" y="1725" on="0"/>
        <pt x="324" y="1745" on="1"/>
        <pt x="218" y="1798" on="0"/>
        <pt x="162" y="1798" on="0"/>
        <pt x="123" y="1788" on="0"/>
        <pt x="82" y="1772" on="0"/>
        <pt x="62" y="1763" on="1"/>
        <pt x="24" y="1746" on="1"/>
        <pt x="-8" y="1731" on="0"/>
        <pt x="-19" y="1731" on="1"/>
        <pt x="-35" y="1731" on="0"/>
        <pt x="-42" y="1751" on="1"/>
      </contour>
    </TTGlyph>
    <TTGlyph name="J" xMin="38" yMin="-170" xMax="842" yMax="1542">
      <contour>
        <pt x="679" y="1315" on="1"/>
        <pt x="722" y="830" on="0"/>
        <pt x="722" y="357" on="1"/>
        <pt x="722" y="111" on="0"/>
        <pt x="633" y="10" on="1"/>
        <pt x="547" y="-89" on="0"/>
        <pt x="342" y="-89" on="1"/>
        <pt x="325" y="-89" on="0"/>
        <pt x="309" y="-87" on="1"/>
        <pt x="276" y="-83" on="1"/>
        <pt x="284" y="-137" on="1"/>
        <pt x="284" y="-153" on="0"/>
        <pt x="261" y="-155" on="1"/>
        <pt x="108" y="-170" on="1"/>
        <pt x="70" y="-170" on="0"/>
        <pt x="66" y="-131" on="1"/>
        <pt x="38" y="306" on="1"/>
        <pt x="40" y="329" on="0"/>
        <pt x="60" y="332" on="1"/>
        <pt x="199" y="346" on="1"/>
        <pt x="216" y="346" on="0"/>
        <pt x="220" y="323" on="1"/>
        <pt x="251" y="95" on="1"/>
        <pt x="278" y="87" on="0"/>
        <pt x="363" y="87" on="0"/>
        <pt x="439" y="123" on="0"/>
        <pt x="462" y="162" on="1"/>
        <pt x="506" y="238" on="0"/>
        <pt x="506" y="416" on="1"/>
        <pt x="506" y="664" on="0"/>
        <pt x="488" y="919" on="1"/>
        <pt x="460" y="1310" on="1"/>
        <pt x="253" y="1298" on="1"/>
        <pt x="237" y="1298" on="0"/>
        <pt x="237" y="1317" on="1"/>
        <pt x="230" y="1505" on="1"/>
        <pt x="231" y="1517" on="0"/>
        <pt x="241" y="1524" on="0"/>
        <pt x="254" y="1525" on="1"/>
        <pt x="816" y="1542" on="1"/>
        <pt x="832" y="1542" on="0"/>
        <pt x="834" y="1518" on="1"/>
        <pt x="842" y="1331" on="1"/>
        <pt x="840" y="1315" on="0"/>
        <pt x="826" y="1312" on="1"/>
      </contour>
    </TTGlyph>
    <TTGlyph name="Jcircumflex" xMin="38" yMin="-170" xMax="958" yMax="2020">
      <contour>
        <pt x="679" y="1315" on="1"/>
        <pt x="722" y="830" on="0"/>
        <pt x="722" y="357" on="1"/>
        <pt x="722" y="111" on="0"/>
        <pt x="633" y="10" on="1"/>
        <pt x="547" y="-89" on="0"/>
        <pt x="342" y="-89" on="1"/>
        <pt x="325" y="-89" on="0"/>
        <pt x="309" y="-87" on="1"/>
        <pt x="276" y="-83" on="1"/>
        <pt x="284" y="-137" on="1"/>
        <pt x="284" y="-153" on="0"/>
        <pt x="261" y="-155" on="1"/>
        <pt x="108" y="-170" on="1"/>
        <pt x="70" y="-170" on="0"/>
        <pt x="66" y="-131" on="1"/>
        <pt x="38" y="306" on="1"/>
        <pt x="40" y="329" on="0"/>
        <pt x="60" y="332" on="1"/>
        <pt x="199" y="346" on="1"/>
        <pt x="216" y="346" on="0"/>
        <pt x="220" y="323" on="1"/>
        <pt x="251" y="95" on="1"/>
        <pt x="278" y="87" on="0"/>
        <pt x="363" y="87" on="0"/>
        <pt x="439" y="123" on="0"/>
        <pt x="462" y="162" on="1"/>
        <pt x="506" y="238" on="0"/>
        <pt x="506" y="416" on="1"/>
        <pt x="506" y="664" on="0"/>
        <pt x="488" y="919" on="1"/>
        <pt x="460" y="1310" on="1"/>
        <pt x="253" y="1298" on="1"/>
        <pt x="237" y="1298" on="0"/>
        <pt x="237" y="1317" on="1"/>
        <pt x="230" y="1505" on="1"/>
        <pt x="231" y="1517" on="0"/>
        <pt x="241" y="1524" on="0"/>
        <pt x="254" y="1525" on="1"/>
        <pt x="816" y="1542" on="1"/>
        <pt x="832" y="1542" on="0"/>
        <pt x="834" y="1518" on="1"/>
        <pt x="842" y="1331" on="1"/>
        <pt x="840" y="1315" on="0"/>
        <pt x="826" y="1312" on="1"/>
      </contour>
      <contour>
        <pt x="463" y="1985" on="1"/>
        <pt x="492" y="2008" on="0"/>
        <pt x="508" y="2010" on="1"/>
        <pt x="603" y="2020" on="1"/>
        <pt x="619" y="2020" on="0"/>
        <pt x="649" y="1994" on="1"/>
        <pt x="951" y="1743" on="1"/>
        <pt x="958" y="1736" on="0"/>
        <pt x="958" y="1721" on="0"/>
        <pt x="952" y="1714" on="1"/>
        <pt x="891" y="1641" on="1"/>
        <pt x="886" y="1635" on="0"/>
        <pt x="875" y="1635" on="0"/>
        <pt x="867" y="1639" on="1"/>
        <pt x="547" y="1798" on="1"/>
        <pt x="250" y="1644" on="1"/>
        <pt x="246" y="1642" on="0"/>
        <pt x="234" y="1642" on="0"/>
        <pt x="228" y="1650" on="1"/>
        <pt x="166" y="1726" on="1"/>
        <pt x="160" y="1734" on="0"/>
        <pt x="160" y="1739" on="1"/>
        <pt x="160" y="1744" on="0"/>
        <pt x="165" y="1748" on="1"/>
      </contour>
    </TTGlyph>
    <TTGlyph name="K" xMin="82" yMin="-23" xMax="1350" yMax="1547">
      <contour>
        <pt x="854" y="1316" on="1"/>
        <pt x="836" y="1316" on="0"/>
        <pt x="836" y="1338" on="1"/>
        <pt x="852" y="1524" on="1"/>
        <pt x="853" y="1541" on="0"/>
        <pt x="876" y="1545" on="1"/>
        <pt x="1293" y="1537" on="1"/>
        <pt x="1311" y="1535" on="0"/>
        <pt x="1311" y="1514" on="1"/>
        <pt x="1314" y="1335" on="1"/>
        <pt x="1314" y="1313" on="0"/>
        <pt x="1291" y="1313" on="1"/>
        <pt x="1180" y="1314" on="1"/>
        <pt x="770" y="732" on="1"/>
        <pt x="1144" y="222" on="1"/>
        <pt x="1316" y="210" on="1"/>
        <pt x="1349" y="208" on="0"/>
        <pt x="1349" y="176" on="1"/>
        <pt x="1350" y="29" on="1"/>
        <pt x="1350" y="-14" on="0"/>
        <pt x="1313" y="-16" on="1"/>
        <pt x="1051" y="-23" on="1"/>
        <pt x="1029" y="-21" on="0"/>
        <pt x="1016" y="-3" on="1"/>
        <pt x="602" y="630" on="1"/>
        <pt x="481" y="626" on="1"/>
        <pt x="481" y="220" on="1"/>
        <pt x="585" y="220" on="1"/>
        <pt x="601" y="220" on="0"/>
        <pt x="601" y="201" on="1"/>
        <pt x="608" y="13" on="1"/>
        <pt x="606" y="-7" on="0"/>
        <pt x="584" y="-7" on="1"/>
        <pt x="120" y="-4" on="1"/>
        <pt x="103" y="-4" on="0"/>
        <pt x="102" y="20" on="1"/>
        <pt x="94" y="217" on="1"/>
        <pt x="96" y="233" on="0"/>
        <pt x="110" y="236" on="1"/>
        <pt x="257" y="227" on="1"/>
        <pt x="257" y="1320" on="1"/>
        <pt x="114" y="1306" on="1"/>
        <pt x="103" y="1306" on="0"/>
        <pt x="97" y="1316" on="0"/>
        <pt x="96" y="1328" on="1"/>
        <pt x="82" y="1524" on="1"/>
        <pt x="84" y="1545" on="0"/>
        <pt x="106" y="1545" on="1"/>
        <pt x="583" y="1547" on="1"/>
        <pt x="594" y="1546" on="0"/>
        <pt x="600" y="1537" on="0"/>
        <pt x="601" y="1524" on="1"/>
        <pt x="584" y="1335" on="1"/>
        <pt x="581" y="1313" on="0"/>
        <pt x="561" y="1313" on="1"/>
        <pt x="481" y="1318" on="1"/>
        <pt x="481" y="798" on="1"/>
        <pt x="607" y="806" on="1"/>
        <pt x="946" y="1315" on="1"/>
      </contour>
    </TTGlyph>
    <TTGlyph name="Kcommaaccent" xMin="82" yMin="-540" xMax="1350" yMax="1547">
      <contour>
        <pt x="854" y="1316" on="1"/>
        <pt x="836" y="1316" on="0"/>
        <pt x="836" y="1338" on="1"/>
        <pt x="852" y="1524" on="1"/>
        <pt x="853" y="1541" on="0"/>
        <pt x="876" y="1545" on="1"/>
        <pt x="1293" y="1537" on="1"/>
        <pt x="1311" y="1535" on="0"/>
        <pt x="1311" y="1514" on="1"/>
        <pt x="1314" y="1335" on="1"/>
        <pt x="1314" y="1313" on="0"/>
        <pt x="1291" y="1313" on="1"/>
        <pt x="1180" y="1314" on="1"/>
        <pt x="770" y="732" on="1"/>
        <pt x="1144" y="222" on="1"/>
        <pt x="1316" y="210" on="1"/>
        <pt x="1349" y="208" on="0"/>
        <pt x="1349" y="176" on="1"/>
        <pt x="1350" y="29" on="1"/>
        <pt x="1350" y="-14" on="0"/>
        <pt x="1313" y="-16" on="1"/>
        <pt x="1051" y="-23" on="1"/>
        <pt x="1029" y="-21" on="0"/>
        <pt x="1016" y="-3" on="1"/>
        <pt x="602" y="630" on="1"/>
        <pt x="481" y="626" on="1"/>
        <pt x="481" y="220" on="1"/>
        <pt x="585" y="220" on="1"/>
        <pt x="601" y="220" on="0"/>
        <pt x="601" y="201" on="1"/>
        <pt x="608" y="13" on="1"/>
        <pt x="606" y="-7" on="0"/>
        <pt x="584" y="-7" on="1"/>
        <pt x="120" y="-4" on="1"/>
        <pt x="103" y="-4" on="0"/>
        <pt x="102" y="20" on="1"/>
        <pt x="94" y="217" on="1"/>
        <pt x="96" y="233" on="0"/>
        <pt x="110" y="236" on="1"/>
        <pt x="257" y="227" on="1"/>
        <pt x="257" y="1320" on="1"/>
        <pt x="114" y="1306" on="1"/>
        <pt x="103" y="1306" on="0"/>
        <pt x="97" y="1316" on="0"/>
        <pt x="96" y="1328" on="1"/>
        <pt x="82" y="1524" on="1"/>
        <pt x="84" y="1545" on="0"/>
        <pt x="106" y="1545" on="1"/>
        <pt x="583" y="1547" on="1"/>
        <pt x="594" y="1546" on="0"/>
        <pt x="600" y="1537" on="0"/>
        <pt x="601" y="1524" on="1"/>
        <pt x="584" y="1335" on="1"/>
        <pt x="581" y="1313" on="0"/>
        <pt x="561" y="1313" on="1"/>
        <pt x="481" y="1318" on="1"/>
        <pt x="481" y="798" on="1"/>
        <pt x="607" y="806" on="1"/>
        <pt x="946" y="1315" on="1"/>
      </contour>
      <contour>
        <pt x="714" y="-540" on="1"/>
        <pt x="619" y="-504" on="1"/>
        <pt x="605" y="-499" on="0"/>
        <pt x="605" y="-485" on="0"/>
        <pt x="615" y="-464" on="0"/>
        <pt x="631" y="-426" on="0"/>
        <pt x="638" y="-407" on="1"/>
        <pt x="654" y="-364" on="0"/>
        <pt x="654" y="-344" on="1"/>
        <pt x="654" y="-316" on="0"/>
        <pt x="619" y="-291" on="1"/>
        <pt x="583" y="-263" on="0"/>
        <pt x="583" y="-219" on="0"/>
        <pt x="611" y="-168" on="0"/>
        <pt x="632" y="-148" on="1"/>
        <pt x="681" y="-101" on="0"/>
        <pt x="767" y="-101" on="0"/>
        <pt x="816" y="-126" on="0"/>
        <pt x="831" y="-146" on="1"/>
        <pt x="859" y="-185" on="0"/>
        <pt x="859" y="-286" on="0"/>
        <pt x="837" y="-361" on="0"/>
        <pt x="820" y="-396" on="1"/>
        <pt x="792" y="-452" on="0"/>
        <pt x="726" y="-540" on="0"/>
      </contour>
    </TTGlyph>
    <TTGlyph name="L" xMin="82" yMin="-43" xMax="1149" yMax="1524">
      <contour>
        <pt x="969" y="-43" on="1"/>
        <pt x="952" y="-43" on="0"/>
        <pt x="948" y="-20" on="1"/>
        <pt x="943" y="28" on="1"/>
        <pt x="100" y="-7" on="1"/>
        <pt x="83" y="-7" on="0"/>
        <pt x="82" y="17" on="1"/>
        <pt x="98" y="191" on="1"/>
        <pt x="100" y="207" on="0"/>
        <pt x="114" y="210" on="1"/>
        <pt x="252" y="204" on="1"/>
        <pt x="261" y="1304" on="1"/>
        <pt x="125" y="1291" on="1"/>
        <pt x="114" y="1291" on="0"/>
        <pt x="108" y="1301" on="0"/>
        <pt x="107" y="1313" on="1"/>
        <pt x="98" y="1493" on="1"/>
        <pt x="99" y="1516" on="0"/>
        <pt x="122" y="1516" on="1"/>
        <pt x="607" y="1524" on="1"/>
        <pt x="626" y="1522" on="0"/>
        <pt x="629" y="1501" on="1"/>
        <pt x="648" y="1325" on="1"/>
        <pt x="648" y="1311" on="0"/>
        <pt x="635" y="1304" on="0"/>
        <pt x="625" y="1303" on="1"/>
        <pt x="479" y="1308" on="1"/>
        <pt x="476" y="209" on="1"/>
        <pt x="922" y="232" on="1"/>
        <pt x="904" y="407" on="1"/>
        <pt x="904" y="426" on="0"/>
        <pt x="927" y="428" on="1"/>
        <pt x="1089" y="443" on="1"/>
        <pt x="1129" y="443" on="0"/>
        <pt x="1131" y="404" on="1"/>
        <pt x="1149" y="7" on="1"/>
        <pt x="1147" y="-16" on="0"/>
        <pt x="1127" y="-19" on="1"/>
      </contour>
    </TTGlyph>
    <TTGlyph name="Lacute" xMin="82" yMin="-43" xMax="1149" yMax="2020">
      <contour>
        <pt x="969" y="-43" on="1"/>
        <pt x="952" y="-43" on="0"/>
        <pt x="948" y="-20" on="1"/>
        <pt x="943" y="28" on="1"/>
        <pt x="100" y="-7" on="1"/>
        <pt x="83" y="-7" on="0"/>
        <pt x="82" y="17" on="1"/>
        <pt x="98" y="191" on="1"/>
        <pt x="100" y="207" on="0"/>
        <pt x="114" y="210" on="1"/>
        <pt x="252" y="204" on="1"/>
        <pt x="261" y="1304" on="1"/>
        <pt x="125" y="1291" on="1"/>
        <pt x="114" y="1291" on="0"/>
        <pt x="108" y="1301" on="0"/>
        <pt x="107" y="1313" on="1"/>
        <pt x="98" y="1493" on="1"/>
        <pt x="99" y="1516" on="0"/>
        <pt x="122" y="1516" on="1"/>
        <pt x="607" y="1524" on="1"/>
        <pt x="626" y="1522" on="0"/>
        <pt x="629" y="1501" on="1"/>
        <pt x="648" y="1325" on="1"/>
        <pt x="648" y="1311" on="0"/>
        <pt x="635" y="1304" on="0"/>
        <pt x="625" y="1303" on="1"/>
        <pt x="479" y="1308" on="1"/>
        <pt x="476" y="209" on="1"/>
        <pt x="922" y="232" on="1"/>
        <pt x="904" y="407" on="1"/>
        <pt x="904" y="426" on="0"/>
        <pt x="927" y="428" on="1"/>
        <pt x="1089" y="443" on="1"/>
        <pt x="1129" y="443" on="0"/>
        <pt x="1131" y="404" on="1"/>
        <pt x="1149" y="7" on="1"/>
        <pt x="1147" y="-16" on="0"/>
        <pt x="1127" y="-19" on="1"/>
      </contour>
      <contour>
        <pt x="824" y="1842" on="1"/>
        <pt x="828" y="1834" on="0"/>
        <pt x="828" y="1811" on="0"/>
        <pt x="813" y="1805" on="1"/>
        <pt x="319" y="1598" on="1"/>
        <pt x="311" y="1595" on="0"/>
        <pt x="297" y="1595" on="0"/>
        <pt x="293" y="1605" on="1"/>
        <pt x="254" y="1697" on="1"/>
        <pt x="250" y="1707" on="0"/>
        <pt x="250" y="1719" on="0"/>
        <pt x="259" y="1724" on="1"/>
        <pt x="712" y="2014" on="1"/>
        <pt x="724" y="2020" on="0"/>
        <pt x="748" y="2020" on="0"/>
        <pt x="754" y="2006" on="1"/>
      </contour>
    </TTGlyph>
    <TTGlyph name="Lcaron" xMin="-17" yMin="-43" xMax="1149" yMax="2020">
      <contour>
        <pt x="969" y="-43" on="1"/>
        <pt x="952" y="-43" on="0"/>
        <pt x="948" y="-20" on="1"/>
        <pt x="943" y="28" on="1"/>
        <pt x="100" y="-7" on="1"/>
        <pt x="83" y="-7" on="0"/>
        <pt x="82" y="17" on="1"/>
        <pt x="98" y="191" on="1"/>
        <pt x="100" y="207" on="0"/>
        <pt x="114" y="210" on="1"/>
        <pt x="252" y="204" on="1"/>
        <pt x="261" y="1304" on="1"/>
        <pt x="125" y="1291" on="1"/>
        <pt x="114" y="1291" on="0"/>
        <pt x="108" y="1301" on="0"/>
        <pt x="107" y="1313" on="1"/>
        <pt x="98" y="1493" on="1"/>
        <pt x="99" y="1516" on="0"/>
        <pt x="122" y="1516" on="1"/>
        <pt x="607" y="1524" on="1"/>
        <pt x="626" y="1522" on="0"/>
        <pt x="629" y="1501" on="1"/>
        <pt x="648" y="1325" on="1"/>
        <pt x="648" y="1311" on="0"/>
        <pt x="635" y="1304" on="0"/>
        <pt x="625" y="1303" on="1"/>
        <pt x="479" y="1308" on="1"/>
        <pt x="476" y="209" on="1"/>
        <pt x="922" y="232" on="1"/>
        <pt x="904" y="407" on="1"/>
        <pt x="904" y="426" on="0"/>
        <pt x="927" y="428" on="1"/>
        <pt x="1089" y="443" on="1"/>
        <pt x="1129" y="443" on="0"/>
        <pt x="1131" y="404" on="1"/>
        <pt x="1149" y="7" on="1"/>
        <pt x="1147" y="-16" on="0"/>
        <pt x="1127" y="-19" on="1"/>
      </contour>
      <contour>
        <pt x="490" y="1643" on="1"/>
        <pt x="462" y="1619" on="0"/>
        <pt x="448" y="1618" on="1"/>
        <pt x="350" y="1609" on="1"/>
        <pt x="333" y="1609" on="0"/>
        <pt x="304" y="1634" on="1"/>
        <pt x="-10" y="1912" on="1"/>
        <pt x="-17" y="1919" on="0"/>
        <pt x="-17" y="1933" on="0"/>
        <pt x="-11" y="1941" on="1"/>
        <pt x="50" y="2014" on="1"/>
        <pt x="54" y="2020" on="0"/>
        <pt x="66" y="2020" on="0"/>
        <pt x="74" y="2016" on="1"/>
        <pt x="405" y="1832" on="1"/>
        <pt x="703" y="2013" on="1"/>
        <pt x="715" y="2019" on="0"/>
        <pt x="727" y="2019" on="0"/>
        <pt x="733" y="2011" on="1"/>
        <pt x="793" y="1939" on="1"/>
        <pt x="801" y="1928" on="0"/>
        <pt x="801" y="1922" on="1"/>
        <pt x="801" y="1917" on="0"/>
        <pt x="796" y="1913" on="1"/>
      </contour>
    </TTGlyph>
    <TTGlyph name="Lcommaaccent" xMin="82" yMin="-540" xMax="1149" yMax="1524">
      <contour>
        <pt x="969" y="-43" on="1"/>
        <pt x="952" y="-43" on="0"/>
        <pt x="948" y="-20" on="1"/>
        <pt x="943" y="28" on="1"/>
        <pt x="100" y="-7" on="1"/>
        <pt x="83" y="-7" on="0"/>
        <pt x="82" y="17" on="1"/>
        <pt x="98" y="191" on="1"/>
        <pt x="100" y="207" on="0"/>
        <pt x="114" y="210" on="1"/>
        <pt x="252" y="204" on="1"/>
        <pt x="261" y="1304" on="1"/>
        <pt x="125" y="1291" on="1"/>
        <pt x="114" y="1291" on="0"/>
        <pt x="108" y="1301" on="0"/>
        <pt x="107" y="1313" on="1"/>
        <pt x="98" y="1493" on="1"/>
        <pt x="99" y="1516" on="0"/>
        <pt x="122" y="1516" on="1"/>
        <pt x="607" y="1524" on="1"/>
        <pt x="626" y="1522" on="0"/>
        <pt x="629" y="1501" on="1"/>
        <pt x="648" y="1325" on="1"/>
        <pt x="648" y="1311" on="0"/>
        <pt x="635" y="1304" on="0"/>
        <pt x="625" y="1303" on="1"/>
        <pt x="479" y="1308" on="1"/>
        <pt x="476" y="209" on="1"/>
        <pt x="922" y="232" on="1"/>
        <pt x="904" y="407" on="1"/>
        <pt x="904" y="426" on="0"/>
        <pt x="927" y="428" on="1"/>
        <pt x="1089" y="443" on="1"/>
        <pt x="1129" y="443" on="0"/>
        <pt x="1131" y="404" on="1"/>
        <pt x="1149" y="7" on="1"/>
        <pt x="1147" y="-16" on="0"/>
        <pt x="1127" y="-19" on="1"/>
      </contour>
      <contour>
        <pt x="622" y="-540" on="1"/>
        <pt x="527" y="-504" on="1"/>
        <pt x="513" y="-499" on="0"/>
        <pt x="513" y="-485" on="0"/>
        <pt x="523" y="-464" on="0"/>
        <pt x="539" y="-426" on="0"/>
        <pt x="546" y="-407" on="1"/>
        <pt x="562" y="-364" on="0"/>
        <pt x="562" y="-344" on="1"/>
        <pt x="562" y="-316" on="0"/>
        <pt x="527" y="-291" on="1"/>
        <pt x="491" y="-263" on="0"/>
        <pt x="491" y="-219" on="0"/>
        <pt x="519" y="-168" on="0"/>
        <pt x="540" y="-148" on="1"/>
        <pt x="589" y="-101" on="0"/>
        <pt x="675" y="-101" on="0"/>
        <pt x="724" y="-126" on="0"/>
        <pt x="739" y="-146" on="1"/>
        <pt x="767" y="-185" on="0"/>
        <pt x="767" y="-286" on="0"/>
        <pt x="745" y="-361" on="0"/>
        <pt x="728" y="-396" on="1"/>
        <pt x="700" y="-452" on="0"/>
        <pt x="634" y="-540" on="0"/>
      </contour>
    </TTGlyph>
    <TTGlyph name="Ldot" xMin="82" yMin="-43" xMax="1155" yMax="1524">
      <contour>
        <pt x="969" y="-43" on="1"/>
        <pt x="952" y="-43" on="0"/>
        <pt x="948" y="-20" on="1"/>
        <pt x="943" y="28" on="1"/>
        <pt x="100" y="-7" on="1"/>
        <pt x="83" y="-7" on="0"/>
        <pt x="82" y="17" on="1"/>
        <pt x="98" y="191" on="1"/>
        <pt x="100" y="207" on="0"/>
        <pt x="114" y="210" on="1"/>
        <pt x="252" y="204" on="1"/>
        <pt x="261" y="1304" on="1"/>
        <pt x="125" y="1291" on="1"/>
        <pt x="114" y="1291" on="0"/>
        <pt x="108" y="1301" on="0"/>
        <pt x="107" y="1313" on="1"/>
        <pt x="98" y="1493" on="1"/>
        <pt x="99" y="1516" on="0"/>
        <pt x="122" y="1516" on="1"/>
        <pt x="607" y="1524" on="1"/>
        <pt x="626" y="1522" on="0"/>
        <pt x="629" y="1501" on="1"/>
        <pt x="648" y="1325" on="1"/>
        <pt x="648" y="1311" on="0"/>
        <pt x="635" y="1304" on="0"/>
        <pt x="625" y="1303" on="1"/>
        <pt x="479" y="1308" on="1"/>
        <pt x="476" y="209" on="1"/>
        <pt x="922" y="232" on="1"/>
        <pt x="904" y="407" on="1"/>
        <pt x="904" y="426" on="0"/>
        <pt x="927" y="428" on="1"/>
        <pt x="1089" y="443" on="1"/>
        <pt x="1129" y="443" on="0"/>
        <pt x="1131" y="404" on="1"/>
        <pt x="1149" y="7" on="1"/>
        <pt x="1147" y="-16" on="0"/>
        <pt x="1127" y="-19" on="1"/>
      </contour>
      <contour>
        <pt x="1144" y="915" on="0"/>
        <pt x="1155" y="855" on="0"/>
        <pt x="1155" y="803" on="0"/>
        <pt x="1120" y="760" on="0"/>
        <pt x="1091" y="746" on="1"/>
        <pt x="1031" y="717" on="0"/>
        <pt x="919" y="717" on="0"/>
        <pt x="877" y="752" on="0"/>
        <pt x="864" y="778" on="1"/>
        <pt x="839" y="828" on="0"/>
        <pt x="839" y="925" on="0"/>
        <pt x="883" y="969" on="0"/>
        <pt x="915" y="982" on="1"/>
        <pt x="970" y="1003" on="0"/>
        <pt x="1079" y="1003" on="0"/>
        <pt x="1120" y="968" on="0"/>
      </contour>
    </TTGlyph>
    <TTGlyph name="Lslash" xMin="53" yMin="-43" xMax="1149" yMax="1524">
      <contour>
        <pt x="969" y="-43" on="1"/>
        <pt x="952" y="-43" on="0"/>
        <pt x="948" y="-20" on="1"/>
        <pt x="943" y="28" on="1"/>
        <pt x="100" y="-7" on="1"/>
        <pt x="83" y="-7" on="0"/>
        <pt x="82" y="17" on="1"/>
        <pt x="98" y="191" on="1"/>
        <pt x="100" y="207" on="0"/>
        <pt x="114" y="210" on="1"/>
        <pt x="252" y="204" on="1"/>
        <pt x="255" y="566" on="1"/>
        <pt x="140" y="511" on="1"/>
        <pt x="134" y="508" on="0"/>
        <pt x="116" y="508" on="0"/>
        <pt x="111" y="519" on="1"/>
        <pt x="55" y="661" on="1"/>
        <pt x="53" y="667" on="0"/>
        <pt x="53" y="676" on="0"/>
        <pt x="62" y="681" on="1"/>
        <pt x="256" y="757" on="1"/>
        <pt x="261" y="1304" on="1"/>
        <pt x="125" y="1291" on="1"/>
        <pt x="114" y="1291" on="0"/>
        <pt x="108" y="1301" on="0"/>
        <pt x="107" y="1313" on="1"/>
        <pt x="98" y="1493" on="1"/>
        <pt x="99" y="1516" on="0"/>
        <pt x="122" y="1516" on="1"/>
        <pt x="607" y="1524" on="1"/>
        <pt x="626" y="1522" on="0"/>
        <pt x="629" y="1501" on="1"/>
        <pt x="648" y="1325" on="1"/>
        <pt x="648" y="1311" on="0"/>
        <pt x="635" y="1304" on="0"/>
        <pt x="625" y="1303" on="1"/>
        <pt x="479" y="1308" on="1"/>
        <pt x="478" y="854" on="1"/>
        <pt x="772" y="1010" on="1"/>
        <pt x="780" y="1014" on="0"/>
        <pt x="796" y="1014" on="0"/>
        <pt x="802" y="999" on="1"/>
        <pt x="864" y="856" on="1"/>
        <pt x="866" y="850" on="0"/>
        <pt x="866" y="836" on="0"/>
        <pt x="855" y="832" on="1"/>
        <pt x="477" y="670" on="1"/>
        <pt x="476" y="209" on="1"/>
        <pt x="922" y="232" on="1"/>
        <pt x="904" y="407" on="1"/>
        <pt x="904" y="426" on="0"/>
        <pt x="927" y="428" on="1"/>
        <pt x="1089" y="443" on="1"/>
        <pt x="1129" y="443" on="0"/>
        <pt x="1131" y="404" on="1"/>
        <pt x="1149" y="7" on="1"/>
        <pt x="1147" y="-16" on="0"/>
        <pt x="1127" y="-19" on="1"/>
      </contour>
    </TTGlyph>
    <TTGlyph name="M" xMin="88" yMin="-13" xMax="1799" yMax="1534">
      <contour>
        <pt x="1369" y="3" on="1"/>
        <pt x="1347" y="3" on="0"/>
        <pt x="1345" y="23" on="1"/>
        <pt x="1352" y="191" on="1"/>
        <pt x="1354" y="210" on="0"/>
        <pt x="1368" y="210" on="1"/>
        <pt x="1437" y="210" on="1"/>
        <pt x="1377" y="1337" on="1"/>
        <pt x="1058" y="10" on="1"/>
        <pt x="1054" y="-10" on="0"/>
        <pt x="1034" y="-10" on="1"/>
        <pt x="822" y="-13" on="1"/>
        <pt x="804" y="-13" on="0"/>
        <pt x="799" y="9" on="1"/>
        <pt x="468" y="1291" on="1"/>
        <pt x="439" y="216" on="1"/>
        <pt x="531" y="220" on="1"/>
        <pt x="544" y="220" on="0"/>
        <pt x="547" y="201" on="1"/>
        <pt x="564" y="23" on="1"/>
        <pt x="562" y="3" on="0"/>
        <pt x="540" y="3" on="1"/>
        <pt x="106" y="-4" on="1"/>
        <pt x="89" y="-4" on="0"/>
        <pt x="88" y="20" on="1"/>
        <pt x="100" y="207" on="1"/>
        <pt x="102" y="223" on="0"/>
        <pt x="116" y="226" on="1"/>
        <pt x="248" y="214" on="1"/>
        <pt x="307" y="1295" on="1"/>
        <pt x="183" y="1283" on="1"/>
        <pt x="163" y="1283" on="0"/>
        <pt x="162" y="1305" on="1"/>
        <pt x="153" y="1491" on="1"/>
        <pt x="155" y="1510" on="0"/>
        <pt x="177" y="1512" on="1"/>
        <pt x="587" y="1534" on="1"/>
        <pt x="616" y="1534" on="0"/>
        <pt x="624" y="1506" on="1"/>
        <pt x="942" y="238" on="1"/>
        <pt x="1258" y="1497" on="1"/>
        <pt x="1264" y="1525" on="0"/>
        <pt x="1295" y="1525" on="1"/>
        <pt x="1688" y="1522" on="1"/>
        <pt x="1700" y="1520" on="0"/>
        <pt x="1711" y="1513" on="0"/>
        <pt x="1712" y="1501" on="1"/>
        <pt x="1723" y="1305" on="1"/>
        <pt x="1721" y="1293" on="0"/>
        <pt x="1716" y="1283" on="0"/>
        <pt x="1705" y="1283" on="1"/>
        <pt x="1582" y="1284" on="1"/>
        <pt x="1650" y="213" on="1"/>
        <pt x="1783" y="216" on="1"/>
        <pt x="1797" y="213" on="0"/>
        <pt x="1799" y="197" on="1"/>
        <pt x="1781" y="30" on="1"/>
        <pt x="1777" y="6" on="0"/>
        <pt x="1763" y="6" on="1"/>
      </contour>
    </TTGlyph>
    <TTGlyph name="N" xMin="84" yMin="-3" xMax="1472" yMax="1534">
      <contour>
        <pt x="1472" y="1325" on="1"/>
        <pt x="1472" y="1303" on="0"/>
        <pt x="1449" y="1303" on="1"/>
        <pt x="1322" y="1306" on="1"/>
        <pt x="1320" y="39" on="1"/>
        <pt x="1320" y="12" on="0"/>
        <pt x="1296" y="10" on="1"/>
        <pt x="1054" y="-3" on="1"/>
        <pt x="1041" y="-3" on="0"/>
        <pt x="1031" y="19" on="1"/>
        <pt x="442" y="1324" on="1"/>
        <pt x="466" y="230" on="1"/>
        <pt x="623" y="240" on="1"/>
        <pt x="637" y="240" on="0"/>
        <pt x="639" y="221" on="1"/>
        <pt x="656" y="23" on="1"/>
        <pt x="654" y="3" on="0"/>
        <pt x="632" y="3" on="1"/>
        <pt x="148" y="6" on="1"/>
        <pt x="134" y="6" on="0"/>
        <pt x="130" y="30" on="1"/>
        <pt x="112" y="197" on="1"/>
        <pt x="114" y="216" on="0"/>
        <pt x="128" y="216" on="1"/>
        <pt x="285" y="220" on="1"/>
        <pt x="285" y="1301" on="1"/>
        <pt x="102" y="1293" on="1"/>
        <pt x="91" y="1294" on="0"/>
        <pt x="86" y="1303" on="0"/>
        <pt x="84" y="1315" on="1"/>
        <pt x="95" y="1491" on="1"/>
        <pt x="97" y="1510" on="0"/>
        <pt x="119" y="1512" on="1"/>
        <pt x="559" y="1534" on="1"/>
        <pt x="585" y="1532" on="0"/>
        <pt x="596" y="1506" on="1"/>
        <pt x="1163" y="232" on="1"/>
        <pt x="1137" y="1311" on="1"/>
        <pt x="982" y="1316" on="1"/>
        <pt x="971" y="1316" on="0"/>
        <pt x="965" y="1326" on="0"/>
        <pt x="964" y="1338" on="1"/>
        <pt x="970" y="1504" on="1"/>
        <pt x="972" y="1525" on="0"/>
        <pt x="994" y="1525" on="1"/>
        <pt x="1441" y="1527" on="1"/>
        <pt x="1452" y="1526" on="0"/>
        <pt x="1458" y="1517" on="0"/>
        <pt x="1459" y="1504" on="1"/>
      </contour>
    </TTGlyph>
    <TTGlyph name="Nacute" xMin="84" yMin="-3" xMax="1472" yMax="2020">
      <contour>
        <pt x="1472" y="1325" on="1"/>
        <pt x="1472" y="1303" on="0"/>
        <pt x="1449" y="1303" on="1"/>
        <pt x="1322" y="1306" on="1"/>
        <pt x="1320" y="39" on="1"/>
        <pt x="1320" y="12" on="0"/>
        <pt x="1296" y="10" on="1"/>
        <pt x="1054" y="-3" on="1"/>
        <pt x="1041" y="-3" on="0"/>
        <pt x="1031" y="19" on="1"/>
        <pt x="442" y="1324" on="1"/>
        <pt x="466" y="230" on="1"/>
        <pt x="623" y="240" on="1"/>
        <pt x="637" y="240" on="0"/>
        <pt x="639" y="221" on="1"/>
        <pt x="656" y="23" on="1"/>
        <pt x="654" y="3" on="0"/>
        <pt x="632" y="3" on="1"/>
        <pt x="148" y="6" on="1"/>
        <pt x="134" y="6" on="0"/>
        <pt x="130" y="30" on="1"/>
        <pt x="112" y="197" on="1"/>
        <pt x="114" y="216" on="0"/>
        <pt x="128" y="216" on="1"/>
        <pt x="285" y="220" on="1"/>
        <pt x="285" y="1301" on="1"/>
        <pt x="102" y="1293" on="1"/>
        <pt x="91" y="1294" on="0"/>
        <pt x="86" y="1303" on="0"/>
        <pt x="84" y="1315" on="1"/>
        <pt x="95" y="1491" on="1"/>
        <pt x="97" y="1510" on="0"/>
        <pt x="119" y="1512" on="1"/>
        <pt x="559" y="1534" on="1"/>
        <pt x="585" y="1532" on="0"/>
        <pt x="596" y="1506" on="1"/>
        <pt x="1163" y="232" on="1"/>
        <pt x="1137" y="1311" on="1"/>
        <pt x="982" y="1316" on="1"/>
        <pt x="971" y="1316" on="0"/>
        <pt x="965" y="1326" on="0"/>
        <pt x="964" y="1338" on="1"/>
        <pt x="970" y="1504" on="1"/>
        <pt x="972" y="1525" on="0"/>
        <pt x="994" y="1525" on="1"/>
        <pt x="1441" y="1527" on="1"/>
        <pt x="1452" y="1526" on="0"/>
        <pt x="1458" y="1517" on="0"/>
        <pt x="1459" y="1504" on="1"/>
      </contour>
      <contour>
        <pt x="1116" y="1842" on="1"/>
        <pt x="1120" y="1834" on="0"/>
        <pt x="1120" y="1811" on="0"/>
        <pt x="1105" y="1805" on="1"/>
        <pt x="611" y="1598" on="1"/>
        <pt x="603" y="1595" on="0"/>
        <pt x="589" y="1595" on="0"/>
        <pt x="585" y="1605" on="1"/>
        <pt x="546" y="1697" on="1"/>
        <pt x="542" y="1707" on="0"/>
        <pt x="542" y="1719" on="0"/>
        <pt x="551" y="1724" on="1"/>
        <pt x="1004" y="2014" on="1"/>
        <pt x="1016" y="2020" on="0"/>
        <pt x="1040" y="2020" on="0"/>
        <pt x="1046" y="2006" on="1"/>
      </contour>
    </TTGlyph>
    <TTGlyph name="Ncaron" xMin="84" yMin="-3" xMax="1472" yMax="2020">
      <contour>
        <pt x="1472" y="1325" on="1"/>
        <pt x="1472" y="1303" on="0"/>
        <pt x="1449" y="1303" on="1"/>
        <pt x="1322" y="1306" on="1"/>
        <pt x="1320" y="39" on="1"/>
        <pt x="1320" y="12" on="0"/>
        <pt x="1296" y="10" on="1"/>
        <pt x="1054" y="-3" on="1"/>
        <pt x="1041" y="-3" on="0"/>
        <pt x="1031" y="19" on="1"/>
        <pt x="442" y="1324" on="1"/>
        <pt x="466" y="230" on="1"/>
        <pt x="623" y="240" on="1"/>
        <pt x="637" y="240" on="0"/>
        <pt x="639" y="221" on="1"/>
        <pt x="656" y="23" on="1"/>
        <pt x="654" y="3" on="0"/>
        <pt x="632" y="3" on="1"/>
        <pt x="148" y="6" on="1"/>
        <pt x="134" y="6" on="0"/>
        <pt x="130" y="30" on="1"/>
        <pt x="112" y="197" on="1"/>
        <pt x="114" y="216" on="0"/>
        <pt x="128" y="216" on="1"/>
        <pt x="285" y="220" on="1"/>
        <pt x="285" y="1301" on="1"/>
        <pt x="102" y="1293" on="1"/>
        <pt x="91" y="1294" on="0"/>
        <pt x="86" y="1303" on="0"/>
        <pt x="84" y="1315" on="1"/>
        <pt x="95" y="1491" on="1"/>
        <pt x="97" y="1510" on="0"/>
        <pt x="119" y="1512" on="1"/>
        <pt x="559" y="1534" on="1"/>
        <pt x="585" y="1532" on="0"/>
        <pt x="596" y="1506" on="1"/>
        <pt x="1163" y="232" on="1"/>
        <pt x="1137" y="1311" on="1"/>
        <pt x="982" y="1316" on="1"/>
        <pt x="971" y="1316" on="0"/>
        <pt x="965" y="1326" on="0"/>
        <pt x="964" y="1338" on="1"/>
        <pt x="970" y="1504" on="1"/>
        <pt x="972" y="1525" on="0"/>
        <pt x="994" y="1525" on="1"/>
        <pt x="1441" y="1527" on="1"/>
        <pt x="1452" y="1526" on="0"/>
        <pt x="1458" y="1517" on="0"/>
        <pt x="1459" y="1504" on="1"/>
      </contour>
      <contour>
        <pt x="850" y="1643" on="1"/>
        <pt x="822" y="1619" on="0"/>
        <pt x="808" y="1618" on="1"/>
        <pt x="710" y="1609" on="1"/>
        <pt x="693" y="1609" on="0"/>
        <pt x="664" y="1634" on="1"/>
        <pt x="350" y="1912" on="1"/>
        <pt x="343" y="1919" on="0"/>
        <pt x="343" y="1933" on="0"/>
        <pt x="349" y="1941" on="1"/>
        <pt x="410" y="2014" on="1"/>
        <pt x="414" y="2020" on="0"/>
        <pt x="426" y="2020" on="0"/>
        <pt x="434" y="2016" on="1"/>
        <pt x="765" y="1832" on="1"/>
        <pt x="1063" y="2013" on="1"/>
        <pt x="1075" y="2019" on="0"/>
        <pt x="1087" y="2019" on="0"/>
        <pt x="1093" y="2011" on="1"/>
        <pt x="1153" y="1939" on="1"/>
        <pt x="1161" y="1928" on="0"/>
        <pt x="1161" y="1922" on="1"/>
        <pt x="1161" y="1917" on="0"/>
        <pt x="1156" y="1913" on="1"/>
      </contour>
    </TTGlyph>
    <TTGlyph name="Ncommaaccent" xMin="84" yMin="-540" xMax="1472" yMax="1534">
      <contour>
        <pt x="1472" y="1325" on="1"/>
        <pt x="1472" y="1303" on="0"/>
        <pt x="1449" y="1303" on="1"/>
        <pt x="1322" y="1306" on="1"/>
        <pt x="1320" y="39" on="1"/>
        <pt x="1320" y="12" on="0"/>
        <pt x="1296" y="10" on="1"/>
        <pt x="1054" y="-3" on="1"/>
        <pt x="1041" y="-3" on="0"/>
        <pt x="1031" y="19" on="1"/>
        <pt x="442" y="1324" on="1"/>
        <pt x="466" y="230" on="1"/>
        <pt x="623" y="240" on="1"/>
        <pt x="637" y="240" on="0"/>
        <pt x="639" y="221" on="1"/>
        <pt x="656" y="23" on="1"/>
        <pt x="654" y="3" on="0"/>
        <pt x="632" y="3" on="1"/>
        <pt x="148" y="6" on="1"/>
        <pt x="134" y="6" on="0"/>
        <pt x="130" y="30" on="1"/>
        <pt x="112" y="197" on="1"/>
        <pt x="114" y="216" on="0"/>
        <pt x="128" y="216" on="1"/>
        <pt x="285" y="220" on="1"/>
        <pt x="285" y="1301" on="1"/>
        <pt x="102" y="1293" on="1"/>
        <pt x="91" y="1294" on="0"/>
        <pt x="86" y="1303" on="0"/>
        <pt x="84" y="1315" on="1"/>
        <pt x="95" y="1491" on="1"/>
        <pt x="97" y="1510" on="0"/>
        <pt x="119" y="1512" on="1"/>
        <pt x="559" y="1534" on="1"/>
        <pt x="585" y="1532" on="0"/>
        <pt x="596" y="1506" on="1"/>
        <pt x="1163" y="232" on="1"/>
        <pt x="1137" y="1311" on="1"/>
        <pt x="982" y="1316" on="1"/>
        <pt x="971" y="1316" on="0"/>
        <pt x="965" y="1326" on="0"/>
        <pt x="964" y="1338" on="1"/>
        <pt x="970" y="1504" on="1"/>
        <pt x="972" y="1525" on="0"/>
        <pt x="994" y="1525" on="1"/>
        <pt x="1441" y="1527" on="1"/>
        <pt x="1452" y="1526" on="0"/>
        <pt x="1458" y="1517" on="0"/>
        <pt x="1459" y="1504" on="1"/>
      </contour>
      <contour>
        <pt x="773" y="-540" on="1"/>
        <pt x="678" y="-504" on="1"/>
        <pt x="664" y="-499" on="0"/>
        <pt x="664" y="-485" on="0"/>
        <pt x="674" y="-464" on="0"/>
        <pt x="690" y="-426" on="0"/>
        <pt x="697" y="-407" on="1"/>
        <pt x="713" y="-364" on="0"/>
        <pt x="713" y="-344" on="1"/>
        <pt x="713" y="-316" on="0"/>
        <pt x="678" y="-291" on="1"/>
        <pt x="642" y="-263" on="0"/>
        <pt x="642" y="-219" on="0"/>
        <pt x="670" y="-168" on="0"/>
        <pt x="692" y="-148" on="1"/>
        <pt x="740" y="-101" on="0"/>
        <pt x="826" y="-101" on="0"/>
        <pt x="875" y="-126" on="0"/>
        <pt x="890" y="-146" on="1"/>
        <pt x="918" y="-185" on="0"/>
        <pt x="918" y="-286" on="0"/>
        <pt x="896" y="-361" on="0"/>
        <pt x="878" y="-396" on="1"/>
        <pt x="851" y="-452" on="0"/>
        <pt x="785" y="-540" on="0"/>
      </contour>
    </TTGlyph>
    <TTGlyph name="Ntilde" xMin="84" yMin="-3" xMax="1472" yMax="2012">
      <contour>
        <pt x="1472" y="1325" on="1"/>
        <pt x="1472" y="1303" on="0"/>
        <pt x="1449" y="1303" on="1"/>
        <pt x="1322" y="1306" on="1"/>
        <pt x="1320" y="39" on="1"/>
        <pt x="1320" y="12" on="0"/>
        <pt x="1296" y="10" on="1"/>
        <pt x="1054" y="-3" on="1"/>
        <pt x="1041" y="-3" on="0"/>
        <pt x="1031" y="19" on="1"/>
        <pt x="442" y="1324" on="1"/>
        <pt x="466" y="230" on="1"/>
        <pt x="623" y="240" on="1"/>
        <pt x="637" y="240" on="0"/>
        <pt x="639" y="221" on="1"/>
        <pt x="656" y="23" on="1"/>
        <pt x="654" y="3" on="0"/>
        <pt x="632" y="3" on="1"/>
        <pt x="148" y="6" on="1"/>
        <pt x="134" y="6" on="0"/>
        <pt x="130" y="30" on="1"/>
        <pt x="112" y="197" on="1"/>
        <pt x="114" y="216" on="0"/>
        <pt x="128" y="216" on="1"/>
        <pt x="285" y="220" on="1"/>
        <pt x="285" y="1301" on="1"/>
        <pt x="102" y="1293" on="1"/>
        <pt x="91" y="1294" on="0"/>
        <pt x="86" y="1303" on="0"/>
        <pt x="84" y="1315" on="1"/>
        <pt x="95" y="1491" on="1"/>
        <pt x="97" y="1510" on="0"/>
        <pt x="119" y="1512" on="1"/>
        <pt x="559" y="1534" on="1"/>
        <pt x="585" y="1532" on="0"/>
        <pt x="596" y="1506" on="1"/>
        <pt x="1163" y="232" on="1"/>
        <pt x="1137" y="1311" on="1"/>
        <pt x="982" y="1316" on="1"/>
        <pt x="971" y="1316" on="0"/>
        <pt x="965" y="1326" on="0"/>
        <pt x="964" y="1338" on="1"/>
        <pt x="970" y="1504" on="1"/>
        <pt x="972" y="1525" on="0"/>
        <pt x="994" y="1525" on="1"/>
        <pt x="1441" y="1527" on="1"/>
        <pt x="1452" y="1526" on="0"/>
        <pt x="1458" y="1517" on="0"/>
        <pt x="1459" y="1504" on="1"/>
      </contour>
      <contour>
        <pt x="353" y="1842" on="1"/>
        <pt x="353" y="1859" on="0"/>
        <pt x="454" y="1944" on="0"/>
        <pt x="488" y="1965" on="1"/>
        <pt x="564" y="2012" on="0"/>
        <pt x="616" y="2012" on="1"/>
        <pt x="658" y="2012" on="0"/>
        <pt x="793" y="1937" on="0"/>
        <pt x="871" y="1900" on="0"/>
        <pt x="926" y="1900" on="0"/>
        <pt x="975" y="1912" on="0"/>
        <pt x="1021" y="1931" on="0"/>
        <pt x="1042" y="1942" on="1"/>
        <pt x="1080" y="1962" on="1"/>
        <pt x="1113" y="1981" on="0"/>
        <pt x="1135" y="1981" on="0"/>
        <pt x="1142" y="1962" on="1"/>
        <pt x="1175" y="1884" on="1"/>
        <pt x="1177" y="1879" on="0"/>
        <pt x="1177" y="1872" on="1"/>
        <pt x="1177" y="1859" on="0"/>
        <pt x="1082" y="1770" on="0"/>
        <pt x="1048" y="1746" on="1"/>
        <pt x="967" y="1690" on="0"/>
        <pt x="870" y="1690" on="0"/>
        <pt x="791" y="1725" on="0"/>
        <pt x="751" y="1745" on="1"/>
        <pt x="645" y="1798" on="0"/>
        <pt x="589" y="1798" on="0"/>
        <pt x="550" y="1788" on="0"/>
        <pt x="509" y="1772" on="0"/>
        <pt x="488" y="1763" on="1"/>
        <pt x="451" y="1746" on="1"/>
        <pt x="419" y="1731" on="0"/>
        <pt x="408" y="1731" on="1"/>
        <pt x="392" y="1731" on="0"/>
        <pt x="385" y="1751" on="1"/>
      </contour>
    </TTGlyph>
    <TTGlyph name="O" xMin="105" yMin="-10" xMax="1260" yMax="1540">
      <contour>
        <pt x="1260" y="751" on="1"/>
        <pt x="1260" y="-10" on="0"/>
        <pt x="699" y="-10" on="1"/>
        <pt x="406" y="-10" on="0"/>
        <pt x="105" y="375" on="0"/>
        <pt x="105" y="751" on="1"/>
        <pt x="105" y="1330" on="0"/>
        <pt x="422" y="1488" on="1"/>
        <pt x="528" y="1540" on="0"/>
        <pt x="813" y="1540" on="0"/>
        <pt x="1032" y="1452" on="0"/>
        <pt x="1107" y="1357" on="1"/>
        <pt x="1260" y="1163" on="0"/>
      </contour>
      <contour>
        <pt x="1034" y="764" on="1"/>
        <pt x="1034" y="919" on="0"/>
        <pt x="986" y="1139" on="0"/>
        <pt x="893" y="1265" on="0"/>
        <pt x="759" y="1312" on="0"/>
        <pt x="577" y="1312" on="0"/>
        <pt x="445" y="1244" on="0"/>
        <pt x="404" y="1175" on="1"/>
        <pt x="329" y="1046" on="0"/>
        <pt x="329" y="755" on="1"/>
        <pt x="329" y="458" on="0"/>
        <pt x="423" y="332" on="1"/>
        <pt x="510" y="217" on="0"/>
        <pt x="706" y="217" on="1"/>
        <pt x="885" y="217" on="0"/>
        <pt x="962" y="344" on="1"/>
        <pt x="1034" y="466" on="0"/>
      </contour>
    </TTGlyph>
    <TTGlyph name="OE" xMin="106" yMin="-60" xMax="1807" yMax="1553">
      <contour>
        <pt x="1540" y="882" on="1"/>
        <pt x="1565" y="882" on="0"/>
        <pt x="1567" y="859" on="1"/>
        <pt x="1554" y="691" on="1"/>
        <pt x="1552" y="668" on="0"/>
        <pt x="1531" y="668" on="1"/>
        <pt x="1144" y="661" on="1"/>
        <pt x="1122" y="203" on="1"/>
        <pt x="1558" y="221" on="1"/>
        <pt x="1554" y="353" on="1"/>
        <pt x="1556" y="388" on="0"/>
        <pt x="1596" y="392" on="1"/>
        <pt x="1755" y="407" on="1"/>
        <pt x="1780" y="405" on="0"/>
        <pt x="1781" y="383" on="1"/>
        <pt x="1807" y="-21" on="1"/>
        <pt x="1804" y="-46" on="0"/>
        <pt x="1784" y="-47" on="1"/>
        <pt x="1588" y="-60" on="1"/>
        <pt x="1566" y="-57" on="0"/>
        <pt x="1566" y="-34" on="1"/>
        <pt x="1564" y="30" on="1"/>
        <pt x="835" y="22" on="1"/>
        <pt x="751" y="-12" on="0"/>
        <pt x="503" y="-12" on="0"/>
        <pt x="306" y="94" on="0"/>
        <pt x="240" y="193" on="1"/>
        <pt x="106" y="392" on="0"/>
        <pt x="106" y="751" on="1"/>
        <pt x="106" y="1330" on="0"/>
        <pt x="423" y="1488" on="1"/>
        <pt x="529" y="1540" on="0"/>
        <pt x="789" y="1540" on="0"/>
        <pt x="875" y="1498" on="1"/>
        <pt x="1696" y="1553" on="1"/>
        <pt x="1726" y="1553" on="0"/>
        <pt x="1726" y="1526" on="1"/>
        <pt x="1706" y="1181" on="1"/>
        <pt x="1705" y="1160" on="0"/>
        <pt x="1685" y="1158" on="1"/>
        <pt x="1522" y="1144" on="1"/>
        <pt x="1508" y="1144" on="0"/>
        <pt x="1502" y="1157" on="0"/>
        <pt x="1501" y="1170" on="1"/>
        <pt x="1505" y="1341" on="1"/>
        <pt x="1113" y="1318" on="1"/>
        <pt x="1145" y="851" on="1"/>
      </contour>
      <contour>
        <pt x="926" y="394" on="0"/>
        <pt x="955" y="599" on="0"/>
        <pt x="955" y="919" on="0"/>
        <pt x="916" y="1142" on="0"/>
        <pt x="879" y="1207" on="1"/>
        <pt x="814" y="1322" on="0"/>
        <pt x="664" y="1322" on="1"/>
        <pt x="479" y="1322" on="0"/>
        <pt x="401" y="1180" on="1"/>
        <pt x="330" y="1051" on="0"/>
        <pt x="330" y="755" on="1"/>
        <pt x="330" y="331" on="0"/>
        <pt x="507" y="237" on="1"/>
        <pt x="567" y="205" on="0"/>
        <pt x="739" y="205" on="0"/>
        <pt x="856" y="265" on="0"/>
      </contour>
    </TTGlyph>
    <TTGlyph name="Oacute" xMin="105" yMin="-10" xMax="1260" yMax="2020">
      <contour>
        <pt x="1260" y="751" on="1"/>
        <pt x="1260" y="-10" on="0"/>
        <pt x="699" y="-10" on="1"/>
        <pt x="406" y="-10" on="0"/>
        <pt x="105" y="375" on="0"/>
        <pt x="105" y="751" on="1"/>
        <pt x="105" y="1330" on="0"/>
        <pt x="422" y="1488" on="1"/>
        <pt x="528" y="1540" on="0"/>
        <pt x="813" y="1540" on="0"/>
        <pt x="1032" y="1452" on="0"/>
        <pt x="1107" y="1357" on="1"/>
        <pt x="1260" y="1163" on="0"/>
      </contour>
      <contour>
        <pt x="1034" y="764" on="1"/>
        <pt x="1034" y="919" on="0"/>
        <pt x="986" y="1139" on="0"/>
        <pt x="893" y="1265" on="0"/>
        <pt x="759" y="1312" on="0"/>
        <pt x="577" y="1312" on="0"/>
        <pt x="445" y="1244" on="0"/>
        <pt x="404" y="1175" on="1"/>
        <pt x="329" y="1046" on="0"/>
        <pt x="329" y="755" on="1"/>
        <pt x="329" y="458" on="0"/>
        <pt x="423" y="332" on="1"/>
        <pt x="510" y="217" on="0"/>
        <pt x="706" y="217" on="1"/>
        <pt x="885" y="217" on="0"/>
        <pt x="962" y="344" on="1"/>
        <pt x="1034" y="466" on="0"/>
      </contour>
      <contour>
        <pt x="1033" y="1842" on="1"/>
        <pt x="1037" y="1834" on="0"/>
        <pt x="1037" y="1811" on="0"/>
        <pt x="1022" y="1805" on="1"/>
        <pt x="528" y="1598" on="1"/>
        <pt x="520" y="1595" on="0"/>
        <pt x="506" y="1595" on="0"/>
        <pt x="502" y="1605" on="1"/>
        <pt x="463" y="1697" on="1"/>
        <pt x="459" y="1707" on="0"/>
        <pt x="459" y="1719" on="0"/>
        <pt x="468" y="1724" on="1"/>
        <pt x="921" y="2014" on="1"/>
        <pt x="933" y="2020" on="0"/>
        <pt x="957" y="2020" on="0"/>
        <pt x="963" y="2006" on="1"/>
      </contour>
    </TTGlyph>
    <TTGlyph name="Obreve" xMin="105" yMin="-10" xMax="1260" yMax="2020">
      <contour>
        <pt x="1260" y="751" on="1"/>
        <pt x="1260" y="-10" on="0"/>
        <pt x="699" y="-10" on="1"/>
        <pt x="406" y="-10" on="0"/>
        <pt x="105" y="375" on="0"/>
        <pt x="105" y="751" on="1"/>
        <pt x="105" y="1330" on="0"/>
        <pt x="422" y="1488" on="1"/>
        <pt x="528" y="1540" on="0"/>
        <pt x="813" y="1540" on="0"/>
        <pt x="1032" y="1452" on="0"/>
        <pt x="1107" y="1357" on="1"/>
        <pt x="1260" y="1163" on="0"/>
      </contour>
      <contour>
        <pt x="1034" y="764" on="1"/>
        <pt x="1034" y="919" on="0"/>
        <pt x="986" y="1139" on="0"/>
        <pt x="893" y="1265" on="0"/>
        <pt x="759" y="1312" on="0"/>
        <pt x="577" y="1312" on="0"/>
        <pt x="445" y="1244" on="0"/>
        <pt x="404" y="1175" on="1"/>
        <pt x="329" y="1046" on="0"/>
        <pt x="329" y="755" on="1"/>
        <pt x="329" y="458" on="0"/>
        <pt x="423" y="332" on="1"/>
        <pt x="510" y="217" on="0"/>
        <pt x="706" y="217" on="1"/>
        <pt x="885" y="217" on="0"/>
        <pt x="962" y="344" on="1"/>
        <pt x="1034" y="466" on="0"/>
      </contour>
      <contour>
        <pt x="1037" y="2006" on="1"/>
        <pt x="1061" y="2006" on="0"/>
        <pt x="1061" y="1983" on="1"/>
        <pt x="1061" y="1841" on="0"/>
        <pt x="966" y="1743" on="1"/>
        <pt x="865" y="1638" on="0"/>
        <pt x="698" y="1638" on="1"/>
        <pt x="527" y="1638" on="0"/>
        <pt x="417" y="1729" on="1"/>
        <pt x="304" y="1823" on="0"/>
        <pt x="304" y="1984" on="1"/>
        <pt x="304" y="2007" on="0"/>
        <pt x="328" y="2007" on="1"/>
        <pt x="471" y="2020" on="1"/>
        <pt x="490" y="2020" on="0"/>
        <pt x="495" y="1956" on="0"/>
        <pt x="528" y="1892" on="0"/>
        <pt x="554" y="1869" on="1"/>
        <pt x="610" y="1821" on="0"/>
        <pt x="691" y="1821" on="1"/>
        <pt x="843" y="1821" on="0"/>
        <pt x="873" y="1986" on="1"/>
        <pt x="877" y="2010" on="0"/>
        <pt x="894" y="2010" on="1"/>
      </contour>
    </TTGlyph>
    <TTGlyph name="Ocircumflex" xMin="105" yMin="-10" xMax="1260" yMax="2020">
      <contour>
        <pt x="1260" y="751" on="1"/>
        <pt x="1260" y="-10" on="0"/>
        <pt x="699" y="-10" on="1"/>
        <pt x="406" y="-10" on="0"/>
        <pt x="105" y="375" on="0"/>
        <pt x="105" y="751" on="1"/>
        <pt x="105" y="1330" on="0"/>
        <pt x="422" y="1488" on="1"/>
        <pt x="528" y="1540" on="0"/>
        <pt x="813" y="1540" on="0"/>
        <pt x="1032" y="1452" on="0"/>
        <pt x="1107" y="1357" on="1"/>
        <pt x="1260" y="1163" on="0"/>
      </contour>
      <contour>
        <pt x="1034" y="764" on="1"/>
        <pt x="1034" y="919" on="0"/>
        <pt x="986" y="1139" on="0"/>
        <pt x="893" y="1265" on="0"/>
        <pt x="759" y="1312" on="0"/>
        <pt x="577" y="1312" on="0"/>
        <pt x="445" y="1244" on="0"/>
        <pt x="404" y="1175" on="1"/>
        <pt x="329" y="1046" on="0"/>
        <pt x="329" y="755" on="1"/>
        <pt x="329" y="458" on="0"/>
        <pt x="423" y="332" on="1"/>
        <pt x="510" y="217" on="0"/>
        <pt x="706" y="217" on="1"/>
        <pt x="885" y="217" on="0"/>
        <pt x="962" y="344" on="1"/>
        <pt x="1034" y="466" on="0"/>
      </contour>
      <contour>
        <pt x="594" y="1985" on="1"/>
        <pt x="623" y="2008" on="0"/>
        <pt x="639" y="2010" on="1"/>
        <pt x="734" y="2020" on="1"/>
        <pt x="750" y="2020" on="0"/>
        <pt x="780" y="1994" on="1"/>
        <pt x="1082" y="1743" on="1"/>
        <pt x="1089" y="1736" on="0"/>
        <pt x="1089" y="1721" on="0"/>
        <pt x="1083" y="1714" on="1"/>
        <pt x="1022" y="1641" on="1"/>
        <pt x="1017" y="1635" on="0"/>
        <pt x="1006" y="1635" on="0"/>
        <pt x="998" y="1639" on="1"/>
        <pt x="678" y="1798" on="1"/>
        <pt x="381" y="1644" on="1"/>
        <pt x="377" y="1642" on="0"/>
        <pt x="365" y="1642" on="0"/>
        <pt x="359" y="1650" on="1"/>
        <pt x="297" y="1726" on="1"/>
        <pt x="291" y="1734" on="0"/>
        <pt x="291" y="1739" on="1"/>
        <pt x="291" y="1744" on="0"/>
        <pt x="296" y="1748" on="1"/>
      </contour>
    </TTGlyph>
    <TTGlyph name="Odieresis" xMin="105" yMin="-10" xMax="1260" yMax="1988">
      <contour>
        <pt x="1260" y="751" on="1"/>
        <pt x="1260" y="-10" on="0"/>
        <pt x="699" y="-10" on="1"/>
        <pt x="406" y="-10" on="0"/>
        <pt x="105" y="375" on="0"/>
        <pt x="105" y="751" on="1"/>
        <pt x="105" y="1330" on="0"/>
        <pt x="422" y="1488" on="1"/>
        <pt x="528" y="1540" on="0"/>
        <pt x="813" y="1540" on="0"/>
        <pt x="1032" y="1452" on="0"/>
        <pt x="1107" y="1357" on="1"/>
        <pt x="1260" y="1163" on="0"/>
      </contour>
      <contour>
        <pt x="1034" y="764" on="1"/>
        <pt x="1034" y="919" on="0"/>
        <pt x="986" y="1139" on="0"/>
        <pt x="893" y="1265" on="0"/>
        <pt x="759" y="1312" on="0"/>
        <pt x="577" y="1312" on="0"/>
        <pt x="445" y="1244" on="0"/>
        <pt x="404" y="1175" on="1"/>
        <pt x="329" y="1046" on="0"/>
        <pt x="329" y="755" on="1"/>
        <pt x="329" y="458" on="0"/>
        <pt x="423" y="332" on="1"/>
        <pt x="510" y="217" on="0"/>
        <pt x="706" y="217" on="1"/>
        <pt x="885" y="217" on="0"/>
        <pt x="962" y="344" on="1"/>
        <pt x="1034" y="466" on="0"/>
      </contour>
      <contour>
        <pt x="542" y="1735" on="0"/>
        <pt x="478" y="1725" on="0"/>
        <pt x="393" y="1725" on="0"/>
        <pt x="346" y="1737" on="0"/>
        <pt x="332" y="1752" on="1"/>
        <pt x="305" y="1779" on="0"/>
        <pt x="305" y="1894" on="0"/>
        <pt x="318" y="1947" on="0"/>
        <pt x="336" y="1962" on="1"/>
        <pt x="367" y="1988" on="0"/>
        <pt x="505" y="1988" on="0"/>
        <pt x="552" y="1978" on="0"/>
        <pt x="566" y="1964" on="1"/>
        <pt x="594" y="1939" on="0"/>
        <pt x="594" y="1821" on="0"/>
        <pt x="580" y="1765" on="0"/>
      </contour>
      <contour>
        <pt x="1013" y="1735" on="0"/>
        <pt x="949" y="1725" on="0"/>
        <pt x="864" y="1725" on="0"/>
        <pt x="817" y="1737" on="0"/>
        <pt x="803" y="1752" on="1"/>
        <pt x="776" y="1779" on="0"/>
        <pt x="776" y="1894" on="0"/>
        <pt x="789" y="1947" on="0"/>
        <pt x="807" y="1962" on="1"/>
        <pt x="838" y="1988" on="0"/>
        <pt x="976" y="1988" on="0"/>
        <pt x="1023" y="1978" on="0"/>
        <pt x="1038" y="1964" on="1"/>
        <pt x="1065" y="1939" on="0"/>
        <pt x="1065" y="1821" on="0"/>
        <pt x="1051" y="1765" on="0"/>
      </contour>
    </TTGlyph>
    <TTGlyph name="Ograve" xMin="105" yMin="-10" xMax="1260" yMax="2020">
      <contour>
        <pt x="1260" y="751" on="1"/>
        <pt x="1260" y="-10" on="0"/>
        <pt x="699" y="-10" on="1"/>
        <pt x="406" y="-10" on="0"/>
        <pt x="105" y="375" on="0"/>
        <pt x="105" y="751" on="1"/>
        <pt x="105" y="1330" on="0"/>
        <pt x="422" y="1488" on="1"/>
        <pt x="528" y="1540" on="0"/>
        <pt x="813" y="1540" on="0"/>
        <pt x="1032" y="1452" on="0"/>
        <pt x="1107" y="1357" on="1"/>
        <pt x="1260" y="1163" on="0"/>
      </contour>
      <contour>
        <pt x="1034" y="764" on="1"/>
        <pt x="1034" y="919" on="0"/>
        <pt x="986" y="1139" on="0"/>
        <pt x="893" y="1265" on="0"/>
        <pt x="759" y="1312" on="0"/>
        <pt x="577" y="1312" on="0"/>
        <pt x="445" y="1244" on="0"/>
        <pt x="404" y="1175" on="1"/>
        <pt x="329" y="1046" on="0"/>
        <pt x="329" y="755" on="1"/>
        <pt x="329" y="458" on="0"/>
        <pt x="423" y="332" on="1"/>
        <pt x="510" y="217" on="0"/>
        <pt x="706" y="217" on="1"/>
        <pt x="885" y="217" on="0"/>
        <pt x="962" y="344" on="1"/>
        <pt x="1034" y="466" on="0"/>
      </contour>
      <contour>
        <pt x="403" y="2006" on="1"/>
        <pt x="409" y="2020" on="0"/>
        <pt x="433" y="2020" on="0"/>
        <pt x="445" y="2014" on="1"/>
        <pt x="937" y="1738" on="1"/>
        <pt x="946" y="1733" on="0"/>
        <pt x="946" y="1721" on="0"/>
        <pt x="942" y="1711" on="1"/>
        <pt x="903" y="1619" on="1"/>
        <pt x="899" y="1609" on="0"/>
        <pt x="884" y="1609" on="0"/>
        <pt x="877" y="1612" on="1"/>
        <pt x="344" y="1805" on="1"/>
        <pt x="329" y="1811" on="0"/>
        <pt x="329" y="1834" on="0"/>
        <pt x="333" y="1842" on="1"/>
      </contour>
    </TTGlyph>
</ttFont>
